<svg width="15" height="18" viewBox="0 0 15 18" fill="none" xmlns="http://www.w3.org/2000/svg">
<path fill-rule="evenodd" clip-rule="evenodd" d="M11.52 16.5601H12.96V5.04009H11.52V16.5601ZM10.08 18H14.4V3.60001H10.08V18ZM6.47996 16.5601H7.91996V7.92005H6.47996V16.5601ZM5.04009 18H9.36009V6.47996H5.04009V18ZM1.44009 16.5601H2.88009V12.2401H1.44009V16.5601ZM0 18H4.32V10.8H0V18Z" fill="#4F4F4F"/>
<path fill-rule="evenodd" clip-rule="evenodd" d="M5.46678 3.6144C5.46678 4.00392 5.78286 4.32 6.17238 4.32H6.20118C6.5907 4.32 6.90678 4.00392 6.90678 3.6144V1.44C6.90678 0.6444 6.26238 0 5.46678 0H3.21462C2.82942 0 2.58678 0.3096 2.58678 0.69552V0.72432C2.58678 1.11744 2.82078 1.44 3.21462 1.44H3.61134C3.93246 1.44 4.09302 1.8288 3.8655 2.05488L0.207901 5.6952C-0.0685786 5.97024 -0.0692986 6.41808 0.205741 6.69384L0.209341 6.69744C0.485101 6.97392 0.933661 6.9732 1.2087 6.696L4.85118 3.0312C5.07798 2.80368 5.46678 2.96424 5.46678 3.28536V3.6144Z" fill="#4F4F4F"/>
</svg>
