<svg width="31" height="18" viewBox="0 0 31 18" fill="none" xmlns="http://www.w3.org/2000/svg">
<path d="M15.5 0L15.1901 0.0938527L2.81386 4.23128L0 5.15697L1.63861 5.68057V14.3249C1.04752 14.6677 0.648515 15.2931 0.648515 16.0241C0.648515 16.5482 0.857142 17.0507 1.2285 17.4213C1.59986 17.7918 2.10353 18 2.62871 18C3.15389 18 3.65757 17.7918 4.02892 17.4213C4.40028 17.0507 4.60891 16.5482 4.60891 16.0241C4.60891 15.2931 4.2099 14.6677 3.61881 14.3249V6.36224L5.59901 7.00933V12.0724C5.59901 12.8825 6.09406 13.5543 6.68218 14.0187C7.2703 14.48 8.00099 14.806 8.87822 15.0985C10.6347 15.6813 12.9495 16.0241 15.5 16.0241C18.0505 16.0241 20.3653 15.6823 22.1218 15.0975C22.999 14.806 23.7297 14.48 24.3178 14.0177C24.9059 13.5543 25.401 12.8825 25.401 12.0724V7.00933L28.1861 6.08266L31 5.15697L28.1851 4.2303L15.8089 0.0938527L15.5 0ZM15.5 2.0697L24.7822 5.15697L15.5 8.24424L6.21782 5.15697L15.5 2.0697ZM7.57921 7.68902L15.1911 10.2201L15.5 10.313L15.8099 10.2191L23.4208 7.68804V12.0724C23.4208 12.0823 23.4248 12.1969 23.1109 12.4429C22.798 12.6899 22.2366 13.0011 21.502 13.2461C20.0347 13.7332 17.8713 14.0483 15.5 14.0483C13.1287 14.0483 10.9653 13.7341 9.49703 13.2451C8.76436 13.0011 8.20198 12.6889 7.88911 12.4429C7.57426 12.1959 7.57921 12.0823 7.57921 12.0724V7.68804V7.68902Z" fill="#4DA1FF"/>
</svg>
