<svg width="14" height="12" viewBox="0 0 14 12" fill="none" xmlns="http://www.w3.org/2000/svg">
<path fill-rule="evenodd" clip-rule="evenodd" d="M10.3263 7.00119L6.96904 10.3739L3.61175 7.00119L1.93344 5.31514C1.03423 4.35111 1.03423 2.84574 1.93344 1.94238C2.83266 0.978354 4.33112 0.978354 5.29073 1.94238L6.96904 3.62843L8.64801 1.94238C9.54722 0.978354 11.0457 0.978354 12.0046 1.94238C12.9038 2.90574 12.9038 4.41178 12.0046 5.31514L10.3263 7.00119ZM12.7844 1.03903C11.4054 -0.346343 9.12718 -0.346343 7.74883 1.03903L6.90934 1.88172L6.06985 1.03903C4.69084 -0.346343 2.41328 -0.346343 1.03426 1.03903C-0.344754 2.4244 -0.344754 4.71246 1.03426 6.09784L1.87375 6.94119L6.90934 12L11.9449 6.94119L12.7844 6.09784C14.1628 4.71246 14.1628 2.4844 12.7844 1.03903Z" fill="#4F4F4F"/>
</svg>
