<svg width="11" height="11" viewBox="0 0 11 11" fill="none" xmlns="http://www.w3.org/2000/svg">
<path fill-rule="evenodd" clip-rule="evenodd" d="M5.37564 10.7513C8.34453 10.7513 10.7513 8.34453 10.7513 5.37564C10.7513 2.40676 8.34453 0 5.37564 0C2.40676 0 0 2.40676 0 5.37564C0 8.34453 2.40676 10.7513 5.37564 10.7513Z" fill="#97C66B"/>
<path fill-rule="evenodd" clip-rule="evenodd" d="M5.1485 7.31794C4.89719 7.56925 4.49034 7.56925 4.23968 7.31794L2.8758 5.95471C2.62514 5.70404 2.62514 5.29655 2.8758 5.04588C3.12711 4.79458 3.53396 4.79458 3.78463 5.04588L4.69409 5.95471L6.96615 3.68265C7.21745 3.43134 7.6243 3.43134 7.87497 3.68265C8.12628 3.93332 8.12628 4.34017 7.87497 4.59147L5.1485 7.31794Z" fill="white"/>
</svg>
