<svg width="29" height="25" viewBox="0 0 29 25" fill="none" xmlns="http://www.w3.org/2000/svg">
<path fill-rule="evenodd" clip-rule="evenodd" d="M21.0296 14.2581L14.1925 21.1267L7.35535 14.2581L3.93747 10.8244C2.10621 8.86117 2.10621 5.79547 3.93747 3.95577C5.76872 1.99253 8.82036 1.99253 10.7746 3.95577L14.1925 7.38942L17.6117 3.95577C19.443 1.99253 22.4946 1.99253 24.4475 3.95577C26.2788 5.91766 26.2788 8.98473 24.4475 10.8244L21.0296 14.2581ZM26.0356 2.11599C23.2272 -0.70533 18.5876 -0.70533 15.7805 2.11599L14.0709 3.83213L12.3613 2.11599C9.55293 -0.70533 4.91465 -0.70533 2.10628 2.11599C-0.702093 4.93731 -0.702093 9.59697 2.10628 12.4183L3.8159 14.1358L14.0709 24.4381L24.3259 14.1358L26.0356 12.4183C28.8426 9.59697 28.8426 5.0595 26.0356 2.11599Z" fill="#E0E0E0"/>
</svg>
