<svg width="26" height="22" viewBox="0 0 26 22" fill="none" xmlns="http://www.w3.org/2000/svg">
<path fill-rule="evenodd" clip-rule="evenodd" d="M18.9316 12.8357L12.7766 19.0191L6.62155 12.8357L3.54465 9.74459C1.89609 7.9772 1.89609 5.21735 3.54465 3.56119C5.1932 1.79381 7.94039 1.79381 9.69966 3.56119L12.7766 6.65228L15.8547 3.56119C17.5032 1.79381 20.2504 1.79381 22.0085 3.56119C23.657 5.32735 23.657 8.08843 22.0085 9.74459L18.9316 12.8357ZM23.4381 1.90489C20.9099 -0.634962 16.7332 -0.634962 14.2062 1.90489L12.6671 3.44982L11.1281 1.90489C8.59987 -0.634962 4.42434 -0.634962 1.89614 1.90489C-0.632048 4.44473 -0.632048 8.63952 1.89614 11.1794L3.4352 12.7255L12.6671 22L21.899 12.7255L23.4381 11.1794C25.9651 8.63952 25.9651 4.55474 23.4381 1.90489Z" fill="#E0E0E0"/>
</svg>
