<svg width="11" height="13" viewBox="0 0 11 13" fill="none" xmlns="http://www.w3.org/2000/svg">
<path d="M9.42307 5.34615H3.71153V3.4423C3.71153 2.39265 4.56572 1.53846 5.61538 1.53846C6.66503 1.53846 7.51922 2.39265 7.51922 3.4423H8.78845C8.78845 1.69267 7.36501 0.269226 5.61538 0.269226C3.86574 0.269226 2.4423 1.69267 2.4423 3.4423V5.34615H1.80768C1.47106 5.34615 1.14823 5.47987 0.910201 5.7179C0.672174 5.95592 0.538452 6.27876 0.538452 6.61538V11.6923C0.538452 12.0289 0.672174 12.3518 0.910201 12.5898C1.14823 12.8278 1.47106 12.9615 1.80768 12.9615H9.42307C9.75969 12.9615 10.0825 12.8278 10.3205 12.5898C10.5586 12.3518 10.6923 12.0289 10.6923 11.6923V6.61538C10.6923 6.27876 10.5586 5.95592 10.3205 5.7179C10.0825 5.47987 9.75969 5.34615 9.42307 5.34615ZM4.38486 8.8359C4.46286 8.53727 4.64691 8.27725 4.90263 8.1044C5.15834 7.93156 5.46823 7.85771 5.77441 7.89665C6.0806 7.9356 6.36213 8.08467 6.56644 8.31602C6.77074 8.54738 6.88384 8.84519 6.88461 9.15384C6.88424 9.37579 6.82539 9.59373 6.71398 9.78569C6.60256 9.97766 6.44253 10.1369 6.24999 10.2473V11.6923H4.98076V10.2473C4.74063 10.1097 4.5523 9.8971 4.44465 9.64214C4.337 9.38719 4.316 9.10395 4.38486 8.8359Z" fill="#444444"/>
</svg>
