<svg width="11" height="13" viewBox="0 0 11 13" fill="none" xmlns="http://www.w3.org/2000/svg">
<path d="M10.6923 6.61538C10.6923 5.9154 10.123 5.34615 9.42307 5.34615H8.78845V3.4423C8.78845 1.69267 7.36501 0.269226 5.61538 0.269226C3.86574 0.269226 2.4423 1.69267 2.4423 3.4423V5.34615H1.80768C1.1077 5.34615 0.538452 5.9154 0.538452 6.61538V11.6923C0.538452 12.3923 1.1077 12.9615 1.80768 12.9615H9.42307C10.123 12.9615 10.6923 12.3923 10.6923 11.6923V6.61538ZM3.71153 3.4423C3.71153 2.39265 4.56572 1.53846 5.61538 1.53846C6.66503 1.53846 7.51922 2.39265 7.51922 3.4423V5.34615H3.71153V3.4423Z" fill="#4DA1FF"/>
</svg>
