<svg width="16" height="25" viewBox="0 0 16 25" fill="none" xmlns="http://www.w3.org/2000/svg">
<path d="M4.96032 2.48016H0V22.3214H4.96032V24.8016L14.881 22.3214V2.48016L4.96032 0V2.48016ZM1.24008 3.72024H4.96032V21.0814H1.24008V3.72024ZM7.18006 13.3805C6.98165 13.3805 6.80184 13.2771 6.64062 13.0704C6.47941 12.8638 6.39881 12.6199 6.39881 12.3388C6.39881 12.0577 6.47941 11.8118 6.64062 11.6009C6.80184 11.3901 6.98165 11.2847 7.18006 11.2847C7.37847 11.2847 7.55622 11.3881 7.71329 11.5947C7.87037 11.8014 7.94891 12.0494 7.94891 12.3388C7.94891 12.6199 7.87037 12.8638 7.71329 13.0704C7.55622 13.2771 7.37847 13.3805 7.18006 13.3805Z" fill="#444444"/>
</svg>
