<svg width="13" height="9" viewBox="0 0 13 9" fill="none" xmlns="http://www.w3.org/2000/svg">
<path d="M1.3377 0H10.7656C11.6551 0 12.1033 0.41981 12.1033 1.27366V7.26484C12.1033 8.11158 11.6551 8.5385 10.7656 8.5385H1.3377C0.448271 8.5385 0 8.11158 0 7.26484V1.27366C0 0.41981 0.448271 0 1.3377 0ZM6.04811 6.11926L10.8439 2.18443C11.0147 2.04213 11.1499 1.71482 10.9364 1.42308C10.7301 1.13135 10.3529 1.12424 10.1039 1.30212L6.04811 4.04867L1.99943 1.30212C1.75039 1.12424 1.37328 1.13135 1.16693 1.42308C0.953466 1.71482 1.08866 2.04213 1.25943 2.18443L6.04811 6.11926Z" fill="#444444"/>
</svg>
