<svg width="10" height="12" viewBox="0 0 10 12" fill="none" xmlns="http://www.w3.org/2000/svg">
<path fill-rule="evenodd" clip-rule="evenodd" d="M9.24969 8.41031C8.94515 8.02679 8.45063 7.47108 8.02726 7.41842C7.76968 7.3864 7.47368 7.59986 7.18195 7.80123C7.12502 7.82969 6.68529 8.09154 6.63192 8.10719C6.35015 8.1876 5.7489 8.21108 5.3853 7.8795C5.03522 7.55931 4.48164 6.96659 4.0348 6.42369C3.60787 5.86441 3.16031 5.19201 2.93119 4.77931C2.69211 4.35168 2.86431 3.786 3.01231 3.53696C3.03935 3.49213 3.36666 3.15557 3.43995 3.0773L3.45062 3.09011C3.72172 2.86242 4.00562 2.63117 4.03764 2.3807C4.0903 1.96374 3.66408 1.35679 3.35954 0.972562C3.055 0.587618 2.58325 -0.0862128 1.94073 0.00913388C1.6988 0.044711 1.49032 0.129384 1.28468 0.251058L1.27899 0.244654C1.26746 0.25324 1.25608 0.262017 1.24484 0.270981L1.22705 0.280231L1.22918 0.283078C1.11107 0.374155 0.773797 0.626041 0.735374 0.660195C0.31841 1.03091 -0.30917 1.90397 0.176102 3.47434C0.536142 4.64127 1.3039 6.0117 2.34986 7.39779L2.34417 7.40277C2.3954 7.46965 2.44806 7.53013 2.50142 7.59488C2.55123 7.66106 2.60033 7.72652 2.65156 7.79198L2.65867 7.787C3.76868 9.12399 4.93276 10.1927 5.99509 10.8231C7.42529 11.6713 8.44209 11.2892 8.91171 10.9854C8.95582 10.9562 9.29167 10.6951 9.40551 10.609L9.40836 10.6118C9.41263 10.6076 9.41548 10.6019 9.42117 10.5976C9.43143 10.5898 9.44163 10.582 9.45177 10.5741L9.4475 10.5684C9.61969 10.4019 9.75773 10.224 9.85308 9.9999C10.1028 9.41003 9.55423 8.79526 9.24969 8.41031Z" fill="#444444"/>
</svg>
