<svg width="119" height="13" viewBox="0 0 119 13" fill="none" xmlns="http://www.w3.org/2000/svg">
<path d="M0.587891 9.35449L1.81836 9.19043C1.95964 9.8877 2.19889 10.3913 2.53613 10.7012C2.87793 11.0065 3.29264 11.1592 3.78027 11.1592C4.35905 11.1592 4.84668 10.9587 5.24316 10.5576C5.64421 10.1566 5.84473 9.65983 5.84473 9.06738C5.84473 8.50228 5.66016 8.03743 5.29102 7.67285C4.92188 7.30371 4.45247 7.11914 3.88281 7.11914C3.65039 7.11914 3.361 7.16471 3.01465 7.25586L3.15137 6.17578C3.2334 6.1849 3.29948 6.18945 3.34961 6.18945C3.8737 6.18945 4.34538 6.05273 4.76465 5.7793C5.18392 5.50586 5.39355 5.08431 5.39355 4.51465C5.39355 4.06348 5.24089 3.68978 4.93555 3.39355C4.63021 3.09733 4.236 2.94922 3.75293 2.94922C3.27441 2.94922 2.87565 3.09961 2.55664 3.40039C2.23763 3.70117 2.03255 4.15234 1.94141 4.75391L0.710938 4.53516C0.861328 3.71029 1.20312 3.07227 1.73633 2.62109C2.26953 2.16536 2.93262 1.9375 3.72559 1.9375C4.27246 1.9375 4.77604 2.05599 5.23633 2.29297C5.69661 2.52539 6.04753 2.8444 6.28906 3.25C6.53516 3.6556 6.6582 4.08626 6.6582 4.54199C6.6582 4.97493 6.54199 5.36914 6.30957 5.72461C6.07715 6.08008 5.73307 6.36263 5.27734 6.57227C5.86979 6.70898 6.33008 6.99382 6.6582 7.42676C6.98633 7.85514 7.15039 8.3929 7.15039 9.04004C7.15039 9.91504 6.83138 10.6579 6.19336 11.2686C5.55534 11.8747 4.7487 12.1777 3.77344 12.1777C2.89388 12.1777 2.16243 11.9157 1.5791 11.3916C1.00033 10.8675 0.669922 10.1885 0.587891 9.35449ZM9.06445 12V10.5986H10.4658V12H9.06445ZM12.2705 7.05762C12.2705 5.87272 12.3913 4.92025 12.6328 4.2002C12.8789 3.47559 13.2412 2.91732 13.7197 2.52539C14.2028 2.13346 14.8089 1.9375 15.5381 1.9375C16.0758 1.9375 16.5475 2.04688 16.9531 2.26562C17.3587 2.47982 17.6937 2.79199 17.958 3.20215C18.2223 3.60775 18.4297 4.10449 18.5801 4.69238C18.7305 5.27572 18.8057 6.06413 18.8057 7.05762C18.8057 8.2334 18.6849 9.18359 18.4434 9.9082C18.2018 10.6283 17.8395 11.1865 17.3564 11.583C16.8779 11.9749 16.2718 12.1709 15.5381 12.1709C14.5719 12.1709 13.8132 11.8245 13.2617 11.1318C12.6009 10.2979 12.2705 8.93978 12.2705 7.05762ZM13.5352 7.05762C13.5352 8.7028 13.7266 9.79883 14.1094 10.3457C14.4967 10.888 14.973 11.1592 15.5381 11.1592C16.1032 11.1592 16.5771 10.8857 16.96 10.3389C17.3473 9.79199 17.541 8.69824 17.541 7.05762C17.541 5.40788 17.3473 4.31185 16.96 3.76953C16.5771 3.22721 16.0986 2.95605 15.5244 2.95605C14.9593 2.95605 14.5081 3.19531 14.1709 3.67383C13.7471 4.28451 13.5352 5.41243 13.5352 7.05762Z" fill="#363B40"/>
<path fill-rule="evenodd" clip-rule="evenodd" d="M96.8633 6.7626C96.2159 7.4204 95.9201 8.3668 96.0735 9.29565L96.3576 11.022L94.8691 10.2069C94.4765 9.9918 94.0345 9.87805 93.5912 9.87805C93.1472 9.87805 92.7052 9.9918 92.3126 10.2069L90.8241 11.022L91.1088 9.29565C91.2616 8.3668 90.9658 7.4204 90.3184 6.7626L89.1146 5.53995L90.7786 5.28775C91.6737 5.15255 92.4465 4.56755 92.8469 3.72255L93.5912 2.1515L94.3354 3.72255C94.7352 4.56755 95.5087 5.15255 96.4031 5.28775L98.0677 5.53995L96.8633 6.7626ZM99.7343 6.13145C100.432 5.4223 100.048 4.18665 99.0824 4.0404L96.6293 3.66925C96.2458 3.6114 95.9143 3.3605 95.7433 2.99845L94.6461 0.68315C94.4303 0.2275 94.0104 0 93.5912 0C93.1713 0 92.7514 0.2275 92.5356 0.68315L91.4391 2.99845C91.2675 3.3605 90.936 3.6114 90.5531 3.66925L88.1 4.0404C87.1348 4.18665 86.7493 5.4223 87.4474 6.13145L89.2226 7.93389C89.5001 8.21534 89.6269 8.62094 89.5612 9.01874L89.142 11.5641C89.0113 12.3565 89.6158 13 90.3016 13C90.4823 13 90.6695 12.9551 90.8495 12.8563L93.0433 11.6545C93.2148 11.5609 93.4027 11.5134 93.5912 11.5134C93.779 11.5134 93.9669 11.5609 94.1385 11.6545L96.3329 12.8563C96.5129 12.9551 96.6995 13 96.8802 13C97.5659 13 98.1704 12.3565 98.0398 11.5641L97.6212 9.01874C97.5555 8.62094 97.6816 8.21534 97.9592 7.93389L99.7343 6.13145Z" fill="#E3E9EF"/>
<path fill-rule="evenodd" clip-rule="evenodd" d="M115.713 6.7626C115.066 7.4204 114.77 8.3668 114.924 9.29565L115.208 11.022L113.719 10.2069C113.326 9.9918 112.884 9.87805 112.441 9.87805C111.997 9.87805 111.555 9.9918 111.163 10.2069L109.674 11.022L109.959 9.29565C110.112 8.3668 109.816 7.4204 109.168 6.7626L107.965 5.53995L109.629 5.28775C110.524 5.15255 111.297 4.56755 111.697 3.72255L112.441 2.1515L113.185 3.72255C113.585 4.56755 114.359 5.15255 115.253 5.28775L116.918 5.53995L115.713 6.7626ZM118.584 6.13145C119.282 5.4223 118.898 4.18665 117.932 4.0404L115.479 3.66925C115.096 3.6114 114.764 3.3605 114.593 2.99845L113.496 0.68315C113.28 0.2275 112.86 0 112.441 0C112.021 0 111.601 0.2275 111.386 0.68315L110.289 2.99845C110.117 3.3605 109.786 3.6114 109.403 3.66925L106.95 4.0404C105.985 4.18665 105.599 5.4223 106.297 6.13145L108.073 7.93389C108.35 8.21534 108.477 8.62094 108.411 9.01874L107.992 11.5641C107.861 12.3565 108.466 13 109.152 13C109.332 13 109.519 12.9551 109.699 12.8563L111.893 11.6545C112.065 11.5609 112.253 11.5134 112.441 11.5134C112.629 11.5134 112.817 11.5609 112.988 11.6545L115.183 12.8563C115.363 12.9551 115.549 13 115.73 13C116.416 13 117.02 12.3565 116.89 11.5641L116.471 9.01874C116.406 8.62094 116.532 8.21534 116.809 7.93389L118.584 6.13145Z" fill="#E3E9EF"/>
<path fill-rule="evenodd" clip-rule="evenodd" d="M41.4092 7.93389C41.1317 8.21534 41.0056 8.62094 41.0706 9.01874L41.4898 11.5641C41.6205 12.3565 41.016 13 40.3302 13C40.1495 13 39.963 12.9551 39.7823 12.8563L37.5885 11.6545C37.4169 11.5609 37.2291 11.5141 37.0406 11.5141C36.8527 11.5141 36.6649 11.5609 36.4933 11.6545L34.2995 12.8563C34.1188 12.9551 33.9323 13 33.7516 13C33.0658 13 32.4613 12.3565 32.592 11.5641L33.0112 9.01874C33.0762 8.62094 32.9501 8.21534 32.6726 7.93389L30.8974 6.13145C30.1993 5.4223 30.5848 4.18665 31.5494 4.0404L34.0025 3.66925C34.386 3.6114 34.7175 3.3605 34.8884 2.99845L35.9856 0.68315C36.2014 0.2275 36.6213 0 37.0406 0C37.4605 0 37.8804 0.2275 38.0962 0.68315L39.1934 2.99845C39.3643 3.3605 39.6958 3.6114 40.0793 3.66925L42.5324 4.0404C43.497 4.18665 43.8825 5.4223 43.1844 6.13145L41.4092 7.93389Z" fill="#F7D852"/>
<path fill-rule="evenodd" clip-rule="evenodd" d="M60.2592 7.93389C59.9817 8.21534 59.8556 8.62094 59.9206 9.01874L60.3398 11.5641C60.4705 12.3565 59.866 13 59.1802 13C58.9995 13 58.813 12.9551 58.6323 12.8563L56.4385 11.6545C56.2669 11.5609 56.0791 11.5141 55.8906 11.5141C55.7027 11.5141 55.5149 11.5609 55.3433 11.6545L53.1495 12.8563C52.9688 12.9551 52.7823 13 52.6016 13C51.9158 13 51.3113 12.3565 51.442 11.5641L51.8612 9.01874C51.9262 8.62094 51.8001 8.21534 51.5226 7.93389L49.7474 6.13145C49.0493 5.4223 49.4348 4.18665 50.3994 4.0404L52.8525 3.66925C53.236 3.6114 53.5675 3.3605 53.7384 2.99845L54.8356 0.68315C55.0514 0.2275 55.4713 0 55.8906 0C56.3105 0 56.7304 0.2275 56.9462 0.68315L58.0434 2.99845C58.2143 3.3605 58.5458 3.6114 58.9293 3.66925L61.3824 4.0404C62.347 4.18665 62.7325 5.4223 62.0344 6.13145L60.2592 7.93389Z" fill="#F7D852"/>
<path fill-rule="evenodd" clip-rule="evenodd" d="M79.1092 7.93389C78.8316 8.21534 78.7055 8.62094 78.7705 9.01874L79.1898 11.5641C79.3204 12.3565 78.7159 13 78.0302 13C77.8495 13 77.6629 12.9551 77.4822 12.8563L75.2885 11.6545C75.1169 11.5609 74.929 11.5141 74.7405 11.5141C74.5527 11.5141 74.3648 11.5609 74.1932 11.6545L71.9995 12.8563C71.8188 12.9551 71.6322 13 71.4515 13C70.7658 13 70.1613 12.3565 70.2919 11.5641L70.7112 9.01874C70.7762 8.62094 70.6501 8.21534 70.3725 7.93389L68.5974 6.13145C67.8993 5.4223 68.2847 4.18665 69.2493 4.0404L71.7024 3.66925C72.0859 3.6114 72.4174 3.3605 72.5884 2.99845L73.6856 0.68315C73.9014 0.2275 74.3213 0 74.7405 0C75.1604 0 75.5803 0.2275 75.7961 0.68315L76.8933 2.99845C77.0643 3.3605 77.3958 3.6114 77.7793 3.66925L80.2324 4.0404C81.197 4.18665 81.5824 5.4223 80.8843 6.13145L79.1092 7.93389Z" fill="#F7D852"/>
</svg>
