<svg width="67" height="12" viewBox="0 0 67 12" fill="none" xmlns="http://www.w3.org/2000/svg">
<path fill-rule="evenodd" clip-rule="evenodd" d="M50.2698 5.93046C49.702 6.50733 49.4427 7.33729 49.5772 8.15186L49.8263 9.66585L48.5209 8.95103C48.1766 8.76235 47.789 8.6626 47.4003 8.6626C47.0109 8.6626 46.6233 8.76235 46.279 8.95103L44.9737 9.66585L45.2233 8.15186C45.3573 7.33729 45.0979 6.50733 44.5302 5.93046L43.4745 4.85824L44.9338 4.63707C45.7187 4.5185 46.3964 4.00548 46.7476 3.26444L47.4003 1.88669L48.0529 3.26444C48.4035 4.00548 49.0818 4.5185 49.8662 4.63707L51.326 4.85824L50.2698 5.93046Z" fill="#DADADA"/>
<path fill-rule="evenodd" clip-rule="evenodd" d="M52.7875 5.37707C53.3997 4.75517 53.0622 3.67154 52.2157 3.54329L50.0645 3.2178C49.7281 3.16707 49.4374 2.94704 49.2875 2.62953L48.3253 0.599099C48.1361 0.19951 47.7678 0 47.4002 0C47.0319 0 46.6637 0.19951 46.4744 0.599099L45.5128 2.62953C45.3623 2.94704 45.0716 3.16707 44.7358 3.2178L42.5846 3.54329C41.7381 3.67154 41.4 4.75517 42.0123 5.37707L43.569 6.95775C43.8124 7.20457 43.9236 7.56027 43.866 7.90913L43.4983 10.1414C43.3837 10.8362 43.9139 11.4005 44.5152 11.4005C44.6737 11.4005 44.8379 11.3612 44.9958 11.2746L46.9196 10.2206C47.0701 10.1385 47.2348 10.0969 47.4002 10.0969C47.5649 10.0969 47.7296 10.1385 47.8801 10.2206L49.8045 11.2746C49.9624 11.3612 50.126 11.4005 50.2845 11.4005C50.8859 11.4005 51.416 10.8362 51.3014 10.1414L50.9343 7.90913C50.8767 7.56027 50.9873 7.20457 51.2307 6.95775L52.7875 5.37707Z" fill="#E0E0E0"/>
<path fill-rule="evenodd" clip-rule="evenodd" d="M64.1696 5.93046C63.6018 6.50733 63.3425 7.33729 63.477 8.15186L63.7261 9.66585L62.4207 8.95103C62.0764 8.76235 61.6888 8.6626 61.3 8.6626C60.9107 8.6626 60.5231 8.76235 60.1788 8.95103L58.8734 9.66585L59.1231 8.15186C59.2571 7.33729 58.9977 6.50733 58.43 5.93046L57.3743 4.85824L58.8335 4.63707C59.6185 4.5185 60.2962 4.00548 60.6474 3.26444L61.3 1.88669L61.9527 3.26444C62.3033 4.00548 62.9816 4.5185 63.766 4.63707L65.2258 4.85824L64.1696 5.93046Z" fill="#DADADA"/>
<path fill-rule="evenodd" clip-rule="evenodd" d="M66.6873 5.37707C67.2995 4.75517 66.962 3.67154 66.1155 3.54329L63.9642 3.2178C63.6279 3.16707 63.3372 2.94704 63.1873 2.62953L62.2251 0.599098C62.0358 0.199509 61.6676 0 61.2999 0C60.9317 0 60.5635 0.199509 60.3742 0.599098L59.4126 2.62953C59.2621 2.94704 58.9714 3.16707 58.6356 3.2178L56.4843 3.54329C55.6379 3.67154 55.2998 4.75517 55.912 5.37707L57.4688 6.95775C57.7122 7.20457 57.8233 7.56027 57.7658 7.90913L57.3981 10.1414C57.2835 10.8362 57.8136 11.4005 58.415 11.4005C58.5735 11.4005 58.7377 11.3612 58.8956 11.2746L60.8194 10.2206C60.9699 10.1385 61.1346 10.0969 61.2999 10.0969C61.4647 10.0969 61.6294 10.1385 61.7799 10.2206L63.7043 11.2746C63.8622 11.3612 64.0258 11.4005 64.1843 11.4005C64.7857 11.4005 65.3158 10.8362 65.2012 10.1414L64.8341 7.90913C64.7765 7.56027 64.8871 7.20457 65.1305 6.95775L66.6873 5.37707Z" fill="#E0E0E0"/>
<path fill-rule="evenodd" clip-rule="evenodd" d="M9.53105 6.95775C9.28765 7.20457 9.17707 7.56027 9.23407 7.90913L9.60174 10.1414C9.71631 10.8362 9.18619 11.4005 8.58481 11.4005C8.42634 11.4005 8.26274 11.3612 8.10428 11.2746L6.18043 10.2206C6.02995 10.1385 5.86521 10.0975 5.6999 10.0975C5.53516 10.0975 5.37043 10.1385 5.21994 10.2206L3.2961 11.2746C3.13763 11.3612 2.97403 11.4005 2.81556 11.4005C2.21419 11.4005 1.68406 10.8362 1.79864 10.1414L2.1663 7.90913C2.22331 7.56027 2.11272 7.20457 1.86932 6.95775L0.312575 5.37707C-0.299634 4.75517 0.0383919 3.67154 0.884312 3.54329L3.03559 3.2178C3.37191 3.16707 3.66262 2.94704 3.81254 2.62953L4.77475 0.599099C4.964 0.19951 5.33223 0 5.6999 0C6.06814 0 6.43638 0.19951 6.62563 0.599099L7.58783 2.62953C7.73775 2.94704 8.02846 3.16707 8.36478 3.2178L10.5161 3.54329C11.362 3.67154 11.7 4.75517 11.0878 5.37707L9.53105 6.95775Z" fill="#F7D852"/>
<path fill-rule="evenodd" clip-rule="evenodd" d="M23.431 6.95775C23.1876 7.20457 23.077 7.56027 23.134 7.90913L23.5016 10.1414C23.6162 10.8362 23.0861 11.4005 22.4847 11.4005C22.3262 11.4005 22.1626 11.3612 22.0042 11.2746L20.0803 10.2206C19.9298 10.1385 19.7651 10.0975 19.5998 10.0975C19.4351 10.0975 19.2703 10.1385 19.1198 10.2206L17.196 11.2746C17.0375 11.3612 16.8739 11.4005 16.7155 11.4005C16.1141 11.4005 15.584 10.8362 15.6985 10.1414L16.0662 7.90913C16.1232 7.56027 16.0126 7.20457 15.7692 6.95775L14.2125 5.37707C13.6003 4.75517 13.9383 3.67154 14.7842 3.54329L16.9355 3.2178C17.2718 3.16707 17.5625 2.94704 17.7124 2.62953L18.6746 0.599099C18.8639 0.19951 19.2321 0 19.5998 0C19.968 0 20.3363 0.19951 20.5255 0.599099L21.4877 2.62953C21.6377 2.94704 21.9284 3.16707 22.2647 3.2178L24.416 3.54329C25.2619 3.67154 25.5999 4.75517 24.9877 5.37707L23.431 6.95775Z" fill="#F7D852"/>
<path fill-rule="evenodd" clip-rule="evenodd" d="M37.4623 6.95775C37.2189 7.20457 37.1083 7.56027 37.1653 7.90913L37.533 10.1414C37.6476 10.8362 37.1175 11.4005 36.5161 11.4005C36.3576 11.4005 36.194 11.3612 36.0356 11.2746L34.1117 10.2206C33.9612 10.1385 33.7965 10.0975 33.6312 10.0975C33.4664 10.0975 33.3017 10.1385 33.1512 10.2206L31.2274 11.2746C31.0689 11.3612 30.9053 11.4005 30.7468 11.4005C30.1455 11.4005 29.6153 10.8362 29.7299 10.1414L30.0976 7.90913C30.1546 7.56027 30.044 7.20457 29.8006 6.95775L28.2438 5.37707C27.6316 4.75517 27.9697 3.67154 28.8156 3.54329L30.9669 3.2178C31.3032 3.16707 31.5939 2.94704 31.7438 2.62953L32.706 0.599099C32.8953 0.19951 33.2635 0 33.6312 0C33.9994 0 34.3677 0.19951 34.5569 0.599099L35.5191 2.62953C35.669 2.94704 35.9597 3.16707 36.2961 3.2178L38.4473 3.54329C39.2933 3.67154 39.6313 4.75517 39.0191 5.37707L37.4623 6.95775Z" fill="#F7D852"/>
</svg>
