<svg width="17" height="10" viewBox="0 0 17 10" fill="none" xmlns="http://www.w3.org/2000/svg">
<path fill-rule="evenodd" clip-rule="evenodd" d="M10 5.00052C10 5.95648 9.25419 6.73077 8.33335 6.73077C7.41252 6.73077 6.66669 5.95648 6.66669 5.00052C6.66669 4.04455 7.41252 3.27026 8.33335 3.27026C9.25419 3.27026 10 4.04455 10 5.00052ZM8.33337 8.26972C5.84254 8.26972 3.49587 7.03951 1.99921 5.0004C3.49587 2.9613 5.84254 1.73022 8.33337 1.73022C10.8242 1.73022 13.1709 2.9613 14.6675 5.0004C13.1709 7.03951 10.8242 8.26972 8.33337 8.26972ZM8.33333 0C4.77 0 1.66583 2.01402 0 5.00043C1.66583 7.98685 4.77 10 8.33333 10C11.8967 10 15.0008 7.98685 16.6667 5.00043C15.0008 2.01402 11.8967 0 8.33333 0Z" fill="#4F4F4F"/>
</svg>
