<?xml version="1.0" encoding="utf-8"?>
<!-- Generator: Adobe Illustrator 24.3.0, SVG Export Plug-In . SVG Version: 6.00 Build 0)  -->
<svg version="1.1" id="Layer_1" xmlns="http://www.w3.org/2000/svg" xmlns:xlink="http://www.w3.org/1999/xlink" x="0px" y="0px"
	 viewBox="0 0 23 21" style="enable-background:new 0 0 23 21;" xml:space="preserve">
<style type="text/css">
	.st0{fill:#4DA1FF;}
</style>
<g>
	<path class="st0" d="M11.5,17c-3,0-5.4-2.4-5.4-5.4s2.4-5.4,5.4-5.4s5.4,2.4,5.4,5.4S14.5,17,11.5,17z M8.2,0.7l-2,2.2H2.8
		c-1.2,0-2.2,1-2.2,2.2v13.1c0,1.2,1,2.2,2.2,2.2h17.4c1.2,0,2.2-1,2.2-2.2V5.1c0-1.2-1-2.2-2.2-2.2h-3.5l-2-2.2H8.2z"/>
	<path class="st0" d="M14.8,11.6c0,0.3,0,0.5-0.3,0.5H12v2.4c0,0.3-0.2,0.3-0.5,0.3c-0.3,0-0.5,0-0.5-0.3v-2.4H8.6
		c-0.3,0-0.3-0.2-0.3-0.5c0-0.3,0-0.5,0.3-0.5H11V8.6c0-0.3,0.2-0.3,0.5-0.3c0.3,0,0.5,0,0.5,0.3V11h2.4
		C14.7,11,14.8,11.3,14.8,11.6z"/>
</g>
</svg>
