<svg width="17" height="21" viewBox="0 0 17 21" fill="none" xmlns="http://www.w3.org/2000/svg">
<g clip-path="url(#clip0)">
<path d="M16.2839 17.4946C16.2839 17.4946 14.1569 13.6784 13.7791 12.9973C14.2138 12.8568 14.6744 12.7378 14.8659 12.3919C15.1868 11.8135 14.6175 10.8676 14.7676 10.2514C14.9228 9.61351 15.8336 9.06216 15.8336 8.41892C15.8336 7.78649 14.8918 7.05135 14.7417 6.41892C14.5916 5.8027 15.1609 4.85135 14.84 4.27838C14.5192 3.7 13.4479 3.74865 13.008 3.30541C12.5526 2.85135 12.5578 1.73784 12.0093 1.42973C11.4607 1.12162 10.5706 1.74324 9.95992 1.5973C9.35443 1.44595 8.81622 0.5 8.18486 0.5C7.54833 0.5 6.53401 1.57568 6.37358 1.61351C5.76292 1.75946 4.8728 1.14324 4.32424 1.45135C3.78086 1.75946 3.78086 2.87297 3.33063 3.32703C2.89075 3.77027 1.8195 3.72703 1.50382 4.3C1.18297 4.87838 1.75223 5.82432 1.60215 6.44595C1.45207 7.06757 0.510205 7.69459 0.510205 8.41351C0.510205 9.06216 1.42102 9.60811 1.57627 10.2459C1.72635 10.8622 1.15709 11.8135 1.47795 12.3865C1.6539 12.7 2.04721 12.8297 2.44569 12.9541C2.49226 12.9703 2.58024 13.0243 2.51814 13.1108C2.24903 13.5973 0.0651469 17.5324 0.0651469 17.5324C-0.110806 17.8459 0.0340964 18.1108 0.375652 18.127L2.06791 18.2027C2.41464 18.2189 2.84934 18.4784 3.03047 18.7865L3.93094 20.2838C4.11724 20.5919 4.40705 20.5811 4.583 20.273C4.583 20.273 7.10844 15.7216 7.10844 15.7162C7.16019 15.6568 7.21195 15.6676 7.23265 15.6892C7.50693 15.9324 7.89506 16.1811 8.21591 16.1811C8.53159 16.1811 8.8214 15.9486 9.1112 15.6946C9.13708 15.673 9.194 15.6297 9.2354 15.7216L11.7608 20.2514C11.9368 20.5649 12.2266 20.5703 12.4129 20.2622L13.3134 18.7649C13.4997 18.4568 13.9292 18.1973 14.2759 18.1811L15.9682 18.1054C16.3201 18.0784 16.4598 17.8081 16.2839 17.4946ZM10.9846 13.3973C9.11638 14.5324 6.87039 14.4135 5.15743 13.2838C2.64752 11.6027 1.8195 8.12703 3.33063 5.4027C4.85728 2.64595 8.21591 1.67838 10.8759 3.19189C10.8914 3.1973 10.9018 3.20811 10.9173 3.21351C10.938 3.22432 10.9587 3.23514 10.9742 3.24595C11.7971 3.73784 12.5061 4.45676 13.0184 5.37027C14.5709 8.17568 13.6601 11.7703 10.9846 13.3973Z" fill="white"/>
<path d="M10.5572 4.07305C10.552 4.06765 10.5417 4.06224 10.5313 4.05684C9.10815 3.19738 7.29687 3.13251 5.78057 4.05684C3.52941 5.4244 2.76349 8.45143 4.07279 10.8082C4.47127 11.5271 5.01983 12.1001 5.65119 12.5109C5.70294 12.5487 5.75987 12.5812 5.8168 12.6136C8.07313 13.9758 10.9712 13.1704 12.2753 10.819C13.5846 8.46224 12.8135 5.43521 10.5572 4.07305ZM11.1213 7.9217L10.3295 8.72711C10.0862 8.97575 9.93099 9.46765 9.98792 9.819L10.1742 10.9541C10.2311 11.3055 10.0293 11.4568 9.72916 11.2893L8.75107 10.7541C8.45092 10.5866 7.95411 10.5866 7.65395 10.7541L6.67586 11.2893C6.37571 11.4568 6.17388 11.3055 6.2308 10.9541L6.41711 9.819C6.47403 9.46765 6.32395 8.97575 6.07555 8.72711L5.28376 7.9217C5.04053 7.67305 5.11816 7.4244 5.45454 7.37575L6.54648 7.20819C6.88286 7.15954 7.28652 6.85143 7.4366 6.53251L7.92306 5.50008C8.07313 5.18116 8.32154 5.18116 8.47162 5.50008L8.95808 6.53251C9.10815 6.85143 9.51181 7.15413 9.84819 7.20819L10.9401 7.37575C11.2869 7.42981 11.3645 7.67305 11.1213 7.9217Z" fill="white"/>
</g>
<defs>
<clipPath id="clip0">
<rect width="16.3636" height="20" fill="white" transform="translate(0 0.5)"/>
</clipPath>
</defs>
</svg>
