<svg width="377" height="144" viewBox="0 0 377 144" fill="none" xmlns="http://www.w3.org/2000/svg">
<circle cx="40.0669" cy="59.8582" r="39.2205" stroke="#30363D" stroke-width="1.69283"/>
<mask id="mask0" mask-type="alpha" maskUnits="userSpaceOnUse" x="-1" y="19" width="82" height="82">
<path d="M40.0669 19.7913H80.1339V99.9251H0V59.8582H40.0669V19.7913Z" fill="#C4C4C4" stroke="url(#paint0_linear)" stroke-width="0.423207"/>
</mask>
<g mask="url(#mask0)">
<circle cx="40.0669" cy="59.8582" r="38.3741" stroke="url(#paint1_linear)" stroke-width="3.38566"/>
</g>
<path d="M30.0807 57.8115H24.6129V55.7463H33.6526L27.6938 67.7654H25.1207L30.0807 57.8115ZM38.2231 60.2154C38.7873 60.2154 39.3121 60.3113 39.7974 60.5031C40.2827 60.6837 40.7002 60.9433 41.0501 61.2818C41.3999 61.6204 41.6708 62.0267 41.8626 62.5007C42.0658 62.9747 42.1673 63.4994 42.1673 64.075C42.1673 64.6844 42.0545 65.2374 41.8288 65.734C41.6144 66.2305 41.3096 66.6537 40.9147 67.0036C40.5197 67.3647 40.0513 67.6412 39.5096 67.8331C38.9679 68.0362 38.3811 68.1378 37.7491 68.1378C36.8688 68.1378 36.0788 67.9516 35.3791 67.5792C34.6907 67.2067 34.1659 66.6989 33.8048 66.0556L35.1083 64.7014C35.4242 65.1415 35.8192 65.4913 36.2932 65.7509C36.7672 66.0105 37.2581 66.1403 37.766 66.1403C38.3754 66.1403 38.872 65.9597 39.2557 65.5986C39.6507 65.2261 39.8482 64.7352 39.8482 64.1258C39.8482 63.5389 39.662 63.065 39.2895 62.7038C38.9284 62.3427 38.4657 62.1621 37.9014 62.1621C37.529 62.1621 37.1791 62.2468 36.8519 62.416C36.5359 62.5853 36.2819 62.8167 36.0901 63.1101H34.1095C34.1095 63.0762 34.1321 62.9521 34.1772 62.7377C34.2223 62.512 34.2788 62.2298 34.3465 61.8913C34.4142 61.5414 34.4876 61.1577 34.5665 60.7401C34.6455 60.3113 34.7302 59.8768 34.8205 59.4367C35.0236 58.3984 35.2493 57.236 35.4976 55.9494H41.4225V58.0147H37.1396L36.6487 60.7063C36.7842 60.5596 36.9817 60.4411 37.2412 60.3508C37.5121 60.2605 37.8394 60.2154 38.2231 60.2154ZM46.0729 58.5564C45.6779 58.5564 45.3111 58.4887 44.9725 58.3532C44.634 58.2178 44.3406 58.0373 44.0923 57.8115C43.844 57.5745 43.6465 57.3037 43.4998 56.999C43.3531 56.683 43.2797 56.3444 43.2797 55.9833C43.2797 55.6334 43.3531 55.3005 43.4998 54.9845C43.6465 54.6685 43.844 54.3977 44.0923 54.172C44.3406 53.9462 44.634 53.7657 44.9725 53.6303C45.3111 53.4948 45.6779 53.4271 46.0729 53.4271C46.4566 53.4271 46.8177 53.4948 47.1563 53.6303C47.5061 53.7657 47.8052 53.9462 48.0535 54.172C48.3018 54.3977 48.4993 54.6685 48.646 54.9845C48.7927 55.3005 48.8661 55.6334 48.8661 55.9833C48.8661 56.3444 48.7927 56.683 48.646 56.999C48.4993 57.3037 48.3018 57.5745 48.0535 57.8115C47.8052 58.0373 47.5061 58.2178 47.1563 58.3532C46.8177 58.4887 46.4566 58.5564 46.0729 58.5564ZM46.0729 57.4222C46.2422 57.4222 46.3945 57.3827 46.5299 57.3037C46.6767 57.2247 46.8064 57.1231 46.9193 56.999C47.0322 56.8636 47.1168 56.7112 47.1732 56.5419C47.2409 56.3614 47.2748 56.1751 47.2748 55.9833C47.2748 55.5883 47.1563 55.2554 46.9193 54.9845C46.6823 54.7024 46.4002 54.5613 46.0729 54.5613C45.9036 54.5613 45.7456 54.6008 45.5989 54.6798C45.4635 54.7588 45.3393 54.866 45.2265 55.0014C45.1136 55.1256 45.0233 55.2723 44.9556 55.4416C44.8992 55.6109 44.871 55.7914 44.871 55.9833C44.871 56.3783 44.9895 56.7168 45.2265 56.999C45.4635 57.2811 45.7456 57.4222 46.0729 57.4222ZM52.6072 65.7848C52.2122 65.7848 51.8454 65.717 51.5069 65.5816C51.1683 65.4462 50.8749 65.2656 50.6266 65.0399C50.3783 64.8142 50.1808 64.549 50.0341 64.2443C49.8874 63.9283 49.814 63.5897 49.814 63.2286C49.814 62.8675 49.8874 62.5345 50.0341 62.2298C50.1808 61.9138 50.3783 61.643 50.6266 61.4173C50.8749 61.1803 51.1683 60.9941 51.5069 60.8586C51.8454 60.7232 52.2122 60.6555 52.6072 60.6555C53.0022 60.6555 53.369 60.7232 53.7075 60.8586C54.0461 60.9941 54.3395 61.1803 54.5878 61.4173C54.8474 61.643 55.0449 61.9138 55.1803 62.2298C55.327 62.5345 55.4004 62.8675 55.4004 63.2286C55.4004 63.5897 55.327 63.9283 55.1803 64.2443C55.0449 64.549 54.8474 64.8142 54.5878 65.0399C54.3395 65.2656 54.0461 65.4462 53.7075 65.5816C53.369 65.717 53.0022 65.7848 52.6072 65.7848ZM52.6072 64.6506C52.7765 64.6506 52.9288 64.6111 53.0643 64.5321C53.211 64.4531 53.3408 64.3515 53.4536 64.2274C53.5665 64.0919 53.6511 63.9396 53.7075 63.7703C53.7753 63.601 53.8091 63.4204 53.8091 63.2286C53.8091 63.0255 53.7753 62.8392 53.7075 62.67C53.6398 62.4894 53.5495 62.337 53.4367 62.2129C53.3351 62.0775 53.211 61.9759 53.0643 61.9082C52.9176 61.8292 52.7652 61.7897 52.6072 61.7897C52.4379 61.7897 52.2799 61.8292 52.1332 61.9082C51.9978 61.9872 51.8736 62.0944 51.7608 62.2298C51.6479 62.354 51.5576 62.5063 51.4899 62.6869C51.4335 62.8562 51.4053 63.0367 51.4053 63.2286C51.4053 63.6236 51.5238 63.9621 51.7608 64.2443C51.9978 64.5151 52.2799 64.6506 52.6072 64.6506ZM44.2277 64.8198L49.0015 59.2504L53.4028 53.461L54.4355 54.3751L49.814 59.8429L45.2603 65.734L44.2277 64.8198Z" fill="#444444"/>
<path d="M9.23928 132.89C9.15928 132.797 9.05262 132.707 8.91928 132.62C8.78595 132.533 8.63595 132.457 8.46928 132.39C8.30262 132.317 8.11928 132.26 7.91928 132.22C7.72595 132.173 7.52262 132.15 7.30928 132.15C6.75595 132.15 6.34928 132.253 6.08928 132.46C5.83595 132.667 5.70928 132.95 5.70928 133.31C5.70928 133.503 5.74595 133.663 5.81928 133.79C5.89262 133.917 6.00595 134.027 6.15928 134.12C6.31928 134.207 6.51595 134.283 6.74928 134.35C6.98262 134.417 7.25928 134.487 7.57928 134.56C7.94595 134.64 8.27595 134.733 8.56928 134.84C8.86928 134.94 9.12262 135.067 9.32928 135.22C9.54262 135.373 9.70262 135.56 9.80928 135.78C9.92262 136 9.97928 136.27 9.97928 136.59C9.97928 136.93 9.91262 137.227 9.77928 137.48C9.64595 137.727 9.46262 137.933 9.22928 138.1C9.00262 138.26 8.73262 138.38 8.41928 138.46C8.10595 138.533 7.76595 138.57 7.39928 138.57C6.85262 138.57 6.33262 138.487 5.83928 138.32C5.35262 138.147 4.90928 137.897 4.50928 137.57L4.93928 136.81C5.04595 136.923 5.18262 137.037 5.34928 137.15C5.52262 137.263 5.71595 137.367 5.92928 137.46C6.14928 137.547 6.38262 137.62 6.62928 137.68C6.88262 137.733 7.14595 137.76 7.41928 137.76C7.92595 137.76 8.31928 137.67 8.59928 137.49C8.87928 137.31 9.01928 137.04 9.01928 136.68C9.01928 136.48 8.97262 136.313 8.87928 136.18C8.79262 136.04 8.66262 135.92 8.48928 135.82C8.31595 135.72 8.09928 135.633 7.83928 135.56C7.58595 135.48 7.29595 135.4 6.96928 135.32C6.60928 135.233 6.29262 135.14 6.01928 135.04C5.74595 134.94 5.51595 134.82 5.32928 134.68C5.14928 134.54 5.01262 134.37 4.91928 134.17C4.82595 133.97 4.77928 133.73 4.77928 133.45C4.77928 133.11 4.84262 132.81 4.96928 132.55C5.09595 132.29 5.27262 132.07 5.49928 131.89C5.72595 131.71 5.99595 131.577 6.30928 131.49C6.62262 131.397 6.96262 131.35 7.32928 131.35C7.80928 131.35 8.24262 131.423 8.62928 131.57C9.01595 131.717 9.35928 131.913 9.65928 132.16L9.23928 132.89ZM13.133 138.6C12.5864 138.6 12.173 138.417 11.893 138.05C11.613 137.683 11.473 137.137 11.473 136.41V133.28H12.353V136.24C12.353 137.307 12.723 137.84 13.463 137.84C13.823 137.84 14.1597 137.727 14.473 137.5C14.793 137.267 15.0297 136.95 15.183 136.55V133.28H16.063V137.42C16.063 137.627 16.1564 137.733 16.343 137.74V138.5C16.243 138.513 16.163 138.52 16.103 138.52C16.0497 138.527 15.9964 138.53 15.943 138.53C15.7697 138.53 15.623 138.48 15.503 138.38C15.3897 138.273 15.3297 138.143 15.323 137.99L15.303 137.38C15.0697 137.773 14.763 138.077 14.383 138.29C14.003 138.497 13.5864 138.6 13.133 138.6ZM17.6789 135.88C17.6789 135.513 17.7422 135.167 17.8689 134.84C17.9956 134.513 18.1756 134.23 18.4089 133.99C18.6422 133.743 18.9189 133.55 19.2389 133.41C19.5656 133.263 19.9289 133.19 20.3289 133.19C20.8489 133.19 21.2956 133.307 21.6689 133.54C22.0489 133.767 22.3356 134.073 22.5289 134.46L21.6689 134.73C21.5356 134.483 21.3489 134.293 21.1089 134.16C20.8689 134.02 20.6022 133.95 20.3089 133.95C20.0689 133.95 19.8422 134 19.6289 134.1C19.4156 134.193 19.2322 134.327 19.0789 134.5C18.9256 134.673 18.8022 134.877 18.7089 135.11C18.6222 135.343 18.5789 135.6 18.5789 135.88C18.5789 136.153 18.6256 136.41 18.7189 136.65C18.8122 136.89 18.9356 137.1 19.0889 137.28C19.2489 137.453 19.4322 137.59 19.6389 137.69C19.8522 137.79 20.0789 137.84 20.3189 137.84C20.4722 137.84 20.6222 137.82 20.7689 137.78C20.9222 137.733 21.0589 137.673 21.1789 137.6C21.3056 137.527 21.4156 137.443 21.5089 137.35C21.6022 137.25 21.6689 137.143 21.7089 137.03L22.5689 137.29C22.4889 137.483 22.3756 137.66 22.2289 137.82C22.0889 137.98 21.9222 138.117 21.7289 138.23C21.5356 138.343 21.3189 138.433 21.0789 138.5C20.8456 138.567 20.5989 138.6 20.3389 138.6C19.9456 138.6 19.5856 138.527 19.2589 138.38C18.9322 138.233 18.6522 138.037 18.4189 137.79C18.1856 137.543 18.0022 137.257 17.8689 136.93C17.7422 136.597 17.6789 136.247 17.6789 135.88ZM23.6672 135.88C23.6672 135.513 23.7305 135.167 23.8572 134.84C23.9838 134.513 24.1638 134.23 24.3972 133.99C24.6305 133.743 24.9072 133.55 25.2272 133.41C25.5538 133.263 25.9172 133.19 26.3172 133.19C26.8372 133.19 27.2838 133.307 27.6572 133.54C28.0372 133.767 28.3238 134.073 28.5172 134.46L27.6572 134.73C27.5238 134.483 27.3372 134.293 27.0972 134.16C26.8572 134.02 26.5905 133.95 26.2972 133.95C26.0572 133.95 25.8305 134 25.6172 134.1C25.4038 134.193 25.2205 134.327 25.0672 134.5C24.9138 134.673 24.7905 134.877 24.6972 135.11C24.6105 135.343 24.5672 135.6 24.5672 135.88C24.5672 136.153 24.6138 136.41 24.7072 136.65C24.8005 136.89 24.9238 137.1 25.0772 137.28C25.2372 137.453 25.4205 137.59 25.6272 137.69C25.8405 137.79 26.0672 137.84 26.3072 137.84C26.4605 137.84 26.6105 137.82 26.7572 137.78C26.9105 137.733 27.0472 137.673 27.1672 137.6C27.2938 137.527 27.4038 137.443 27.4972 137.35C27.5905 137.25 27.6572 137.143 27.6972 137.03L28.5572 137.29C28.4772 137.483 28.3638 137.66 28.2172 137.82C28.0772 137.98 27.9105 138.117 27.7172 138.23C27.5238 138.343 27.3072 138.433 27.0672 138.5C26.8338 138.567 26.5872 138.6 26.3272 138.6C25.9338 138.6 25.5738 138.527 25.2472 138.38C24.9205 138.233 24.6405 138.037 24.4072 137.79C24.1738 137.543 23.9905 137.257 23.8572 136.93C23.7305 136.597 23.6672 136.247 23.6672 135.88ZM32.3155 138.6C31.9221 138.6 31.5621 138.53 31.2355 138.39C30.9088 138.243 30.6288 138.047 30.3955 137.8C30.1621 137.553 29.9788 137.267 29.8455 136.94C29.7188 136.607 29.6555 136.257 29.6555 135.89C29.6555 135.523 29.7188 135.177 29.8455 134.85C29.9788 134.523 30.1621 134.237 30.3955 133.99C30.6355 133.743 30.9188 133.55 31.2455 133.41C31.5721 133.263 31.9321 133.19 32.3255 133.19C32.7188 133.19 33.0755 133.263 33.3955 133.41C33.7221 133.557 33.9988 133.753 34.2255 134C34.4521 134.24 34.6255 134.523 34.7455 134.85C34.8721 135.17 34.9355 135.503 34.9355 135.85C34.9355 135.923 34.9321 135.99 34.9255 136.05C34.9255 136.11 34.9221 136.157 34.9155 136.19H30.5855C30.6055 136.45 30.6655 136.687 30.7655 136.9C30.8655 137.113 30.9955 137.297 31.1555 137.45C31.3155 137.603 31.4955 137.723 31.6955 137.81C31.9021 137.897 32.1188 137.94 32.3455 137.94C32.5055 137.94 32.6621 137.92 32.8155 137.88C32.9688 137.833 33.1121 137.773 33.2455 137.7C33.3788 137.627 33.4955 137.537 33.5955 137.43C33.7021 137.323 33.7821 137.203 33.8355 137.07L34.5955 137.28C34.5088 137.473 34.3888 137.65 34.2355 137.81C34.0888 137.97 33.9155 138.11 33.7155 138.23C33.5221 138.343 33.3055 138.433 33.0655 138.5C32.8255 138.567 32.5755 138.6 32.3155 138.6ZM34.1055 135.54C34.0855 135.293 34.0221 135.067 33.9155 134.86C33.8155 134.647 33.6855 134.467 33.5255 134.32C33.3721 134.173 33.1921 134.06 32.9855 133.98C32.7788 133.893 32.5588 133.85 32.3255 133.85C32.0921 133.85 31.8721 133.893 31.6655 133.98C31.4588 134.06 31.2755 134.177 31.1155 134.33C30.9621 134.477 30.8355 134.653 30.7355 134.86C30.6421 135.067 30.5855 135.293 30.5655 135.54H34.1055ZM38.2437 138.6C37.8237 138.6 37.4103 138.537 37.0037 138.41C36.597 138.277 36.247 138.087 35.9537 137.84L36.3337 137.25C36.6403 137.483 36.947 137.66 37.2537 137.78C37.5603 137.893 37.8837 137.95 38.2237 137.95C38.6037 137.95 38.9037 137.877 39.1237 137.73C39.3503 137.577 39.4637 137.363 39.4637 137.09C39.4637 136.963 39.4337 136.857 39.3737 136.77C39.3137 136.677 39.2237 136.597 39.1037 136.53C38.9837 136.463 38.8303 136.403 38.6437 136.35C38.457 136.297 38.2403 136.24 37.9937 136.18C37.6803 136.1 37.4103 136.023 37.1837 135.95C36.957 135.877 36.7703 135.79 36.6237 135.69C36.477 135.59 36.3703 135.47 36.3037 135.33C36.237 135.19 36.2037 135.017 36.2037 134.81C36.2037 134.55 36.2537 134.32 36.3537 134.12C36.4603 133.913 36.6037 133.743 36.7837 133.61C36.9637 133.47 37.1737 133.367 37.4137 133.3C37.6603 133.227 37.9237 133.19 38.2037 133.19C38.597 133.19 38.9637 133.253 39.3037 133.38C39.6437 133.507 39.9303 133.673 40.1637 133.88L39.7637 134.41C39.5437 134.217 39.297 134.073 39.0237 133.98C38.7503 133.88 38.4703 133.83 38.1837 133.83C37.8637 133.83 37.5903 133.9 37.3637 134.04C37.1437 134.173 37.0337 134.39 37.0337 134.69C37.0337 134.81 37.0537 134.91 37.0937 134.99C37.1403 135.07 37.2137 135.14 37.3137 135.2C37.4137 135.26 37.5403 135.313 37.6937 135.36C37.8537 135.407 38.0437 135.457 38.2637 135.51C38.6103 135.59 38.9103 135.673 39.1637 135.76C39.4237 135.84 39.637 135.937 39.8037 136.05C39.977 136.163 40.1037 136.297 40.1837 136.45C40.2703 136.603 40.3137 136.79 40.3137 137.01C40.3137 137.497 40.127 137.883 39.7537 138.17C39.3803 138.457 38.877 138.6 38.2437 138.6ZM43.6851 138.6C43.2651 138.6 42.8517 138.537 42.4451 138.41C42.0384 138.277 41.6884 138.087 41.3951 137.84L41.7751 137.25C42.0817 137.483 42.3884 137.66 42.6951 137.78C43.0017 137.893 43.3251 137.95 43.6651 137.95C44.0451 137.95 44.3451 137.877 44.5651 137.73C44.7917 137.577 44.9051 137.363 44.9051 137.09C44.9051 136.963 44.8751 136.857 44.8151 136.77C44.7551 136.677 44.6651 136.597 44.5451 136.53C44.4251 136.463 44.2717 136.403 44.0851 136.35C43.8984 136.297 43.6817 136.24 43.4351 136.18C43.1217 136.1 42.8517 136.023 42.6251 135.95C42.3984 135.877 42.2117 135.79 42.0651 135.69C41.9184 135.59 41.8117 135.47 41.7451 135.33C41.6784 135.19 41.6451 135.017 41.6451 134.81C41.6451 134.55 41.6951 134.32 41.7951 134.12C41.9017 133.913 42.0451 133.743 42.2251 133.61C42.4051 133.47 42.6151 133.367 42.8551 133.3C43.1017 133.227 43.3651 133.19 43.6451 133.19C44.0384 133.19 44.4051 133.253 44.7451 133.38C45.0851 133.507 45.3717 133.673 45.6051 133.88L45.2051 134.41C44.9851 134.217 44.7384 134.073 44.4651 133.98C44.1917 133.88 43.9117 133.83 43.6251 133.83C43.3051 133.83 43.0317 133.9 42.8051 134.04C42.5851 134.173 42.4751 134.39 42.4751 134.69C42.4751 134.81 42.4951 134.91 42.5351 134.99C42.5817 135.07 42.6551 135.14 42.7551 135.2C42.8551 135.26 42.9817 135.313 43.1351 135.36C43.2951 135.407 43.4851 135.457 43.7051 135.51C44.0517 135.59 44.3517 135.673 44.6051 135.76C44.8651 135.84 45.0784 135.937 45.2451 136.05C45.4184 136.163 45.5451 136.297 45.6251 136.45C45.7117 136.603 45.7551 136.79 45.7551 137.01C45.7551 137.497 45.5684 137.883 45.1951 138.17C44.8217 138.457 44.3184 138.6 43.6851 138.6ZM50.4658 138.5V131.4H53.5058C53.8191 131.4 54.1058 131.467 54.3658 131.6C54.6324 131.727 54.8591 131.9 55.0458 132.12C55.2391 132.333 55.3891 132.577 55.4958 132.85C55.6024 133.117 55.6558 133.39 55.6558 133.67C55.6558 133.917 55.6191 134.157 55.5458 134.39C55.4791 134.617 55.3791 134.823 55.2458 135.01C55.1191 135.197 54.9624 135.357 54.7758 135.49C54.5958 135.623 54.3924 135.72 54.1658 135.78L55.8858 138.5H54.8658L53.2458 135.95H51.3658V138.5H50.4658ZM51.3658 135.15H53.5158C53.7024 135.15 53.8691 135.11 54.0158 135.03C54.1691 134.95 54.2991 134.843 54.4058 134.71C54.5124 134.57 54.5958 134.41 54.6558 134.23C54.7158 134.05 54.7458 133.863 54.7458 133.67C54.7458 133.47 54.7091 133.283 54.6358 133.11C54.5691 132.93 54.4758 132.773 54.3558 132.64C54.2424 132.5 54.1058 132.393 53.9458 132.32C53.7924 132.24 53.6291 132.2 53.4558 132.2H51.3658V135.15ZM58.6599 138.6C58.4132 138.6 58.1832 138.56 57.9699 138.48C57.7566 138.393 57.5699 138.277 57.4099 138.13C57.2566 137.983 57.1332 137.813 57.0399 137.62C56.9532 137.42 56.9099 137.203 56.9099 136.97C56.9099 136.73 56.9632 136.513 57.0699 136.32C57.1766 136.12 57.3266 135.95 57.5199 135.81C57.7199 135.67 57.9532 135.56 58.2199 135.48C58.4932 135.4 58.7899 135.36 59.1099 135.36C59.3632 135.36 59.6199 135.383 59.8799 135.43C60.1399 135.477 60.3699 135.54 60.5699 135.62V135.2C60.5699 134.773 60.4499 134.44 60.2099 134.2C59.9699 133.953 59.6299 133.83 59.1899 133.83C58.6632 133.83 58.1099 134.033 57.5299 134.44L57.2399 133.87C57.9132 133.417 58.5899 133.19 59.2699 133.19C59.9566 133.19 60.4899 133.373 60.8699 133.74C61.2566 134.107 61.4499 134.623 61.4499 135.29V137.42C61.4499 137.627 61.5432 137.733 61.7299 137.74V138.5C61.6366 138.513 61.5599 138.523 61.4999 138.53C61.4399 138.537 61.3766 138.54 61.3099 138.54C61.1366 138.54 60.9966 138.49 60.8899 138.39C60.7899 138.283 60.7299 138.157 60.7099 138.01L60.6899 137.64C60.4566 137.953 60.1599 138.193 59.7999 138.36C59.4466 138.52 59.0666 138.6 58.6599 138.6ZM58.8899 137.94C59.2032 137.94 59.4932 137.883 59.7599 137.77C60.0332 137.65 60.2399 137.493 60.3799 137.3C60.5066 137.173 60.5699 137.043 60.5699 136.91V136.14C60.1432 135.973 59.6999 135.89 59.2399 135.89C58.7999 135.89 58.4399 135.983 58.1599 136.17C57.8866 136.357 57.7499 136.6 57.7499 136.9C57.7499 137.047 57.7766 137.183 57.8299 137.31C57.8899 137.437 57.9699 137.547 58.0699 137.64C58.1766 137.733 58.2999 137.807 58.4399 137.86C58.5799 137.913 58.7299 137.94 58.8899 137.94ZM66.018 138.24C65.9646 138.267 65.8946 138.3 65.808 138.34C65.7213 138.373 65.6213 138.41 65.508 138.45C65.4013 138.483 65.2813 138.51 65.148 138.53C65.0213 138.557 64.888 138.57 64.748 138.57C64.428 138.57 64.1513 138.483 63.918 138.31C63.6846 138.13 63.568 137.853 63.568 137.48V133.97H62.858V133.28H63.568V131.54H64.448V133.28H65.618V133.97H64.448V137.21C64.4613 137.403 64.5246 137.543 64.638 137.63C64.7513 137.717 64.8846 137.76 65.038 137.76C65.2113 137.76 65.368 137.733 65.508 137.68C65.6546 137.62 65.7546 137.573 65.808 137.54L66.018 138.24ZM67.3336 138.5V133.28H68.2136V138.5H67.3336ZM67.3336 132.3V131.2H68.2136V132.3H67.3336ZM72.4183 138.6C72.0249 138.6 71.6649 138.527 71.3383 138.38C71.0183 138.233 70.7416 138.037 70.5083 137.79C70.2816 137.543 70.1049 137.257 69.9783 136.93C69.8516 136.603 69.7883 136.26 69.7883 135.9C69.7883 135.533 69.8516 135.187 69.9783 134.86C70.1116 134.533 70.2916 134.247 70.5183 134C70.7516 133.753 71.0283 133.557 71.3483 133.41C71.6749 133.263 72.0316 133.19 72.4183 133.19C72.8049 133.19 73.1616 133.263 73.4883 133.41C73.8149 133.557 74.0916 133.753 74.3183 134C74.5516 134.247 74.7316 134.533 74.8583 134.86C74.9916 135.187 75.0583 135.533 75.0583 135.9C75.0583 136.26 74.9949 136.603 74.8683 136.93C74.7416 137.257 74.5616 137.543 74.3283 137.79C74.0949 138.037 73.8149 138.233 73.4883 138.38C73.1683 138.527 72.8116 138.6 72.4183 138.6ZM70.6883 135.91C70.6883 136.183 70.7316 136.437 70.8183 136.67C70.9116 136.903 71.0349 137.107 71.1883 137.28C71.3483 137.453 71.5316 137.59 71.7383 137.69C71.9516 137.79 72.1783 137.84 72.4183 137.84C72.6583 137.84 72.8816 137.79 73.0883 137.69C73.3016 137.59 73.4883 137.453 73.6483 137.28C73.8083 137.1 73.9316 136.893 74.0183 136.66C74.1116 136.42 74.1583 136.163 74.1583 135.89C74.1583 135.623 74.1116 135.373 74.0183 135.14C73.9316 134.9 73.8083 134.693 73.6483 134.52C73.4883 134.34 73.3016 134.2 73.0883 134.1C72.8816 134 72.6583 133.95 72.4183 133.95C72.1783 133.95 71.9516 134.003 71.7383 134.11C71.5316 134.21 71.3483 134.35 71.1883 134.53C71.0349 134.703 70.9116 134.91 70.8183 135.15C70.7316 135.383 70.6883 135.637 70.6883 135.91Z" fill="#444444"/>
<g filter="url(#filter0_d)">
<path d="M329.544 42.418V43.218H324.724V36.118H329.454V36.918H325.624V39.218H328.954V39.968H325.624V42.418H329.544ZM332.479 43.318C332.232 43.318 332.002 43.278 331.789 43.198C331.576 43.1114 331.389 42.9947 331.229 42.848C331.076 42.7014 330.952 42.5314 330.859 42.338C330.772 42.138 330.729 41.9214 330.729 41.688C330.729 41.448 330.782 41.2314 330.889 41.038C330.996 40.838 331.146 40.668 331.339 40.528C331.539 40.388 331.772 40.278 332.039 40.198C332.312 40.118 332.609 40.078 332.929 40.078C333.182 40.078 333.439 40.1014 333.699 40.148C333.959 40.1947 334.189 40.258 334.389 40.338V39.918C334.389 39.4914 334.269 39.158 334.029 38.918C333.789 38.6714 333.449 38.548 333.009 38.548C332.482 38.548 331.929 38.7514 331.349 39.158L331.059 38.588C331.732 38.1347 332.409 37.908 333.089 37.908C333.776 37.908 334.309 38.0914 334.689 38.458C335.076 38.8247 335.269 39.3414 335.269 40.008V42.138C335.269 42.3447 335.362 42.4514 335.549 42.458V43.218C335.456 43.2314 335.379 43.2414 335.319 43.248C335.259 43.2547 335.196 43.258 335.129 43.258C334.956 43.258 334.816 43.208 334.709 43.108C334.609 43.0014 334.549 42.8747 334.529 42.728L334.509 42.358C334.276 42.6714 333.979 42.9114 333.619 43.078C333.266 43.238 332.886 43.318 332.479 43.318ZM332.709 42.658C333.022 42.658 333.312 42.6014 333.579 42.488C333.852 42.368 334.059 42.2114 334.199 42.018C334.326 41.8914 334.389 41.7614 334.389 41.628V40.858C333.962 40.6914 333.519 40.608 333.059 40.608C332.619 40.608 332.259 40.7014 331.979 40.888C331.706 41.0747 331.569 41.318 331.569 41.618C331.569 41.7647 331.596 41.9014 331.649 42.028C331.709 42.1547 331.789 42.2647 331.889 42.358C331.996 42.4514 332.119 42.5247 332.259 42.578C332.399 42.6314 332.549 42.658 332.709 42.658ZM339.006 43.318C338.586 43.318 338.173 43.2547 337.766 43.128C337.36 42.9947 337.01 42.8047 336.716 42.558L337.096 41.968C337.403 42.2014 337.71 42.378 338.016 42.498C338.323 42.6114 338.646 42.668 338.986 42.668C339.366 42.668 339.666 42.5947 339.886 42.448C340.113 42.2947 340.226 42.0814 340.226 41.808C340.226 41.6814 340.196 41.5747 340.136 41.488C340.076 41.3947 339.986 41.3147 339.866 41.248C339.746 41.1814 339.593 41.1214 339.406 41.068C339.22 41.0147 339.003 40.958 338.756 40.898C338.443 40.818 338.173 40.7414 337.946 40.668C337.72 40.5947 337.533 40.508 337.386 40.408C337.24 40.308 337.133 40.188 337.066 40.048C337 39.908 336.966 39.7347 336.966 39.528C336.966 39.268 337.016 39.038 337.116 38.838C337.223 38.6314 337.366 38.4614 337.546 38.328C337.726 38.188 337.936 38.0847 338.176 38.018C338.423 37.9447 338.686 37.908 338.966 37.908C339.36 37.908 339.726 37.9714 340.066 38.098C340.406 38.2247 340.693 38.3914 340.926 38.598L340.526 39.128C340.306 38.9347 340.06 38.7914 339.786 38.698C339.513 38.598 339.233 38.548 338.946 38.548C338.626 38.548 338.353 38.618 338.126 38.758C337.906 38.8914 337.796 39.108 337.796 39.408C337.796 39.528 337.816 39.628 337.856 39.708C337.903 39.788 337.976 39.858 338.076 39.918C338.176 39.978 338.303 40.0314 338.456 40.078C338.616 40.1247 338.806 40.1747 339.026 40.228C339.373 40.308 339.673 40.3914 339.926 40.478C340.186 40.558 340.4 40.6547 340.566 40.768C340.74 40.8814 340.866 41.0147 340.946 41.168C341.033 41.3214 341.076 41.508 341.076 41.728C341.076 42.2147 340.89 42.6014 340.516 42.888C340.143 43.1747 339.64 43.318 339.006 43.318ZM345.318 42.958C345.264 42.9847 345.194 43.018 345.108 43.058C345.021 43.0914 344.921 43.128 344.808 43.168C344.701 43.2014 344.581 43.228 344.448 43.248C344.321 43.2747 344.188 43.288 344.048 43.288C343.728 43.288 343.451 43.2014 343.218 43.028C342.984 42.848 342.868 42.5714 342.868 42.198V38.688H342.158V37.998H342.868V36.258H343.748V37.998H344.918V38.688H343.748V41.928C343.761 42.1214 343.824 42.2614 343.938 42.348C344.051 42.4347 344.184 42.478 344.338 42.478C344.511 42.478 344.668 42.4514 344.808 42.398C344.954 42.338 345.054 42.2914 345.108 42.258L345.318 42.958ZM351.65 36.118H352.41L355.31 43.218H354.35L353.51 41.138H350.53L349.7 43.218H348.74L351.65 36.118ZM353.31 40.438L352.03 37.158L350.71 40.438H353.31ZM358.37 43.318C357.95 43.318 357.536 43.2547 357.13 43.128C356.723 42.9947 356.373 42.8047 356.08 42.558L356.46 41.968C356.766 42.2014 357.073 42.378 357.38 42.498C357.686 42.6114 358.01 42.668 358.35 42.668C358.73 42.668 359.03 42.5947 359.25 42.448C359.476 42.2947 359.59 42.0814 359.59 41.808C359.59 41.6814 359.56 41.5747 359.5 41.488C359.44 41.3947 359.35 41.3147 359.23 41.248C359.11 41.1814 358.956 41.1214 358.77 41.068C358.583 41.0147 358.366 40.958 358.12 40.898C357.806 40.818 357.536 40.7414 357.31 40.668C357.083 40.5947 356.896 40.508 356.75 40.408C356.603 40.308 356.496 40.188 356.43 40.048C356.363 39.908 356.33 39.7347 356.33 39.528C356.33 39.268 356.38 39.038 356.48 38.838C356.586 38.6314 356.73 38.4614 356.91 38.328C357.09 38.188 357.3 38.0847 357.54 38.018C357.786 37.9447 358.05 37.908 358.33 37.908C358.723 37.908 359.09 37.9714 359.43 38.098C359.77 38.2247 360.056 38.3914 360.29 38.598L359.89 39.128C359.67 38.9347 359.423 38.7914 359.15 38.698C358.876 38.598 358.596 38.548 358.31 38.548C357.99 38.548 357.716 38.618 357.49 38.758C357.27 38.8914 357.16 39.108 357.16 39.408C357.16 39.528 357.18 39.628 357.22 39.708C357.266 39.788 357.34 39.858 357.44 39.918C357.54 39.978 357.666 40.0314 357.82 40.078C357.98 40.1247 358.17 40.1747 358.39 40.228C358.736 40.308 359.036 40.3914 359.29 40.478C359.55 40.558 359.763 40.6547 359.93 40.768C360.103 40.8814 360.23 41.0147 360.31 41.168C360.396 41.3214 360.44 41.508 360.44 41.728C360.44 42.2147 360.253 42.6014 359.88 42.888C359.506 43.1747 359.003 43.318 358.37 43.318ZM361.981 43.218V37.998H362.861V43.218H361.981ZM361.981 37.018V35.918H362.861V37.018H361.981ZM366.126 43.318C365.879 43.318 365.649 43.278 365.436 43.198C365.222 43.1114 365.036 42.9947 364.876 42.848C364.722 42.7014 364.599 42.5314 364.506 42.338C364.419 42.138 364.376 41.9214 364.376 41.688C364.376 41.448 364.429 41.2314 364.536 41.038C364.642 40.838 364.792 40.668 364.986 40.528C365.186 40.388 365.419 40.278 365.686 40.198C365.959 40.118 366.256 40.078 366.576 40.078C366.829 40.078 367.086 40.1014 367.346 40.148C367.606 40.1947 367.836 40.258 368.036 40.338V39.918C368.036 39.4914 367.916 39.158 367.676 38.918C367.436 38.6714 367.096 38.548 366.656 38.548C366.129 38.548 365.576 38.7514 364.996 39.158L364.706 38.588C365.379 38.1347 366.056 37.908 366.736 37.908C367.422 37.908 367.956 38.0914 368.336 38.458C368.722 38.8247 368.916 39.3414 368.916 40.008V42.138C368.916 42.3447 369.009 42.4514 369.196 42.458V43.218C369.102 43.2314 369.026 43.2414 368.966 43.248C368.906 43.2547 368.842 43.258 368.776 43.258C368.602 43.258 368.462 43.208 368.356 43.108C368.256 43.0014 368.196 42.8747 368.176 42.728L368.156 42.358C367.922 42.6714 367.626 42.9114 367.266 43.078C366.912 43.238 366.532 43.318 366.126 43.318ZM366.356 42.658C366.669 42.658 366.959 42.6014 367.226 42.488C367.499 42.368 367.706 42.2114 367.846 42.018C367.972 41.8914 368.036 41.7614 368.036 41.628V40.858C367.609 40.6914 367.166 40.608 366.706 40.608C366.266 40.608 365.906 40.7014 365.626 40.888C365.352 41.0747 365.216 41.318 365.216 41.618C365.216 41.7647 365.242 41.9014 365.296 42.028C365.356 42.1547 365.436 42.2647 365.536 42.358C365.642 42.4514 365.766 42.5247 365.906 42.578C366.046 42.6314 366.196 42.658 366.356 42.658Z" fill="#444444"/>
</g>
<g filter="url(#filter1_d)">
<path d="M327.644 60.2654C328.058 60.2654 328.401 60.1854 328.674 60.0254C328.948 59.8654 329.164 59.6587 329.324 59.4054C329.491 59.1454 329.608 58.8521 329.674 58.5254C329.741 58.1921 329.774 57.8554 329.774 57.5154V53.9254H330.674V57.5154C330.674 57.9954 330.618 58.4521 330.504 58.8854C330.398 59.3121 330.224 59.6887 329.984 60.0154C329.744 60.3421 329.431 60.6021 329.044 60.7954C328.664 60.9821 328.201 61.0754 327.654 61.0754C327.088 61.0754 326.611 60.9754 326.224 60.7754C325.838 60.5754 325.524 60.3121 325.284 59.9854C325.051 59.6521 324.881 59.2721 324.774 58.8454C324.674 58.4121 324.624 57.9687 324.624 57.5154V53.9254H325.524V57.5154C325.524 57.8687 325.558 58.2121 325.624 58.5454C325.698 58.8721 325.814 59.1621 325.974 59.4154C326.141 59.6687 326.358 59.8754 326.624 60.0354C326.898 60.1887 327.238 60.2654 327.644 60.2654ZM332.773 61.0254V53.9354H333.673V57.8554L337.333 53.9254H338.303L335.453 57.0554L338.463 61.0254H337.483L334.903 57.5754L333.673 58.8554V61.0254H332.773Z" fill="#444444"/>
</g>
<g filter="url(#filter2_d)">
<path d="M326.884 72.846H327.644L330.544 79.946H329.584L328.744 77.866H325.764L324.934 79.946H323.974L326.884 72.846ZM328.544 77.166L327.264 73.886L325.944 77.166H328.544ZM333.355 80.046C332.808 80.046 332.395 79.8627 332.115 79.496C331.835 79.1294 331.695 78.5827 331.695 77.856V74.726H332.575V77.686C332.575 78.7527 332.945 79.286 333.685 79.286C334.045 79.286 334.381 79.1727 334.695 78.946C335.015 78.7127 335.251 78.396 335.405 77.996V74.726H336.285V78.866C336.285 79.0727 336.378 79.1794 336.565 79.186V79.946C336.465 79.9594 336.385 79.966 336.325 79.966C336.271 79.9727 336.218 79.976 336.165 79.976C335.991 79.976 335.845 79.926 335.725 79.826C335.611 79.7194 335.551 79.5894 335.545 79.436L335.525 78.826C335.291 79.2194 334.985 79.5227 334.605 79.736C334.225 79.9427 333.808 80.046 333.355 80.046ZM340.08 80.046C339.66 80.046 339.247 79.9827 338.84 79.856C338.434 79.7227 338.084 79.5327 337.79 79.286L338.17 78.696C338.477 78.9294 338.784 79.106 339.09 79.226C339.397 79.3394 339.72 79.396 340.06 79.396C340.44 79.396 340.74 79.3227 340.96 79.176C341.187 79.0227 341.3 78.8094 341.3 78.536C341.3 78.4094 341.27 78.3027 341.21 78.216C341.15 78.1227 341.06 78.0427 340.94 77.976C340.82 77.9094 340.667 77.8494 340.48 77.796C340.294 77.7427 340.077 77.686 339.83 77.626C339.517 77.546 339.247 77.4694 339.02 77.396C338.794 77.3227 338.607 77.236 338.46 77.136C338.314 77.036 338.207 76.916 338.14 76.776C338.074 76.636 338.04 76.4627 338.04 76.256C338.04 75.996 338.09 75.766 338.19 75.566C338.297 75.3594 338.44 75.1894 338.62 75.056C338.8 74.916 339.01 74.8127 339.25 74.746C339.497 74.6727 339.76 74.636 340.04 74.636C340.434 74.636 340.8 74.6994 341.14 74.826C341.48 74.9527 341.767 75.1194 342 75.326L341.6 75.856C341.38 75.6627 341.134 75.5194 340.86 75.426C340.587 75.326 340.307 75.276 340.02 75.276C339.7 75.276 339.427 75.346 339.2 75.486C338.98 75.6194 338.87 75.836 338.87 76.136C338.87 76.256 338.89 76.356 338.93 76.436C338.977 76.516 339.05 76.586 339.15 76.646C339.25 76.706 339.377 76.7594 339.53 76.806C339.69 76.8527 339.88 76.9027 340.1 76.956C340.447 77.036 340.747 77.1194 341 77.206C341.26 77.286 341.474 77.3827 341.64 77.496C341.814 77.6094 341.94 77.7427 342.02 77.896C342.107 78.0494 342.15 78.236 342.15 78.456C342.15 78.9427 341.964 79.3294 341.59 79.616C341.217 79.9027 340.714 80.046 340.08 80.046ZM346.392 79.686C346.339 79.7127 346.269 79.746 346.182 79.786C346.095 79.8194 345.995 79.856 345.882 79.896C345.775 79.9294 345.655 79.956 345.522 79.976C345.395 80.0027 345.262 80.016 345.122 80.016C344.802 80.016 344.525 79.9294 344.292 79.756C344.059 79.576 343.942 79.2994 343.942 78.926V75.416H343.232V74.726H343.942V72.986H344.822V74.726H345.992V75.416H344.822V78.656C344.835 78.8494 344.899 78.9894 345.012 79.076C345.125 79.1627 345.259 79.206 345.412 79.206C345.585 79.206 345.742 79.1794 345.882 79.126C346.029 79.066 346.129 79.0194 346.182 78.986L346.392 79.686ZM350.467 75.496C350.027 75.5094 349.637 75.6227 349.297 75.836C348.964 76.0494 348.727 76.346 348.587 76.726V79.946H347.707V74.726H348.527V75.936C348.707 75.576 348.944 75.286 349.237 75.066C349.531 74.8394 349.844 74.7127 350.177 74.686C350.244 74.686 350.301 74.686 350.347 74.686C350.394 74.686 350.434 74.6894 350.467 74.696V75.496ZM353.18 80.046C352.934 80.046 352.704 80.006 352.49 79.926C352.277 79.8394 352.09 79.7227 351.93 79.576C351.777 79.4294 351.654 79.2594 351.56 79.066C351.474 78.866 351.43 78.6494 351.43 78.416C351.43 78.176 351.484 77.9594 351.59 77.766C351.697 77.566 351.847 77.396 352.04 77.256C352.24 77.116 352.474 77.006 352.74 76.926C353.014 76.846 353.31 76.806 353.63 76.806C353.884 76.806 354.14 76.8294 354.4 76.876C354.66 76.9227 354.89 76.986 355.09 77.066V76.646C355.09 76.2194 354.97 75.886 354.73 75.646C354.49 75.3994 354.15 75.276 353.71 75.276C353.184 75.276 352.63 75.4794 352.05 75.886L351.76 75.316C352.434 74.8627 353.11 74.636 353.79 74.636C354.477 74.636 355.01 74.8194 355.39 75.186C355.777 75.5527 355.97 76.0694 355.97 76.736V78.866C355.97 79.0727 356.064 79.1794 356.25 79.186V79.946C356.157 79.9594 356.08 79.9694 356.02 79.976C355.96 79.9827 355.897 79.986 355.83 79.986C355.657 79.986 355.517 79.936 355.41 79.836C355.31 79.7294 355.25 79.6027 355.23 79.456L355.21 79.086C354.977 79.3994 354.68 79.6394 354.32 79.806C353.967 79.966 353.587 80.046 353.18 80.046ZM353.41 79.386C353.724 79.386 354.014 79.3294 354.28 79.216C354.554 79.096 354.76 78.9394 354.9 78.746C355.027 78.6194 355.09 78.4894 355.09 78.356V77.586C354.664 77.4194 354.22 77.336 353.76 77.336C353.32 77.336 352.96 77.4294 352.68 77.616C352.407 77.8027 352.27 78.046 352.27 78.346C352.27 78.4927 352.297 78.6294 352.35 78.756C352.41 78.8827 352.49 78.9927 352.59 79.086C352.697 79.1794 352.82 79.2527 352.96 79.306C353.1 79.3594 353.25 79.386 353.41 79.386ZM357.897 72.646H358.777V78.596C358.777 78.7894 358.827 78.9427 358.927 79.056C359.034 79.1627 359.181 79.216 359.367 79.216C359.441 79.216 359.527 79.206 359.627 79.186C359.727 79.1594 359.821 79.1294 359.907 79.096L360.047 79.806C359.901 79.866 359.727 79.916 359.527 79.956C359.327 79.996 359.151 80.016 358.997 80.016C358.657 80.016 358.387 79.9194 358.187 79.726C357.994 79.5327 357.897 79.2627 357.897 78.916V72.646ZM361.239 79.946V74.726H362.119V79.946H361.239ZM361.239 73.746V72.646H362.119V73.746H361.239ZM365.383 80.046C365.137 80.046 364.907 80.006 364.693 79.926C364.48 79.8394 364.293 79.7227 364.133 79.576C363.98 79.4294 363.857 79.2594 363.763 79.066C363.677 78.866 363.633 78.6494 363.633 78.416C363.633 78.176 363.687 77.9594 363.793 77.766C363.9 77.566 364.05 77.396 364.243 77.256C364.443 77.116 364.677 77.006 364.943 76.926C365.217 76.846 365.513 76.806 365.833 76.806C366.087 76.806 366.343 76.8294 366.603 76.876C366.863 76.9227 367.093 76.986 367.293 77.066V76.646C367.293 76.2194 367.173 75.886 366.933 75.646C366.693 75.3994 366.353 75.276 365.913 75.276C365.387 75.276 364.833 75.4794 364.253 75.886L363.963 75.316C364.637 74.8627 365.313 74.636 365.993 74.636C366.68 74.636 367.213 74.8194 367.593 75.186C367.98 75.5527 368.173 76.0694 368.173 76.736V78.866C368.173 79.0727 368.267 79.1794 368.453 79.186V79.946C368.36 79.9594 368.283 79.9694 368.223 79.976C368.163 79.9827 368.1 79.986 368.033 79.986C367.86 79.986 367.72 79.936 367.613 79.836C367.513 79.7294 367.453 79.6027 367.433 79.456L367.413 79.086C367.18 79.3994 366.883 79.6394 366.523 79.806C366.17 79.966 365.79 80.046 365.383 80.046ZM365.613 79.386C365.927 79.386 366.217 79.3294 366.483 79.216C366.757 79.096 366.963 78.9394 367.103 78.746C367.23 78.6194 367.293 78.4894 367.293 78.356V77.586C366.867 77.4194 366.423 77.336 365.963 77.336C365.523 77.336 365.163 77.4294 364.883 77.616C364.61 77.8027 364.473 78.046 364.473 78.346C364.473 78.4927 364.5 78.6294 364.553 78.756C364.613 78.8827 364.693 78.9927 364.793 79.086C364.9 79.1794 365.023 79.2527 365.163 79.306C365.303 79.3594 365.453 79.386 365.613 79.386Z" fill="#444444"/>
</g>
<rect x="307.18" y="35.6699" width="7.79079" height="7.79079" rx="3.8954" fill="#2B6A6C"/>
<rect x="307.18" y="53.4773" width="7.79079" height="7.79079" rx="3.8954" fill="#B80D48"/>
<rect x="307.18" y="71.2849" width="7.79079" height="7.79079" rx="3.8954" fill="#F29724"/>
<path d="M177.975 131.89C177.895 131.797 177.788 131.707 177.655 131.62C177.522 131.533 177.372 131.457 177.205 131.39C177.038 131.317 176.855 131.26 176.655 131.22C176.462 131.173 176.258 131.15 176.045 131.15C175.492 131.15 175.085 131.253 174.825 131.46C174.572 131.667 174.445 131.95 174.445 132.31C174.445 132.503 174.482 132.663 174.555 132.79C174.628 132.917 174.742 133.027 174.895 133.12C175.055 133.207 175.252 133.283 175.485 133.35C175.718 133.417 175.995 133.487 176.315 133.56C176.682 133.64 177.012 133.733 177.305 133.84C177.605 133.94 177.858 134.067 178.065 134.22C178.278 134.373 178.438 134.56 178.545 134.78C178.658 135 178.715 135.27 178.715 135.59C178.715 135.93 178.648 136.227 178.515 136.48C178.382 136.727 178.198 136.933 177.965 137.1C177.738 137.26 177.468 137.38 177.155 137.46C176.842 137.533 176.502 137.57 176.135 137.57C175.588 137.57 175.068 137.487 174.575 137.32C174.088 137.147 173.645 136.897 173.245 136.57L173.675 135.81C173.782 135.923 173.918 136.037 174.085 136.15C174.258 136.263 174.452 136.367 174.665 136.46C174.885 136.547 175.118 136.62 175.365 136.68C175.618 136.733 175.882 136.76 176.155 136.76C176.662 136.76 177.055 136.67 177.335 136.49C177.615 136.31 177.755 136.04 177.755 135.68C177.755 135.48 177.708 135.313 177.615 135.18C177.528 135.04 177.398 134.92 177.225 134.82C177.052 134.72 176.835 134.633 176.575 134.56C176.322 134.48 176.032 134.4 175.705 134.32C175.345 134.233 175.028 134.14 174.755 134.04C174.482 133.94 174.252 133.82 174.065 133.68C173.885 133.54 173.748 133.37 173.655 133.17C173.562 132.97 173.515 132.73 173.515 132.45C173.515 132.11 173.578 131.81 173.705 131.55C173.832 131.29 174.008 131.07 174.235 130.89C174.462 130.71 174.732 130.577 175.045 130.49C175.358 130.397 175.698 130.35 176.065 130.35C176.545 130.35 176.978 130.423 177.365 130.57C177.752 130.717 178.095 130.913 178.395 131.16L177.975 131.89ZM182.861 137.24C182.808 137.267 182.738 137.3 182.651 137.34C182.564 137.373 182.464 137.41 182.351 137.45C182.244 137.483 182.124 137.51 181.991 137.53C181.864 137.557 181.731 137.57 181.591 137.57C181.271 137.57 180.994 137.483 180.761 137.31C180.528 137.13 180.411 136.853 180.411 136.48V132.97H179.701V132.28H180.411V130.54H181.291V132.28H182.461V132.97H181.291V136.21C181.304 136.403 181.368 136.543 181.481 136.63C181.594 136.717 181.728 136.76 181.881 136.76C182.054 136.76 182.211 136.733 182.351 136.68C182.498 136.62 182.598 136.573 182.651 136.54L182.861 137.24ZM185.787 137.6C185.24 137.6 184.827 137.417 184.547 137.05C184.267 136.683 184.127 136.137 184.127 135.41V132.28H185.007V135.24C185.007 136.307 185.377 136.84 186.117 136.84C186.477 136.84 186.813 136.727 187.127 136.5C187.447 136.267 187.683 135.95 187.837 135.55V132.28H188.717V136.42C188.717 136.627 188.81 136.733 188.997 136.74V137.5C188.897 137.513 188.817 137.52 188.757 137.52C188.703 137.527 188.65 137.53 188.597 137.53C188.423 137.53 188.277 137.48 188.157 137.38C188.043 137.273 187.983 137.143 187.977 136.99L187.957 136.38C187.723 136.773 187.417 137.077 187.037 137.29C186.657 137.497 186.24 137.6 185.787 137.6ZM192.833 137.6C192.473 137.6 192.139 137.527 191.833 137.38C191.526 137.233 191.263 137.037 191.043 136.79C190.823 136.543 190.649 136.257 190.523 135.93C190.403 135.603 190.343 135.26 190.343 134.9C190.343 134.533 190.399 134.187 190.513 133.86C190.633 133.527 190.796 133.237 191.003 132.99C191.216 132.743 191.466 132.55 191.753 132.41C192.046 132.263 192.366 132.19 192.713 132.19C193.133 132.19 193.506 132.3 193.833 132.52C194.166 132.74 194.429 133.007 194.623 133.32V130.2H195.503V136.42C195.503 136.627 195.596 136.733 195.783 136.74V137.5C195.689 137.513 195.613 137.523 195.553 137.53C195.499 137.537 195.446 137.54 195.393 137.54C195.219 137.54 195.066 137.483 194.933 137.37C194.806 137.25 194.743 137.113 194.743 136.96V136.52C194.536 136.86 194.259 137.127 193.913 137.32C193.573 137.507 193.213 137.6 192.833 137.6ZM193.043 136.84C193.203 136.84 193.366 136.81 193.533 136.75C193.706 136.69 193.866 136.607 194.013 136.5C194.166 136.393 194.296 136.27 194.403 136.13C194.516 135.983 194.589 135.83 194.623 135.67V134.17C194.563 134.003 194.473 133.847 194.353 133.7C194.233 133.547 194.096 133.417 193.943 133.31C193.796 133.197 193.636 133.11 193.463 133.05C193.296 132.983 193.129 132.95 192.963 132.95C192.703 132.95 192.466 133.007 192.253 133.12C192.046 133.227 191.866 133.373 191.713 133.56C191.566 133.74 191.453 133.95 191.373 134.19C191.293 134.423 191.253 134.663 191.253 134.91C191.253 135.17 191.299 135.42 191.393 135.66C191.486 135.893 191.613 136.097 191.773 136.27C191.933 136.443 192.119 136.583 192.333 136.69C192.553 136.79 192.789 136.84 193.043 136.84ZM199.782 137.6C199.388 137.6 199.028 137.53 198.702 137.39C198.375 137.243 198.095 137.047 197.862 136.8C197.628 136.553 197.445 136.267 197.312 135.94C197.185 135.607 197.122 135.257 197.122 134.89C197.122 134.523 197.185 134.177 197.312 133.85C197.445 133.523 197.628 133.237 197.862 132.99C198.102 132.743 198.385 132.55 198.712 132.41C199.038 132.263 199.398 132.19 199.792 132.19C200.185 132.19 200.542 132.263 200.862 132.41C201.188 132.557 201.465 132.753 201.692 133C201.918 133.24 202.092 133.523 202.212 133.85C202.338 134.17 202.402 134.503 202.402 134.85C202.402 134.923 202.398 134.99 202.392 135.05C202.392 135.11 202.388 135.157 202.382 135.19H198.052C198.072 135.45 198.132 135.687 198.232 135.9C198.332 136.113 198.462 136.297 198.622 136.45C198.782 136.603 198.962 136.723 199.162 136.81C199.368 136.897 199.585 136.94 199.812 136.94C199.972 136.94 200.128 136.92 200.282 136.88C200.435 136.833 200.578 136.773 200.712 136.7C200.845 136.627 200.962 136.537 201.062 136.43C201.168 136.323 201.248 136.203 201.302 136.07L202.062 136.28C201.975 136.473 201.855 136.65 201.702 136.81C201.555 136.97 201.382 137.11 201.182 137.23C200.988 137.343 200.772 137.433 200.532 137.5C200.292 137.567 200.042 137.6 199.782 137.6ZM201.572 134.54C201.552 134.293 201.488 134.067 201.382 133.86C201.282 133.647 201.152 133.467 200.992 133.32C200.838 133.173 200.658 133.06 200.452 132.98C200.245 132.893 200.025 132.85 199.792 132.85C199.558 132.85 199.338 132.893 199.132 132.98C198.925 133.06 198.742 133.177 198.582 133.33C198.428 133.477 198.302 133.653 198.202 133.86C198.108 134.067 198.052 134.293 198.032 134.54H201.572ZM208.41 137.5H207.53V134.58C207.53 134.02 207.443 133.613 207.27 133.36C207.103 133.107 206.847 132.98 206.5 132.98C206.32 132.98 206.14 133.017 205.96 133.09C205.78 133.157 205.61 133.25 205.45 133.37C205.29 133.49 205.15 133.633 205.03 133.8C204.91 133.967 204.82 134.15 204.76 134.35V137.5H203.88V132.28H204.68V133.4C204.887 133.033 205.183 132.74 205.57 132.52C205.963 132.3 206.39 132.19 206.85 132.19C207.15 132.19 207.4 132.247 207.6 132.36C207.8 132.467 207.96 132.62 208.08 132.82C208.2 133.013 208.283 133.243 208.33 133.51C208.383 133.777 208.41 134.067 208.41 134.38V137.5ZM212.93 137.24C212.876 137.267 212.806 137.3 212.72 137.34C212.633 137.373 212.533 137.41 212.42 137.45C212.313 137.483 212.193 137.51 212.06 137.53C211.933 137.557 211.8 137.57 211.66 137.57C211.34 137.57 211.063 137.483 210.83 137.31C210.596 137.13 210.48 136.853 210.48 136.48V132.97H209.77V132.28H210.48V130.54H211.36V132.28H212.53V132.97H211.36V136.21C211.373 136.403 211.436 136.543 211.55 136.63C211.663 136.717 211.796 136.76 211.95 136.76C212.123 136.76 212.28 136.733 212.42 136.68C212.566 136.62 212.666 136.573 212.72 136.54L212.93 137.24ZM220.294 137.55C219.794 137.55 219.338 137.45 218.924 137.25C218.518 137.043 218.168 136.773 217.874 136.44C217.581 136.1 217.354 135.713 217.194 135.28C217.034 134.847 216.954 134.403 216.954 133.95C216.954 133.477 217.038 133.023 217.204 132.59C217.378 132.157 217.614 131.773 217.914 131.44C218.214 131.107 218.568 130.843 218.974 130.65C219.388 130.45 219.834 130.35 220.314 130.35C220.814 130.35 221.268 130.457 221.674 130.67C222.081 130.877 222.431 131.15 222.724 131.49C223.018 131.83 223.244 132.217 223.404 132.65C223.564 133.077 223.644 133.513 223.644 133.96C223.644 134.433 223.558 134.887 223.384 135.32C223.218 135.753 222.984 136.137 222.684 136.47C222.391 136.797 222.038 137.06 221.624 137.26C221.218 137.453 220.774 137.55 220.294 137.55ZM217.864 133.95C217.864 134.31 217.921 134.66 218.034 135C218.154 135.333 218.321 135.63 218.534 135.89C218.748 136.15 219.004 136.357 219.304 136.51C219.604 136.663 219.938 136.74 220.304 136.74C220.684 136.74 221.024 136.66 221.324 136.5C221.624 136.333 221.878 136.12 222.084 135.86C222.298 135.593 222.458 135.293 222.564 134.96C222.678 134.627 222.734 134.29 222.734 133.95C222.734 133.59 222.674 133.243 222.554 132.91C222.441 132.57 222.274 132.273 222.054 132.02C221.841 131.76 221.584 131.553 221.284 131.4C220.991 131.247 220.664 131.17 220.304 131.17C219.924 131.17 219.584 131.25 219.284 131.41C218.984 131.57 218.728 131.78 218.514 132.04C218.308 132.3 218.148 132.597 218.034 132.93C217.921 133.263 217.864 133.603 217.864 133.95ZM227.966 133.05C227.526 133.063 227.136 133.177 226.796 133.39C226.463 133.603 226.226 133.9 226.086 134.28V137.5H225.206V132.28H226.026V133.49C226.206 133.13 226.443 132.84 226.736 132.62C227.029 132.393 227.343 132.267 227.676 132.24C227.743 132.24 227.799 132.24 227.846 132.24C227.893 132.24 227.933 132.243 227.966 132.25V133.05ZM229.339 137.5V132.28H230.219V137.5H229.339ZM229.339 131.3V130.2H230.219V131.3H229.339ZM234.224 137.56C233.87 137.56 233.544 137.487 233.244 137.34C232.95 137.193 232.697 136.997 232.484 136.75C232.27 136.503 232.104 136.22 231.984 135.9C231.87 135.58 231.814 135.247 231.814 134.9C231.814 134.533 231.87 134.187 231.984 133.86C232.104 133.527 232.27 133.237 232.484 132.99C232.697 132.743 232.95 132.55 233.244 132.41C233.544 132.263 233.874 132.19 234.234 132.19C234.674 132.19 235.054 132.297 235.374 132.51C235.694 132.723 235.964 132.993 236.184 133.32V132.28H236.964V137.44C236.964 137.813 236.894 138.14 236.754 138.42C236.614 138.707 236.424 138.947 236.184 139.14C235.944 139.333 235.66 139.48 235.334 139.58C235.014 139.68 234.67 139.73 234.304 139.73C233.71 139.73 233.227 139.627 232.854 139.42C232.487 139.22 232.18 138.94 231.934 138.58L232.444 138.13C232.65 138.437 232.917 138.667 233.244 138.82C233.57 138.973 233.924 139.05 234.304 139.05C234.544 139.05 234.77 139.017 234.984 138.95C235.204 138.883 235.394 138.783 235.554 138.65C235.714 138.517 235.84 138.35 235.934 138.15C236.034 137.95 236.084 137.713 236.084 137.44V136.52C235.984 136.68 235.864 136.827 235.724 136.96C235.59 137.087 235.444 137.197 235.284 137.29C235.124 137.377 234.954 137.443 234.774 137.49C234.594 137.537 234.41 137.56 234.224 137.56ZM234.494 136.84C234.68 136.84 234.86 136.807 235.034 136.74C235.207 136.673 235.367 136.587 235.514 136.48C235.66 136.367 235.784 136.24 235.884 136.1C235.984 135.96 236.05 135.817 236.084 135.67V134.17C236.01 133.99 235.914 133.827 235.794 133.68C235.68 133.533 235.55 133.407 235.404 133.3C235.257 133.187 235.097 133.1 234.924 133.04C234.757 132.98 234.587 132.95 234.414 132.95C234.147 132.95 233.907 133.007 233.694 133.12C233.487 133.233 233.31 133.383 233.164 133.57C233.017 133.757 232.904 133.97 232.824 134.21C232.744 134.443 232.704 134.68 232.704 134.92C232.704 135.18 232.75 135.427 232.844 135.66C232.937 135.893 233.064 136.097 233.224 136.27C233.384 136.443 233.57 136.583 233.784 136.69C234.004 136.79 234.24 136.84 234.494 136.84ZM238.884 137.5V132.28H239.764V137.5H238.884ZM238.884 131.3V130.2H239.764V131.3H238.884ZM246.218 137.5H245.338V134.58C245.338 134.02 245.252 133.613 245.078 133.36C244.912 133.107 244.655 132.98 244.308 132.98C244.128 132.98 243.948 133.017 243.768 133.09C243.588 133.157 243.418 133.25 243.258 133.37C243.098 133.49 242.958 133.633 242.838 133.8C242.718 133.967 242.628 134.15 242.568 134.35V137.5H241.688V132.28H242.488V133.4C242.695 133.033 242.992 132.74 243.378 132.52C243.772 132.3 244.198 132.19 244.658 132.19C244.958 132.19 245.208 132.247 245.408 132.36C245.608 132.467 245.768 132.62 245.888 132.82C246.008 133.013 246.092 133.243 246.138 133.51C246.192 133.777 246.218 134.067 246.218 134.38V137.5Z" fill="#444444"/>
<path d="M120.631 115.854C120.311 115.854 120.025 115.769 119.773 115.599C119.524 115.43 119.328 115.187 119.186 114.871C119.048 114.551 118.979 114.176 118.979 113.746C118.979 113.316 119.048 112.943 119.186 112.627C119.328 112.307 119.524 112.062 119.773 111.892C120.025 111.723 120.311 111.638 120.631 111.638C120.951 111.638 121.235 111.723 121.484 111.892C121.737 112.062 121.934 112.307 122.076 112.627C122.218 112.943 122.289 113.316 122.289 113.746C122.289 114.176 122.218 114.551 122.076 114.871C121.934 115.187 121.737 115.43 121.484 115.599C121.235 115.769 120.951 115.854 120.631 115.854ZM120.631 115.463C120.872 115.463 121.083 115.396 121.265 115.262C121.45 115.128 121.594 114.932 121.697 114.676C121.8 114.419 121.851 114.109 121.851 113.746C121.851 113.383 121.8 113.073 121.697 112.816C121.594 112.56 121.45 112.364 121.265 112.23C121.083 112.096 120.872 112.029 120.631 112.029C120.39 112.029 120.177 112.096 119.992 112.23C119.81 112.364 119.668 112.56 119.565 112.816C119.463 113.073 119.411 113.383 119.411 113.746C119.411 114.109 119.463 114.419 119.565 114.676C119.668 114.932 119.81 115.128 119.992 115.262C120.177 115.396 120.39 115.463 120.631 115.463Z" fill="#747D88"/>
<path d="M117.988 93.4536V97.5986H117.562V93.8326H116.585V93.4536H117.988ZM120.631 97.6342C120.311 97.6342 120.025 97.5493 119.772 97.3795C119.524 97.2098 119.328 96.967 119.186 96.6512C119.048 96.3314 118.979 95.9564 118.979 95.5261C118.979 95.0958 119.048 94.7228 119.186 94.407C119.328 94.0872 119.524 93.8425 119.772 93.6727C120.025 93.503 120.311 93.4181 120.631 93.4181C120.951 93.4181 121.235 93.503 121.484 93.6727C121.736 93.8425 121.934 94.0872 122.076 94.407C122.218 94.7228 122.289 95.0958 122.289 95.5261C122.289 95.9564 122.218 96.3314 122.076 96.6512C121.934 96.967 121.736 97.2098 121.484 97.3795C121.235 97.5493 120.951 97.6342 120.631 97.6342ZM120.631 97.2433C120.872 97.2433 121.083 97.1762 121.265 97.042C121.45 96.9078 121.594 96.7124 121.697 96.4558C121.799 96.1992 121.851 95.8893 121.851 95.5261C121.851 95.163 121.799 94.8531 121.697 94.5965C121.594 94.3399 121.45 94.1445 121.265 94.0103C121.083 93.876 120.872 93.8089 120.631 93.8089C120.39 93.8089 120.177 93.876 119.991 94.0103C119.81 94.1445 119.668 94.3399 119.565 94.5965C119.462 94.8531 119.411 95.163 119.411 95.5261C119.411 95.8893 119.462 96.1992 119.565 96.4558C119.668 96.7124 119.81 96.9078 119.991 97.042C120.177 97.1762 120.39 97.2433 120.631 97.2433Z" fill="#747D88"/>
<path d="M118.467 79.0002V79.3792H115.56V79.0772L117.283 77.3896C117.5 77.1764 117.646 76.9928 117.721 76.8389C117.8 76.681 117.839 76.5231 117.839 76.3651C117.839 76.1204 117.754 75.9309 117.585 75.7967C117.419 75.6585 117.18 75.5894 116.868 75.5894C116.383 75.5894 116.006 75.7434 115.737 76.0513L115.435 75.7908C115.597 75.6013 115.802 75.4552 116.051 75.3526C116.304 75.2499 116.588 75.1986 116.904 75.1986C117.326 75.1986 117.66 75.2993 117.904 75.5006C118.153 75.698 118.278 75.9704 118.278 76.3178C118.278 76.5309 118.23 76.7362 118.135 76.9336C118.041 77.131 117.861 77.358 117.597 77.6146L116.187 79.0002H118.467ZM120.631 79.4147C120.311 79.4147 120.025 79.3298 119.772 79.1601C119.524 78.9903 119.328 78.7475 119.186 78.4317C119.048 78.112 118.979 77.7369 118.979 77.3067C118.979 76.8764 119.048 76.5033 119.186 76.1875C119.328 75.8678 119.524 75.623 119.772 75.4533C120.025 75.2835 120.311 75.1986 120.631 75.1986C120.951 75.1986 121.235 75.2835 121.484 75.4533C121.736 75.623 121.934 75.8678 122.076 76.1875C122.218 76.5033 122.289 76.8764 122.289 77.3067C122.289 77.7369 122.218 78.112 122.076 78.4317C121.934 78.7475 121.736 78.9903 121.484 79.1601C121.235 79.3298 120.951 79.4147 120.631 79.4147ZM120.631 79.0239C120.872 79.0239 121.083 78.9568 121.265 78.8225C121.45 78.6883 121.594 78.4929 121.697 78.2363C121.799 77.9797 121.851 77.6698 121.851 77.3067C121.851 76.9435 121.799 76.6336 121.697 76.377C121.594 76.1204 121.45 75.925 121.265 75.7908C121.083 75.6566 120.872 75.5894 120.631 75.5894C120.39 75.5894 120.177 75.6566 119.991 75.7908C119.81 75.925 119.668 76.1204 119.565 76.377C119.462 76.6336 119.411 76.9435 119.411 77.3067C119.411 77.6698 119.462 77.9797 119.565 78.2363C119.668 78.4929 119.81 78.6883 119.991 78.8225C120.177 78.9568 120.39 79.0239 120.631 79.0239Z" fill="#747D88"/>
<path d="M117.046 58.7906C117.48 58.8143 117.81 58.9327 118.035 59.1459C118.264 59.3551 118.378 59.6295 118.378 59.969C118.378 60.2058 118.321 60.417 118.206 60.6026C118.092 60.7842 117.922 60.9282 117.697 61.0348C117.472 61.1414 117.198 61.1947 116.874 61.1947C116.574 61.1947 116.29 61.1473 116.021 61.0526C115.757 60.9539 115.544 60.8236 115.382 60.6618L115.589 60.3243C115.727 60.4664 115.911 60.5828 116.14 60.6736C116.369 60.7605 116.614 60.8039 116.874 60.8039C117.214 60.8039 117.476 60.7309 117.662 60.5848C117.847 60.4348 117.94 60.2295 117.94 59.969C117.94 59.7124 117.847 59.5111 117.662 59.365C117.476 59.2189 117.196 59.1459 116.821 59.1459H116.525V58.8321L117.674 57.3932H115.554V57.0142H118.218V57.3162L117.046 58.7906ZM120.631 61.1947C120.311 61.1947 120.025 61.1098 119.772 60.9401C119.524 60.7703 119.328 60.5276 119.186 60.2118C119.048 59.892 118.979 59.517 118.979 59.0867C118.979 58.6564 119.048 58.2833 119.186 57.9675C119.328 57.6478 119.524 57.403 119.772 57.2333C120.025 57.0635 120.311 56.9787 120.631 56.9787C120.951 56.9787 121.235 57.0635 121.484 57.2333C121.736 57.403 121.934 57.6478 122.076 57.9675C122.218 58.2833 122.289 58.6564 122.289 59.0867C122.289 59.517 122.218 59.892 122.076 60.2118C121.934 60.5276 121.736 60.7703 121.484 60.9401C121.235 61.1098 120.951 61.1947 120.631 61.1947ZM120.631 60.8039C120.872 60.8039 121.083 60.7368 121.265 60.6026C121.45 60.4683 121.594 60.2729 121.697 60.0163C121.799 59.7598 121.851 59.4499 121.851 59.0867C121.851 58.7235 121.799 58.4136 121.697 58.157C121.594 57.9004 121.45 57.705 121.265 57.5708C121.083 57.4366 120.872 57.3695 120.631 57.3695C120.39 57.3695 120.177 57.4366 119.991 57.5708C119.81 57.705 119.668 57.9004 119.565 58.157C119.462 58.4136 119.411 58.7235 119.411 59.0867C119.411 59.4499 119.462 59.7598 119.565 60.0163C119.668 60.2729 119.81 60.4683 119.991 60.6026C120.177 60.7368 120.39 60.8039 120.631 60.8039Z" fill="#747D88"/>
<path d="M118.587 41.8499H117.758V42.9395H117.332V41.8499H114.993V41.542L117.19 38.7945H117.664L115.544 41.4709H117.344V40.5117H117.758V41.4709H118.587V41.8499ZM120.631 42.975C120.311 42.975 120.025 42.8901 119.772 42.7204C119.524 42.5506 119.328 42.3078 119.186 41.992C119.048 41.6723 118.979 41.2972 118.979 40.867C118.979 40.4367 119.048 40.0636 119.186 39.7478C119.328 39.4281 119.524 39.1833 119.772 39.0136C120.025 38.8438 120.311 38.7589 120.631 38.7589C120.951 38.7589 121.235 38.8438 121.484 39.0136C121.736 39.1833 121.934 39.4281 122.076 39.7478C122.218 40.0636 122.289 40.4367 122.289 40.867C122.289 41.2972 122.218 41.6723 122.076 41.992C121.934 42.3078 121.736 42.5506 121.484 42.7204C121.235 42.8901 120.951 42.975 120.631 42.975ZM120.631 42.5842C120.872 42.5842 121.083 42.5171 121.265 42.3828C121.45 42.2486 121.594 42.0532 121.697 41.7966C121.799 41.54 121.851 41.2301 121.851 40.867C121.851 40.5038 121.799 40.1939 121.697 39.9373C121.594 39.6807 121.45 39.4853 121.265 39.3511C121.083 39.2169 120.872 39.1497 120.631 39.1497C120.39 39.1497 120.177 39.2169 119.991 39.3511C119.81 39.4853 119.668 39.6807 119.565 39.9373C119.462 40.1939 119.411 40.5038 119.411 40.867C119.411 41.2301 119.462 41.54 119.565 41.7966C119.668 42.0532 119.81 42.2486 119.991 42.3828C120.177 42.5171 120.39 42.5842 120.631 42.5842Z" fill="#747D88"/>
<path d="M116.715 22.2742C117.315 22.2742 117.751 22.3827 118.023 22.5999C118.299 22.813 118.438 23.113 118.438 23.4999C118.438 23.7407 118.38 23.9559 118.266 24.1453C118.155 24.3348 117.988 24.4848 117.763 24.5954C117.538 24.702 117.261 24.7553 116.934 24.7553C116.638 24.7553 116.355 24.7079 116.087 24.6131C115.822 24.5145 115.609 24.3842 115.447 24.2223L115.655 23.8848C115.793 24.0269 115.974 24.1434 116.199 24.2342C116.424 24.321 116.667 24.3644 116.928 24.3644C117.271 24.3644 117.536 24.2875 117.721 24.1335C117.911 23.9795 118.005 23.7743 118.005 23.5177C118.005 23.2335 117.899 23.0183 117.686 22.8722C117.476 22.7262 117.121 22.6532 116.62 22.6532H115.737L115.951 20.5747H118.219V20.9537H116.324L116.182 22.2742H116.715ZM120.631 24.7553C120.311 24.7553 120.025 24.6704 119.772 24.5006C119.524 24.3309 119.328 24.0881 119.186 23.7723C119.048 23.4525 118.979 23.0775 118.979 22.6472C118.979 22.2169 119.048 21.8439 119.186 21.5281C119.328 21.2083 119.524 20.9636 119.772 20.7938C120.025 20.6241 120.311 20.5392 120.631 20.5392C120.951 20.5392 121.235 20.6241 121.484 20.7938C121.736 20.9636 121.934 21.2083 122.076 21.5281C122.218 21.8439 122.289 22.2169 122.289 22.6472C122.289 23.0775 122.218 23.4525 122.076 23.7723C121.934 24.0881 121.736 24.3309 121.484 24.5006C121.235 24.6704 120.951 24.7553 120.631 24.7553ZM120.631 24.3644C120.872 24.3644 121.083 24.2973 121.265 24.1631C121.45 24.0289 121.594 23.8335 121.697 23.5769C121.799 23.3203 121.851 23.0104 121.851 22.6472C121.851 22.2841 121.799 21.9742 121.697 21.7176C121.594 21.461 121.45 21.2656 121.265 21.1313C121.083 20.9971 120.872 20.93 120.631 20.93C120.39 20.93 120.177 20.9971 119.991 21.1313C119.81 21.2656 119.668 21.461 119.565 21.7176C119.462 21.9742 119.411 22.2841 119.411 22.6472C119.411 23.0104 119.462 23.3203 119.565 23.5769C119.668 23.8335 119.81 24.0289 119.991 24.1631C120.177 24.2973 120.39 24.3644 120.631 24.3644Z" fill="#747D88"/>
<path d="M117.088 4.01893C117.36 4.01893 117.601 4.07025 117.81 4.17288C118.023 4.27552 118.189 4.42158 118.308 4.61107C118.426 4.79661 118.485 5.01372 118.485 5.26242C118.485 5.51507 118.424 5.73811 118.302 5.93154C118.179 6.12498 118.01 6.27499 117.792 6.38157C117.579 6.48421 117.338 6.53553 117.07 6.53553C116.521 6.53553 116.101 6.35591 115.809 5.99668C115.517 5.6335 115.371 5.12228 115.371 4.46303C115.371 4.00116 115.45 3.61035 115.607 3.29059C115.765 2.97084 115.986 2.73003 116.271 2.56818C116.555 2.40238 116.886 2.31948 117.265 2.31948C117.676 2.31948 118.004 2.39449 118.248 2.54449L118.077 2.88794C117.879 2.75767 117.611 2.69253 117.271 2.69253C116.813 2.69253 116.454 2.83859 116.194 3.13071C115.933 3.41889 115.803 3.83931 115.803 4.39198C115.803 4.49067 115.809 4.60317 115.821 4.7295C115.923 4.50448 116.087 4.33079 116.312 4.20841C116.537 4.08209 116.796 4.01893 117.088 4.01893ZM117.052 6.17432C117.352 6.17432 117.595 6.0934 117.781 5.93154C117.97 5.76574 118.065 5.54665 118.065 5.27427C118.065 5.00188 117.97 4.78476 117.781 4.62291C117.595 4.46106 117.342 4.38013 117.023 4.38013C116.813 4.38013 116.628 4.41961 116.466 4.49856C116.308 4.57751 116.184 4.68607 116.093 4.82424C116.002 4.96241 115.957 5.11636 115.957 5.28611C115.957 5.44401 115.998 5.59008 116.081 5.72429C116.168 5.85851 116.294 5.96707 116.46 6.04997C116.626 6.13287 116.823 6.17432 117.052 6.17432ZM120.631 6.53553C120.311 6.53553 120.025 6.45065 119.772 6.28091C119.524 6.11116 119.328 5.86838 119.186 5.55257C119.048 5.23282 118.979 4.85779 118.979 4.4275C118.979 3.99721 119.048 3.62417 119.186 3.30836C119.328 2.9886 119.524 2.74385 119.772 2.5741C120.025 2.40435 120.311 2.31948 120.631 2.31948C120.951 2.31948 121.235 2.40435 121.484 2.5741C121.736 2.74385 121.934 2.9886 122.076 3.30836C122.218 3.62417 122.289 3.99721 122.289 4.4275C122.289 4.85779 122.218 5.23282 122.076 5.55257C121.934 5.86838 121.736 6.11116 121.484 6.28091C121.235 6.45065 120.951 6.53553 120.631 6.53553ZM120.631 6.14472C120.872 6.14472 121.083 6.07761 121.265 5.94339C121.45 5.80917 121.594 5.61376 121.697 5.35717C121.799 5.10057 121.851 4.79068 121.851 4.4275C121.851 4.06432 121.799 3.75444 121.697 3.49784C121.594 3.24125 121.45 3.04584 121.265 2.91162C121.083 2.7774 120.872 2.71029 120.631 2.71029C120.39 2.71029 120.177 2.7774 119.991 2.91162C119.81 3.04584 119.668 3.24125 119.565 3.49784C119.462 3.75444 119.411 4.06432 119.411 4.4275C119.411 4.79068 119.462 5.10057 119.565 5.35717C119.668 5.61376 119.81 5.80917 119.991 5.94339C120.177 6.07761 120.39 6.14472 120.631 6.14472Z" fill="#747D88"/>
<path d="M132.073 22.7595H277.501V24.2435H132.073V22.7595Z" fill="#747D88"/>
<path d="M132.073 40.5669H277.501V42.0509H132.073V40.5669Z" fill="#747D88"/>
<path d="M132.073 59.8584H277.501V61.3424H132.073V59.8584Z" fill="#747D88"/>
<path d="M132.073 77.666H277.501V79.15H132.073V77.666Z" fill="#747D88"/>
<path d="M132.073 95.4734H277.501V96.9573H132.073V95.4734Z" fill="#747D88"/>
<path d="M132.073 113.281H277.501V114.765H132.073V113.281Z" fill="#747D88"/>
<path d="M163.236 59.679C163.236 56.4087 165.887 53.7576 169.157 53.7576H171.329C174.6 53.7576 177.251 56.4087 177.251 59.679V113.539C177.251 114.193 176.721 114.724 176.067 114.724H164.42C163.766 114.724 163.236 114.193 163.236 113.539V59.679Z" fill="#B80D48"/>
<path d="M198.274 23.2395C198.274 19.9692 200.925 17.3181 204.195 17.3181H206.367C209.638 17.3181 212.289 19.9692 212.289 23.2395V113.539C212.289 114.193 211.759 114.724 211.105 114.724H199.458C198.804 114.724 198.274 114.193 198.274 113.539V23.2395Z" fill="#2B6A6C"/>
<path d="M233.312 40.7586C233.312 37.4883 235.963 34.8372 239.233 34.8372H241.405C244.676 34.8372 247.327 37.4883 247.327 40.7586V113.539C247.327 114.193 246.797 114.724 246.142 114.724H234.496C233.842 114.724 233.312 114.193 233.312 113.539V40.7586Z" fill="#F29724"/>
<defs>
<filter id="filter0_d" x="320.022" y="31.2157" width="53.8758" height="16.8046" filterUnits="userSpaceOnUse" color-interpolation-filters="sRGB">
<feFlood flood-opacity="0" result="BackgroundImageFix"/>
<feColorMatrix in="SourceAlpha" type="matrix" values="0 0 0 0 0 0 0 0 0 0 0 0 0 0 0 0 0 0 127 0"/>
<feOffset/>
<feGaussianBlur stdDeviation="2.35115"/>
<feColorMatrix type="matrix" values="0 0 0 0 0.902702 0 0 0 0 0.902702 0 0 0 0 0.902702 0 0 0 1 0"/>
<feBlend mode="normal" in2="BackgroundImageFix" result="effect1_dropShadow"/>
<feBlend mode="normal" in="SourceGraphic" in2="effect1_dropShadow" result="shape"/>
</filter>
<filter id="filter1_d" x="319.922" y="49.223" width="23.2434" height="16.5546" filterUnits="userSpaceOnUse" color-interpolation-filters="sRGB">
<feFlood flood-opacity="0" result="BackgroundImageFix"/>
<feColorMatrix in="SourceAlpha" type="matrix" values="0 0 0 0 0 0 0 0 0 0 0 0 0 0 0 0 0 0 127 0"/>
<feOffset/>
<feGaussianBlur stdDeviation="2.35115"/>
<feColorMatrix type="matrix" values="0 0 0 0 0.902702 0 0 0 0 0.902702 0 0 0 0 0.902702 0 0 0 1 0"/>
<feBlend mode="normal" in2="BackgroundImageFix" result="effect1_dropShadow"/>
<feBlend mode="normal" in="SourceGraphic" in2="effect1_dropShadow" result="shape"/>
</filter>
<filter id="filter2_d" x="319.272" y="67.9437" width="53.8836" height="16.8046" filterUnits="userSpaceOnUse" color-interpolation-filters="sRGB">
<feFlood flood-opacity="0" result="BackgroundImageFix"/>
<feColorMatrix in="SourceAlpha" type="matrix" values="0 0 0 0 0 0 0 0 0 0 0 0 0 0 0 0 0 0 127 0"/>
<feOffset/>
<feGaussianBlur stdDeviation="2.35115"/>
<feColorMatrix type="matrix" values="0 0 0 0 0.902702 0 0 0 0 0.902702 0 0 0 0 0.902702 0 0 0 1 0"/>
<feBlend mode="normal" in2="BackgroundImageFix" result="effect1_dropShadow"/>
<feBlend mode="normal" in="SourceGraphic" in2="effect1_dropShadow" result="shape"/>
</filter>
<linearGradient id="paint0_linear" x1="0" y1="19.7913" x2="80.1339" y2="99.9251" gradientUnits="userSpaceOnUse">
<stop stop-color="#B91950"/>
</linearGradient>
<linearGradient id="paint1_linear" x1="0" y1="19.7913" x2="80.1339" y2="99.9251" gradientUnits="userSpaceOnUse">
<stop stop-color="#B91950"/>
</linearGradient>
</defs>
</svg>
