<svg width="45" height="45" viewBox="0 0 45 45" fill="none" xmlns="http://www.w3.org/2000/svg">
<g filter="url(#filter0_d)">
<mask id="mask0" mask-type="alpha" maskUnits="userSpaceOnUse" x="3" y="2" width="39" height="40">
<circle cx="22.5" cy="21.7593" r="19.2593" fill="#C4C4C4"/>
</mask>
<g mask="url(#mask0)">
<path d="M-16.9895 2.5H61.7944V41.892H-16.9895V2.5Z" fill="#012169"/>
<path d="M-16.9895 2.5V6.90082L52.9851 41.892H61.7944V37.4911L-8.18017 2.5H-16.9895ZM61.7944 2.5V6.90082L-8.18017 41.892H-16.9895V37.4911L52.9851 2.5H61.7944Z" fill="white"/>
<path d="M15.8397 2.5V41.892H28.9652V2.5H15.8397ZM-16.9895 15.6332V28.7587H61.7944V15.6332H-16.9895Z" fill="white"/>
<path d="M-16.9895 18.2568V26.1352H61.7944V18.2568H-16.9895ZM18.4633 2.5V41.892H26.3417V2.5H18.4633ZM-16.9895 41.892L9.26924 28.7587H15.1473L-11.1192 41.892H-16.9895ZM-16.9895 2.5L9.26924 15.6332H3.39892L-16.9895 5.43901V2.5ZM29.6654 15.6332L55.9241 2.5H61.7944L35.5357 15.6332H29.6654ZM61.7944 41.892L35.5357 28.7587H41.406L61.7944 38.9529V41.892Z" fill="#C8102E"/>
</g>
</g>
<defs>
<filter id="filter0_d" x="0.793845" y="0.664842" width="43.4123" height="43.4123" filterUnits="userSpaceOnUse" color-interpolation-filters="sRGB">
<feFlood flood-opacity="0" result="BackgroundImageFix"/>
<feColorMatrix in="SourceAlpha" type="matrix" values="0 0 0 0 0 0 0 0 0 0 0 0 0 0 0 0 0 0 127 0"/>
<feOffset dy="0.611719"/>
<feGaussianBlur stdDeviation="1.22344"/>
<feColorMatrix type="matrix" values="0 0 0 0 0 0 0 0 0 0 0 0 0 0 0 0 0 0 0.18 0"/>
<feBlend mode="normal" in2="BackgroundImageFix" result="effect1_dropShadow"/>
<feBlend mode="normal" in="SourceGraphic" in2="effect1_dropShadow" result="shape"/>
</filter>
</defs>
</svg>
