<svg width="20" height="22" viewBox="0 0 20 22" fill="none" xmlns="http://www.w3.org/2000/svg">
<path d="M2.22222 22H17.7778C19.0033 22 20 21.0133 20 19.8V9.90012C20.0001 9.75565 19.9715 9.61258 19.9156 9.47912C19.8597 9.34566 19.7778 9.22444 19.6744 9.12243L10.7856 0.322518C10.6825 0.220279 10.56 0.139168 10.4252 0.0838266C10.2904 0.0284854 10.1459 0 10 0C9.85407 0 9.70958 0.0284854 9.57479 0.0838266C9.43999 0.139168 9.31754 0.220279 9.21444 0.322518L0.325556 9.12243C0.222225 9.22444 0.140271 9.34566 0.0844018 9.47912C0.0285328 9.61258 -0.000150156 9.75565 5.9113e-07 9.90012V19.8C5.9113e-07 21.0133 0.996667 22 2.22222 22ZM7.77778 19.8V14.3001H12.2222V19.8H7.77778ZM2.22222 10.3555L10 2.65559L17.7778 10.3555L17.7789 19.8H14.4444V14.3001C14.4444 13.0868 13.4478 12.1001 12.2222 12.1001H7.77778C6.55222 12.1001 5.55556 13.0868 5.55556 14.3001V19.8H2.22222V10.3555Z" fill="#444444"/>
</svg>
