<svg width="9" height="13" viewBox="0 0 9 13" fill="none" xmlns="http://www.w3.org/2000/svg">
<path d="M4.46196 3.32153C4.13732 3.32153 3.81997 3.4178 3.55005 3.59816C3.28012 3.77852 3.06974 4.03487 2.9455 4.3348C2.82127 4.63473 2.78876 4.96476 2.8521 5.28316C2.91543 5.60156 3.07176 5.89403 3.30131 6.12358C3.53087 6.35314 3.82334 6.50947 4.14174 6.5728C4.46014 6.63613 4.79017 6.60363 5.0901 6.4794C5.39003 6.35516 5.64638 6.14478 5.82674 5.87485C6.0071 5.60492 6.10336 5.28758 6.10336 4.96294C6.10278 4.52779 5.92967 4.11063 5.62197 3.80293C5.31427 3.49523 4.89711 3.32211 4.46196 3.32153ZM4.46196 5.78364C4.29964 5.78364 4.14097 5.7355 4.006 5.64532C3.87104 5.55515 3.76585 5.42697 3.70373 5.27701C3.64161 5.12704 3.62536 4.96203 3.65703 4.80283C3.6887 4.64363 3.76686 4.49739 3.88164 4.38261C3.99641 4.26784 4.14265 4.18967 4.30185 4.158C4.46105 4.12634 4.62607 4.14259 4.77603 4.20471C4.92599 4.26682 5.05417 4.37202 5.14435 4.50698C5.23453 4.64194 5.28266 4.80062 5.28266 4.96294C5.28237 5.18051 5.19581 5.38909 5.04196 5.54294C4.88812 5.69679 4.67954 5.78335 4.46196 5.78364Z" fill="#BDBDBD"/>
<path d="M8.89814 4.49736C8.65576 2.24153 6.76213 0.5 4.46143 0.5C3.65634 0.499884 2.86623 0.717656 2.17488 1.13022C1.48353 1.54279 0.916726 2.13476 0.534572 2.84337C0.152417 3.55198 -0.0308393 4.35081 0.00423637 5.15513C0.039312 5.95946 0.291412 6.7393 0.733802 7.41195L0.723406 7.39499L3.82456 12.1556C3.89352 12.2611 3.98762 12.3478 4.09839 12.4079C4.20917 12.468 4.33314 12.4997 4.45918 12.5C4.58521 12.5003 4.70935 12.4693 4.82043 12.4098C4.93151 12.3502 5.02605 12.264 5.09556 12.1589L5.0972 12.1562L8.19836 7.39553C8.67226 6.67091 8.92353 5.82334 8.92112 4.9575C8.92112 4.79555 8.91237 4.63579 8.89595 4.47821L8.8976 4.49791L8.89814 4.49736ZM7.5117 6.94688L4.46198 11.6287L1.41225 6.94688C0.959734 6.24639 0.760224 5.41228 0.8468 4.58284C0.933376 3.7534 1.30084 2.97847 1.88826 2.38652C2.54701 1.72777 3.45689 1.32015 4.46198 1.32015C5.46706 1.32015 6.37695 1.72777 7.0357 2.38652C7.62312 2.97847 7.99058 3.7534 8.07715 4.58284C8.16373 5.41228 7.96422 6.24639 7.5117 6.94688Z" fill="#BDBDBD"/>
</svg>
