<svg width="67" height="12" viewBox="0 0 67 12" fill="none" xmlns="http://www.w3.org/2000/svg">
<path fill-rule="evenodd" clip-rule="evenodd" d="M50.2697 5.93045C49.702 6.50731 49.4426 7.33727 49.5772 8.15184L49.8263 9.66583L48.5209 8.95102C48.1766 8.76234 47.789 8.66259 47.4002 8.66259C47.0109 8.66259 46.6233 8.76234 46.279 8.95102L44.9736 9.66583L45.2233 8.15184C45.3572 7.33727 45.0979 6.50731 44.5301 5.93045L43.4744 4.85822L44.9337 4.63705C45.7186 4.51849 46.3964 4.00546 46.7475 3.26443L47.4002 1.88667L48.0529 3.26443C48.4035 4.00546 49.0818 4.51849 49.8662 4.63705L51.326 4.85822L50.2697 5.93045Z" fill="#DADADA"/>
<path fill-rule="evenodd" clip-rule="evenodd" d="M52.7875 5.37707C53.3997 4.75517 53.0623 3.67154 52.2158 3.54329L50.0645 3.2178C49.7282 3.16707 49.4375 2.94704 49.2875 2.62953L48.3253 0.599099C48.1361 0.19951 47.7679 0 47.4002 0C47.0319 0 46.6637 0.19951 46.4745 0.599099L45.5128 2.62953C45.3623 2.94704 45.0716 3.16707 44.7359 3.2178L42.5846 3.54329C41.7381 3.67154 41.4001 4.75517 42.0123 5.37707L43.569 6.95775C43.8124 7.20457 43.9236 7.56027 43.866 7.90913L43.4983 10.1414C43.3838 10.8362 43.9139 11.4005 44.5153 11.4005C44.6737 11.4005 44.8379 11.3612 44.9958 11.2746L46.9197 10.2206C47.0701 10.1385 47.2349 10.0969 47.4002 10.0969C47.5649 10.0969 47.7297 10.1385 47.8801 10.2206L49.8046 11.2746C49.9625 11.3612 50.1261 11.4005 50.2845 11.4005C50.8859 11.4005 51.416 10.8362 51.3014 10.1414L50.9344 7.90913C50.8768 7.56027 50.9874 7.20457 51.2308 6.95775L52.7875 5.37707Z" fill="#F7D852"/>
<path fill-rule="evenodd" clip-rule="evenodd" d="M64.1695 5.93045C63.6018 6.50731 63.3424 7.33727 63.4769 8.15184L63.726 9.66583L62.4207 8.95102C62.0764 8.76234 61.6887 8.66259 61.3 8.66259C60.9107 8.66259 60.523 8.76234 60.1787 8.95102L58.8734 9.66583L59.123 8.15184C59.257 7.33727 58.9976 6.50731 58.4299 5.93045L57.3742 4.85822L58.8335 4.63705C59.6184 4.51849 60.2962 4.00546 60.6473 3.26443L61.3 1.88667L61.9527 3.26443C62.3032 4.00546 62.9816 4.51849 63.7659 4.63705L65.2258 4.85822L64.1695 5.93045Z" fill="#DADADA"/>
<path fill-rule="evenodd" clip-rule="evenodd" d="M66.6873 5.37707C67.2995 4.75517 66.962 3.67154 66.1156 3.54329L63.9643 3.2178C63.628 3.16707 63.3372 2.94704 63.1873 2.62953L62.2251 0.599098C62.0359 0.199509 61.6676 0 61.3 0C60.9317 0 60.5635 0.199509 60.3742 0.599098L59.4126 2.62953C59.2621 2.94704 58.9714 3.16707 58.6357 3.2178L56.4844 3.54329C55.6379 3.67154 55.2999 4.75517 55.9121 5.37707L57.4688 6.95775C57.7122 7.20457 57.8234 7.56027 57.7658 7.90913L57.3981 10.1414C57.2836 10.8362 57.8137 11.4005 58.4151 11.4005C58.5735 11.4005 58.7377 11.3612 58.8956 11.2746L60.8194 10.2206C60.9699 10.1385 61.1347 10.0969 61.3 10.0969C61.4647 10.0969 61.6294 10.1385 61.7799 10.2206L63.7043 11.2746C63.8622 11.3612 64.0258 11.4005 64.1843 11.4005C64.7857 11.4005 65.3158 10.8362 65.2012 10.1414L64.8341 7.90913C64.7766 7.56027 64.8871 7.20457 65.1305 6.95775L66.6873 5.37707Z" fill="#E0E0E0"/>
<path fill-rule="evenodd" clip-rule="evenodd" d="M9.53105 6.95775C9.28765 7.20457 9.17707 7.56027 9.23407 7.90913L9.60174 10.1414C9.71631 10.8362 9.18619 11.4005 8.58481 11.4005C8.42634 11.4005 8.26274 11.3612 8.10428 11.2746L6.18043 10.2206C6.02995 10.1385 5.86521 10.0975 5.6999 10.0975C5.53516 10.0975 5.37043 10.1385 5.21994 10.2206L3.2961 11.2746C3.13763 11.3612 2.97403 11.4005 2.81556 11.4005C2.21419 11.4005 1.68406 10.8362 1.79864 10.1414L2.1663 7.90913C2.22331 7.56027 2.11272 7.20457 1.86932 6.95775L0.312575 5.37707C-0.299634 4.75517 0.0383919 3.67154 0.884312 3.54329L3.03559 3.2178C3.37191 3.16707 3.66262 2.94704 3.81254 2.62953L4.77475 0.599099C4.964 0.19951 5.33223 0 5.6999 0C6.06814 0 6.43638 0.19951 6.62563 0.599099L7.58783 2.62953C7.73775 2.94704 8.02846 3.16707 8.36478 3.2178L10.5161 3.54329C11.362 3.67154 11.7 4.75517 11.0878 5.37707L9.53105 6.95775Z" fill="#F7D852"/>
<path fill-rule="evenodd" clip-rule="evenodd" d="M23.4309 6.95775C23.1875 7.20457 23.0769 7.56027 23.1339 7.90913L23.5016 10.1414C23.6162 10.8362 23.0861 11.4005 22.4847 11.4005C22.3262 11.4005 22.1626 11.3612 22.0041 11.2746L20.0803 10.2206C19.9298 10.1385 19.7651 10.0975 19.5998 10.0975C19.435 10.0975 19.2703 10.1385 19.1198 10.2206L17.196 11.2746C17.0375 11.3612 16.8739 11.4005 16.7154 11.4005C16.1141 11.4005 15.5839 10.8362 15.6985 10.1414L16.0662 7.90913C16.1232 7.56027 16.0126 7.20457 15.7692 6.95775L14.2124 5.37707C13.6002 4.75517 13.9383 3.67154 14.7842 3.54329L16.9355 3.2178C17.2718 3.16707 17.5625 2.94704 17.7124 2.62953L18.6746 0.599099C18.8639 0.19951 19.2321 0 19.5998 0C19.968 0 20.3362 0.19951 20.5255 0.599099L21.4877 2.62953C21.6376 2.94704 21.9283 3.16707 22.2646 3.2178L24.4159 3.54329C25.2619 3.67154 25.5999 4.75517 24.9877 5.37707L23.4309 6.95775Z" fill="#F7D852"/>
<path fill-rule="evenodd" clip-rule="evenodd" d="M37.4624 6.95775C37.219 7.20457 37.1084 7.56027 37.1654 7.90913L37.5331 10.1414C37.6476 10.8362 37.1175 11.4005 36.5161 11.4005C36.3577 11.4005 36.1941 11.3612 36.0356 11.2746L34.1118 10.2206C33.9613 10.1385 33.7965 10.0975 33.6312 10.0975C33.4665 10.0975 33.3017 10.1385 33.1513 10.2206L31.2274 11.2746C31.0689 11.3612 30.9054 11.4005 30.7469 11.4005C30.1455 11.4005 29.6154 10.8362 29.73 10.1414L30.0976 7.90913C30.1546 7.56027 30.044 7.20457 29.8006 6.95775L28.2439 5.37707C27.6317 4.75517 27.9697 3.67154 28.8156 3.54329L30.9669 3.2178C31.3032 3.16707 31.5939 2.94704 31.7439 2.62953L32.7061 0.599099C32.8953 0.19951 33.2636 0 33.6312 0C33.9995 0 34.3677 0.19951 34.5569 0.599099L35.5192 2.62953C35.6691 2.94704 35.9598 3.16707 36.2961 3.2178L38.4474 3.54329C39.2933 3.67154 39.6313 4.75517 39.0191 5.37707L37.4624 6.95775Z" fill="#F7D852"/>
</svg>
