<svg width="28" height="28" viewBox="0 0 28 28" fill="none" xmlns="http://www.w3.org/2000/svg">
<path fill-rule="evenodd" clip-rule="evenodd" d="M11.4542 20.3638C6.4907 20.3638 2.54579 16.419 2.54579 11.4555C2.54579 6.49065 6.4907 2.54579 11.4542 2.54579C16.4178 2.54579 20.3627 6.49065 20.3627 11.4555C20.3627 16.419 16.4178 20.3638 11.4542 20.3638M27.6185 25.836L20.3627 18.5817C21.8914 16.6726 22.9086 14.1282 22.9086 11.4556C22.9086 5.09168 17.8183 0 11.4543 0C5.09033 0 0 5.09168 0 11.4556C0 17.8181 5.09033 22.9097 11.4543 22.9097C14.127 22.9097 16.6728 22.0179 18.5819 20.3639L25.8363 27.6182C26.0913 27.8732 26.4731 28 26.7267 28C26.9817 28 27.3635 27.8732 27.6185 27.6182C28.1272 27.1096 28.1272 26.346 27.6185 25.836" fill="#F2994A"/>
</svg>
