<svg width="11" height="10" viewBox="0 0 11 10" fill="none" xmlns="http://www.w3.org/2000/svg">
<g clip-path="url(#clip0)">
<path fill-rule="evenodd" clip-rule="evenodd" d="M1.50654 5.01748L8.8885 8.16041L9.72539 1.14919L1.50654 5.01748ZM9.06281 8.64839C9.03376 8.64839 9.00491 8.64247 8.97794 8.63121L0.934648 5.20667C0.861397 5.17546 0.813462 5.10654 0.811802 5.03012C0.810349 4.95369 0.855379 4.88319 0.927385 4.84922L9.88268 0.634746C9.95054 0.602754 10.0317 0.608481 10.0939 0.65015C10.1562 0.691621 10.1894 0.762123 10.1809 0.834006L9.26887 8.47323C9.2614 8.53563 9.22301 8.59132 9.16553 8.62233C9.13378 8.63971 9.09829 8.64839 9.06281 8.64839Z" fill="white"/>
<path d="M1.50654 5.01748L1.44267 4.88176L1.13974 5.02434L1.44778 5.15549L1.50654 5.01748ZM8.8885 8.16041L8.82974 8.29843L9.01374 8.37677L9.03744 8.17819L8.8885 8.16041ZM9.72539 1.14919L9.87433 1.16697L9.90641 0.898204L9.66151 1.01347L9.72539 1.14919ZM8.97794 8.63121L8.91918 8.76923L8.92017 8.76964L8.97794 8.63121ZM0.934648 5.20667L0.875864 5.34467L0.875887 5.34468L0.934648 5.20667ZM0.811802 5.03012L0.661828 5.03297L0.661837 5.03337L0.811802 5.03012ZM0.927385 4.84922L0.863512 4.7135L0.863389 4.71356L0.927385 4.84922ZM9.88268 0.634746L9.94655 0.770468L9.94665 0.770423L9.88268 0.634746ZM10.0939 0.65015L10.0105 0.774804L10.0108 0.774986L10.0939 0.65015ZM10.1809 0.834006L10.3298 0.851788L10.3298 0.851637L10.1809 0.834006ZM9.26887 8.47323L9.4178 8.49106L9.41781 8.49101L9.26887 8.47323ZM9.16553 8.62233L9.09432 8.49031L9.0935 8.49075L9.16553 8.62233ZM1.44778 5.15549L8.82974 8.29843L8.94726 8.0224L1.5653 4.87947L1.44778 5.15549ZM9.03744 8.17819L9.87433 1.16697L9.57645 1.13141L8.73956 8.14264L9.03744 8.17819ZM9.66151 1.01347L1.44267 4.88176L1.57042 5.1532L9.78927 1.28491L9.66151 1.01347ZM9.06281 8.49839C9.05416 8.49839 9.04491 8.49662 9.0357 8.49278L8.92017 8.76964C8.96492 8.78832 9.01336 8.79839 9.06281 8.79839V8.49839ZM9.0367 8.4932L0.993408 5.06866L0.875887 5.34468L8.91918 8.76923L9.0367 8.4932ZM0.993431 5.06867C0.971546 5.05934 0.96208 5.04131 0.961766 5.02686L0.661837 5.03337C0.664843 5.17178 0.751247 5.29159 0.875864 5.34467L0.993431 5.06867ZM0.961775 5.02727C0.961503 5.01298 0.969981 4.99498 0.991381 4.98489L0.863389 4.71356C0.740777 4.7714 0.659195 4.8944 0.661829 5.03297L0.961775 5.02727ZM0.991257 4.98495L9.94655 0.770468L9.81881 0.499025L0.863512 4.7135L0.991257 4.98495ZM9.94665 0.770423C9.96737 0.760656 9.9925 0.762763 10.0105 0.774803L10.1774 0.525497C10.0708 0.4542 9.93371 0.444853 9.81871 0.49907L9.94665 0.770423ZM10.0108 0.774986C10.0277 0.786274 10.0335 0.802578 10.0319 0.816376L10.3298 0.851637C10.3452 0.721668 10.2847 0.596969 10.1771 0.525314L10.0108 0.774986ZM10.0319 0.816225L9.11992 8.45545L9.41781 8.49101L10.3298 0.851788L10.0319 0.816225ZM9.11993 8.4554C9.11846 8.46765 9.11041 8.48163 9.09432 8.49031L9.23674 8.75435C9.33561 8.70102 9.40433 8.60362 9.4178 8.49106L9.11993 8.4554ZM9.0935 8.49075C9.08456 8.49564 9.07396 8.49839 9.06281 8.49839V8.79839C9.12263 8.79839 9.183 8.78377 9.23755 8.75391L9.0935 8.49075Z" fill="white"/>
<path fill-rule="evenodd" clip-rule="evenodd" d="M4.71337 9.88174C4.69449 9.88174 4.6754 9.87917 4.65652 9.87424C4.56666 9.84975 4.50524 9.77135 4.50586 9.68268L4.5318 6.52295C4.53222 6.47576 4.55048 6.43034 4.58306 6.39479L9.81521 0.682405C9.89075 0.600253 10.0219 0.591761 10.1082 0.66325C10.1945 0.735133 10.2035 0.859745 10.1281 0.941898L4.94641 6.59918L4.92669 8.97233L6.07007 7.18887C6.13004 7.09565 6.25766 7.06623 6.3554 7.1231C6.45314 7.17978 6.48406 7.30163 6.42429 7.39445L4.89059 9.78714C4.8522 9.84698 4.78434 9.88174 4.71337 9.88174Z" fill="white"/>
<path d="M4.71337 9.88174C4.69449 9.88174 4.6754 9.87917 4.65652 9.87424C4.56666 9.84975 4.50524 9.77135 4.50586 9.68268L4.5318 6.52295C4.53222 6.47576 4.55048 6.43034 4.58306 6.39479L9.81521 0.682405C9.89075 0.600253 10.0219 0.591761 10.1082 0.66325C10.1945 0.735133 10.2035 0.859745 10.1281 0.941898L4.94641 6.59918L4.92669 8.97233L6.07007 7.18887C6.13004 7.09565 6.25766 7.06623 6.3554 7.1231C6.45314 7.17978 6.48406 7.30163 6.42429 7.39445L4.89059 9.78714C4.8522 9.84698 4.78434 9.88174 4.71337 9.88174" stroke="white" stroke-width="0.3"/>
</g>
<defs>
<clipPath id="clip0">
<rect width="10" height="10" fill="white" transform="translate(0.811768)"/>
</clipPath>
</defs>
</svg>
