<svg width="20" height="22" viewBox="0 0 20 22" fill="none" xmlns="http://www.w3.org/2000/svg">
<path d="M19.6749 13.6649L18.1398 12.3524C18.2124 11.9071 18.2499 11.4524 18.2499 10.9977C18.2499 10.543 18.2124 10.0883 18.1398 9.64301L19.6749 8.33051C19.7907 8.23138 19.8736 8.09936 19.9125 7.95199C19.9515 7.80462 19.9446 7.64889 19.8929 7.50551L19.8718 7.44457C19.4492 6.26338 18.8163 5.1684 18.0038 4.21254L17.9617 4.16332C17.8631 4.04742 17.7317 3.96411 17.5849 3.92437C17.438 3.88462 17.2826 3.8903 17.139 3.94066L15.2335 4.61801C14.5304 4.04144 13.7452 3.58676 12.8968 3.26801L12.5288 1.27582C12.5011 1.12592 12.4284 0.988011 12.3204 0.880422C12.2123 0.772833 12.0742 0.700654 11.9241 0.673474L11.8609 0.661755C10.6398 0.441443 9.3554 0.441443 8.13431 0.661755L8.07103 0.673474C7.92102 0.700654 7.78283 0.772833 7.67482 0.880422C7.56681 0.988011 7.4941 1.12592 7.46634 1.27582L7.09603 3.27738C6.25436 3.5962 5.47056 4.05064 4.77571 4.62269L2.85618 3.94066C2.71266 3.8899 2.5571 3.88401 2.41015 3.92379C2.26321 3.96356 2.13185 4.0471 2.03353 4.16332L1.99134 4.21254C1.17981 5.16908 0.547063 6.26387 0.123369 7.44457L0.102275 7.50551C-0.00319353 7.79847 0.0835253 8.1266 0.320244 8.33051L1.87415 9.65707C1.80149 10.0977 1.76634 10.5477 1.76634 10.9953C1.76634 11.4453 1.80149 11.8953 1.87415 12.3336L0.320244 13.6602C0.204453 13.7593 0.121579 13.8913 0.082644 14.0387C0.0437085 14.1861 0.0505557 14.3418 0.102275 14.4852L0.123369 14.5461C0.547588 15.7274 1.17571 16.8172 1.99134 17.7782L2.03353 17.8274C2.13209 17.9433 2.26346 18.0266 2.41031 18.0663C2.55717 18.1061 2.71262 18.1004 2.85618 18.05L4.77571 17.368C5.47415 17.9422 6.25462 18.3969 7.09603 18.7133L7.46634 20.7149C7.4941 20.8648 7.56681 21.0027 7.67482 21.1103C7.78283 21.2179 7.92102 21.29 8.07103 21.3172L8.13431 21.3289C9.36662 21.5504 10.6286 21.5504 11.8609 21.3289L11.9241 21.3172C12.0742 21.29 12.2123 21.2179 12.3204 21.1103C12.4284 21.0027 12.5011 20.8648 12.5288 20.7149L12.8968 18.7227C13.7449 18.4048 14.5345 17.9486 15.2335 17.3727L17.139 18.05C17.2825 18.1008 17.4381 18.1067 17.585 18.0669C17.732 18.0271 17.8633 17.9436 17.9617 17.8274L18.0038 17.7782C18.8195 16.8149 19.4476 15.7274 19.8718 14.5461L19.8929 14.4852C19.9984 14.1969 19.9116 13.8688 19.6749 13.6649ZM16.4757 9.91957C16.5343 10.2735 16.5648 10.6368 16.5648 11C16.5648 11.3633 16.5343 11.7266 16.4757 12.0805L16.321 13.0203L18.0718 14.518C17.8064 15.1295 17.4714 15.7083 17.0734 16.243L14.8984 15.4719L14.1624 16.0766C13.6023 16.536 12.9788 16.8969 12.3038 17.15L11.4109 17.4852L10.9913 19.7586C10.3294 19.8336 9.66109 19.8336 8.99915 19.7586L8.57962 17.4805L7.69368 17.1407C7.02571 16.8875 6.40462 16.5266 5.84915 16.0696L5.11321 15.4625L2.92415 16.2407C2.52571 15.7039 2.1929 15.125 1.92571 14.5157L3.69524 13.0039L3.5429 12.0664C3.48665 11.7172 3.45618 11.3563 3.45618 11C3.45618 10.6414 3.48431 10.2828 3.5429 9.93363L3.69524 8.99613L1.92571 7.48441C2.19056 6.87269 2.52571 6.29613 2.92415 5.75941L5.11321 6.53754L5.84915 5.93051C6.40462 5.47347 7.02571 5.11254 7.69368 4.85941L8.58196 4.52426L9.00149 2.24613C9.66009 2.17113 10.3327 2.17113 10.9937 2.24613L11.4132 4.51957L12.3062 4.85472C12.9788 5.10785 13.6046 5.46879 14.1648 5.92816L14.9007 6.53285L17.0757 5.76175C17.4742 6.29847 17.807 6.87738 18.0742 7.48676L16.3234 8.98441L16.4757 9.91957ZM9.99993 6.64066C7.72181 6.64066 5.87493 8.48754 5.87493 10.7657C5.87493 13.0438 7.72181 14.8907 9.99993 14.8907C12.2781 14.8907 14.1249 13.0438 14.1249 10.7657C14.1249 8.48754 12.2781 6.64066 9.99993 6.64066ZM11.8562 12.6219C11.6127 12.8661 11.3234 13.0597 11.0048 13.1916C10.6862 13.3236 10.3447 13.3912 9.99993 13.3907C9.29915 13.3907 8.64056 13.1164 8.14368 12.6219C7.89952 12.3784 7.7059 12.0891 7.57397 11.7705C7.44204 11.452 7.37439 11.1105 7.37493 10.7657C7.37493 10.0649 7.64915 9.40629 8.14368 8.90941C8.64056 8.41254 9.29915 8.14066 9.99993 8.14066C10.7007 8.14066 11.3593 8.41254 11.8562 8.90941C12.1003 9.15288 12.294 9.44221 12.4259 9.76078C12.5578 10.0793 12.6255 10.4209 12.6249 10.7657C12.6249 11.4664 12.3507 12.125 11.8562 12.6219Z" fill="#444444"/>
</svg>
