<svg width="29" height="22" viewBox="0 0 29 22" fill="none" xmlns="http://www.w3.org/2000/svg">
<path d="M19.3321 10.6327C18.09 10.6327 16.889 10.0781 15.9489 9.07164C15.0349 8.08992 14.4767 6.78077 14.3782 5.38643C14.2731 3.89906 14.7268 2.53131 15.6553 1.53449C16.5839 0.537677 17.8821 0 19.3321 0C20.7717 0 22.0736 0.547343 22.9991 1.54174C23.9337 2.54581 24.3886 3.91115 24.2835 5.38583C24.1826 6.78198 23.625 8.09053 22.7128 9.07103C21.7752 10.0781 20.5748 10.6327 19.3321 10.6327Z" fill="#444444"/>
<path d="M27.2974 21.2654H11.3695C11.1134 21.2668 10.8604 21.2094 10.63 21.0976C10.3996 20.9859 10.1979 20.8228 10.0404 20.6208C9.87335 20.4019 9.758 20.148 9.70296 19.8782C9.64793 19.6084 9.65465 19.3296 9.72262 19.0628C10.2313 17.0202 11.4915 15.3262 13.3667 14.1645C15.0311 13.1338 17.1498 12.5659 19.3331 12.5659C21.5594 12.5659 23.6225 13.1097 25.2965 14.1397C27.176 15.2954 28.438 16.999 28.9443 19.0664C29.0114 19.3334 29.0174 19.6122 28.9617 19.8819C28.9061 20.1516 28.7902 20.4052 28.6229 20.6238C28.4655 20.8248 28.2643 20.9872 28.0346 21.0984C27.8048 21.2096 27.5526 21.2667 27.2974 21.2654Z" fill="#444444"/>
<path d="M7.91447 10.8744C5.78853 10.8744 3.91935 8.89765 3.74596 6.46844C3.66018 5.22393 4.04803 4.07306 4.8334 3.22909C5.61031 2.39358 6.70621 1.93323 7.91447 1.93323C9.12273 1.93323 10.2102 2.39599 10.9913 3.23634C11.7827 4.08696 12.1694 5.23541 12.0787 6.46965C11.9054 8.89826 10.0368 10.8744 7.91447 10.8744Z" fill="#444444"/>
<path d="M11.8808 12.7743C10.8181 12.2548 9.43888 11.995 7.91465 11.995C6.13488 11.995 4.40647 12.459 3.04717 13.3011C1.50603 14.2575 0.469341 15.65 0.0506783 17.3313C-0.0105896 17.5731 -0.0163845 17.8257 0.0337272 18.0701C0.0838389 18.3145 0.18856 18.5444 0.340057 18.7426C0.483809 18.9271 0.66797 19.0762 0.878378 19.1784C1.08879 19.2806 1.31984 19.3332 1.55376 19.3322H8.25961C8.3728 19.3322 8.48239 19.2924 8.56927 19.2199C8.65616 19.1474 8.71483 19.0466 8.73506 18.9353C8.74171 18.8972 8.75017 18.8591 8.75983 18.8217C9.27214 16.764 10.4725 15.0253 12.2463 13.7579C12.3115 13.7108 12.364 13.6483 12.3989 13.5759C12.4339 13.5034 12.4502 13.4234 12.4464 13.3431C12.4427 13.2628 12.4189 13.1846 12.3773 13.1158C12.3357 13.047 12.2776 12.9896 12.2082 12.9489C12.1134 12.8934 12.0046 12.8348 11.8808 12.7743Z" fill="#444444"/>
</svg>
