<svg width="15" height="16" viewBox="0 0 15 16" fill="none" xmlns="http://www.w3.org/2000/svg">
<path d="M14.5152 5.63406L10.0185 4.90408L8.00833 0.352135C7.95343 0.227506 7.8631 0.126615 7.75153 0.0652895C7.4717 -0.0890138 7.13166 0.0395723 6.99174 0.352135L4.9816 4.90408L0.484887 5.63406C0.360913 5.65384 0.247566 5.71912 0.160784 5.81803C0.0558699 5.93848 -0.00194268 6.10053 4.9848e-05 6.26856C0.00204238 6.4366 0.063677 6.59688 0.17141 6.71418L3.42484 10.2572L2.6562 15.2602C2.63818 15.3766 2.64971 15.4963 2.68948 15.6057C2.72926 15.7151 2.79569 15.8099 2.88125 15.8793C2.9668 15.9488 3.06805 15.99 3.17353 15.9984C3.279 16.0068 3.38446 15.982 3.47797 15.9269L7.50004 13.5648L11.5221 15.9269C11.6319 15.9922 11.7594 16.0139 11.8816 15.9902C12.1898 15.9308 12.397 15.6044 12.3439 15.2602L11.5752 10.2572L14.8287 6.71418C14.9172 6.61724 14.9757 6.49064 14.9934 6.35216C15.0412 6.00597 14.8251 5.68549 14.5152 5.63406Z" fill="#F7D852"/>
</svg>
