<svg width="180" height="155" viewBox="0 0 180 155" fill="none" xmlns="http://www.w3.org/2000/svg">
<rect x="1" y="1" width="178" height="152.539" rx="5" stroke="#4DA1FF" stroke-width="1.4"/>
<rect x="1" y="1" width="178" height="152.539" rx="5" stroke="#4DA1FF" stroke-opacity="0.07" stroke-width="1.4"/>
<g clip-path="url(#clip0)">
<g opacity="0.9">
<path fill-rule="evenodd" clip-rule="evenodd" d="M63.7273 99H116.091C118.797 99 121 96.8054 121 94.1087V45.1957C121 44.762 120.828 44.3478 120.521 44.0429L100.884 24.4777C100.578 24.1712 100.161 24 99.7273 24H63.7273C61.0207 24 58.8182 26.1946 58.8182 28.8913V58.2391H62.0909V28.8913C62.0909 27.9913 62.8256 27.2609 63.7273 27.2609H98.9909C98.4938 27.2609 98.0909 27.6638 98.0909 28.1609V45.1957C98.0909 46.0973 98.824 46.8261 99.7273 46.8261H117.727V94.1087C117.727 95.0087 116.993 95.7391 116.091 95.7391H63.7273C62.8256 95.7391 62.0909 95.0087 62.0909 94.1087V79.8043H58.8182V94.1087C58.8182 96.8054 61.0207 99 63.7273 99ZM115.413 43.5652L101.364 29.5663V43.5652H115.413Z" fill="#2E92FF"/>
<path d="M120.521 44.0429L119.885 44.6805L119.887 44.6822L120.521 44.0429ZM100.884 24.4777L100.247 25.1136L100.249 25.1153L100.884 24.4777ZM58.8182 58.2391H57.9182V59.1391H58.8182V58.2391ZM62.0909 58.2391V59.1391H62.9909V58.2391H62.0909ZM117.727 46.8261H118.627V45.9261H117.727V46.8261ZM62.0909 79.8043H62.9909V78.9043H62.0909V79.8043ZM58.8182 79.8043V78.9043H57.9182V79.8043H58.8182ZM115.413 43.5652V44.4652H117.592L116.049 42.9277L115.413 43.5652ZM101.364 29.5663L101.999 28.9288L100.464 27.3991V29.5663H101.364ZM101.364 43.5652H100.464V44.4652H101.364V43.5652ZM116.091 98.1H63.7273V99.9H116.091V98.1ZM120.1 94.1087C120.1 96.3053 118.303 98.1 116.091 98.1V99.9C119.291 99.9 121.9 97.3056 121.9 94.1087H120.1ZM120.1 45.1957V94.1087H121.9V45.1957H120.1ZM119.887 44.6822C120.023 44.8171 120.1 45.0007 120.1 45.1957H121.9C121.9 44.5232 121.633 43.8785 121.154 43.4037L119.887 44.6822ZM100.249 25.1153L119.885 44.6805L121.156 43.4054L101.519 23.8402L100.249 25.1153ZM99.7273 24.9C99.9247 24.9 100.112 24.9781 100.247 25.1136L101.521 23.8419C101.044 23.3643 100.397 23.1 99.7273 23.1V24.9ZM63.7273 24.9H99.7273V23.1H63.7273V24.9ZM59.7182 28.8913C59.7182 26.6947 61.5147 24.9 63.7273 24.9V23.1C60.5267 23.1 57.9182 25.6944 57.9182 28.8913H59.7182ZM59.7182 58.2391V28.8913H57.9182V58.2391H59.7182ZM62.0909 57.3391H58.8182V59.1391H62.0909V57.3391ZM61.1909 28.8913V58.2391H62.9909V28.8913H61.1909ZM63.7273 26.3609C62.3322 26.3609 61.1909 27.4906 61.1909 28.8913H62.9909C62.9909 28.492 63.319 28.1609 63.7273 28.1609V26.3609ZM98.9909 26.3609H63.7273V28.1609H98.9909V26.3609ZM98.9909 28.1609V28.1609V26.3609C97.9968 26.3609 97.1909 27.1668 97.1909 28.1609H98.9909ZM98.9909 45.1957V28.1609H97.1909V45.1957H98.9909ZM99.7273 45.9261C99.3174 45.9261 98.9909 45.5966 98.9909 45.1957H97.1909C97.1909 46.598 98.3306 47.7261 99.7273 47.7261V45.9261ZM117.727 45.9261H99.7273V47.7261H117.727V45.9261ZM118.627 94.1087V46.8261H116.827V94.1087H118.627ZM116.091 96.6391C117.486 96.6391 118.627 95.5094 118.627 94.1087H116.827C116.827 94.508 116.499 94.8391 116.091 94.8391V96.6391ZM63.7273 96.6391H116.091V94.8391H63.7273V96.6391ZM61.1909 94.1087C61.1909 95.5094 62.3322 96.6391 63.7273 96.6391V94.8391C63.319 94.8391 62.9909 94.508 62.9909 94.1087H61.1909ZM61.1909 79.8043V94.1087H62.9909V79.8043H61.1909ZM58.8182 80.7043H62.0909V78.9043H58.8182V80.7043ZM59.7182 94.1087V79.8043H57.9182V94.1087H59.7182ZM63.7273 98.1C61.5147 98.1 59.7182 96.3053 59.7182 94.1087H57.9182C57.9182 97.3056 60.5267 99.9 63.7273 99.9V98.1ZM116.049 42.9277L101.999 28.9288L100.728 30.2039L114.778 44.2028L116.049 42.9277ZM100.464 29.5663V43.5652H102.264V29.5663H100.464ZM101.364 44.4652H115.413V42.6652H101.364V44.4652Z" fill="white"/>
</g>
<path fill-rule="evenodd" clip-rule="evenodd" d="M59.4444 81.0652H108.556C109.353 81.0652 110 80.3364 110 79.4348V58.2391C110 57.3375 109.353 56.6087 108.556 56.6087H59.4444C58.6471 56.6087 58 57.3375 58 58.2391V79.4348C58 80.3364 58.6471 81.0652 59.4444 81.0652Z" fill="#2E92FF" fill-opacity="0.1"/>
<path d="M108.556 80.1652H59.4444V81.9652H108.556V80.1652ZM109.1 79.4348C109.1 79.9443 108.757 80.1652 108.556 80.1652V81.9652C109.949 81.9652 110.9 80.7285 110.9 79.4348H109.1ZM109.1 58.2391V79.4348H110.9V58.2391H109.1ZM108.556 57.5087C108.757 57.5087 109.1 57.7296 109.1 58.2391H110.9C110.9 56.9454 109.949 55.7087 108.556 55.7087V57.5087ZM59.4444 57.5087H108.556V55.7087H59.4444V57.5087ZM58.9 58.2391C58.9 57.7296 59.243 57.5087 59.4444 57.5087V55.7087C58.0512 55.7087 57.1 56.9454 57.1 58.2391H58.9ZM58.9 79.4348V58.2391H57.1V79.4348H58.9ZM59.4444 80.1652C59.243 80.1652 58.9 79.9443 58.9 79.4348H57.1C57.1 80.7285 58.0512 81.9652 59.4444 81.9652V80.1652Z" fill="white"/>
<path d="M71.944 71.992C71.7893 71.992 71.6693 71.952 71.584 71.872C71.504 71.7867 71.464 71.6667 71.464 71.512V71.376C71.464 71.2213 71.504 71.104 71.584 71.024C71.6693 70.9387 71.7893 70.896 71.944 70.896H72.048C72.2027 70.896 72.32 70.9387 72.4 71.024C72.4853 71.104 72.528 71.2213 72.528 71.376V71.512C72.528 71.6667 72.4853 71.7867 72.4 71.872C72.32 71.952 72.2027 71.992 72.048 71.992H71.944ZM76.0649 66.4C76.5662 66.4 76.9956 66.5253 77.3529 66.776C77.7156 67.0213 77.9902 67.3573 78.1769 67.784C78.3689 68.2053 78.4649 68.6773 78.4649 69.2C78.4649 69.7227 78.3689 70.1973 78.1769 70.624C77.9902 71.0453 77.7156 71.3813 77.3529 71.632C76.9956 71.8773 76.5662 72 76.0649 72H74.1529C74.0142 72 73.8969 71.9547 73.8009 71.864C73.7102 71.768 73.6649 71.6507 73.6649 71.512V66.888C73.6649 66.7493 73.7102 66.6347 73.8009 66.544C73.8969 66.448 74.0142 66.4 74.1529 66.4H76.0649ZM75.9849 71.08C76.4649 71.08 76.8249 70.904 77.0649 70.552C77.3049 70.1947 77.4249 69.744 77.4249 69.2C77.4249 68.656 77.3022 68.208 77.0569 67.856C76.8169 67.4987 76.4596 67.32 75.9849 67.32H74.6649V71.08H75.9849ZM84.6084 69.2C84.6084 69.728 84.4911 70.2133 84.2564 70.656C84.0217 71.0933 83.6964 71.44 83.2804 71.696C82.8697 71.952 82.4057 72.08 81.8884 72.08C81.3711 72.08 80.9044 71.952 80.4884 71.696C80.0777 71.44 79.7551 71.0933 79.5204 70.656C79.2911 70.2133 79.1764 69.728 79.1764 69.2C79.1764 68.672 79.2911 68.1893 79.5204 67.752C79.7551 67.3093 80.0777 66.96 80.4884 66.704C80.9044 66.448 81.3711 66.32 81.8884 66.32C82.4057 66.32 82.8697 66.448 83.2804 66.704C83.6964 66.96 84.0217 67.3093 84.2564 67.752C84.4911 68.1893 84.6084 68.672 84.6084 69.2ZM83.5684 69.2C83.5684 68.8427 83.4964 68.52 83.3524 68.232C83.2084 67.9387 83.0084 67.7067 82.7524 67.536C82.4964 67.3653 82.2084 67.28 81.8884 67.28C81.5631 67.28 81.2724 67.3653 81.0164 67.536C80.7657 67.7013 80.5684 67.9307 80.4244 68.224C80.2857 68.5173 80.2164 68.8427 80.2164 69.2C80.2164 69.5573 80.2857 69.8827 80.4244 70.176C80.5684 70.4693 80.7657 70.7013 81.0164 70.872C81.2724 71.0373 81.5631 71.12 81.8884 71.12C82.2084 71.12 82.4964 71.0347 82.7524 70.864C83.0084 70.6933 83.2084 70.464 83.3524 70.176C83.4964 69.8827 83.5684 69.5573 83.5684 69.2ZM89.5194 66.672C89.6848 66.7573 89.7674 66.8933 89.7674 67.08C89.7674 67.192 89.7274 67.3013 89.6474 67.408C89.5621 67.52 89.4528 67.576 89.3194 67.576C89.2288 67.576 89.1381 67.552 89.0474 67.504C88.7861 67.3813 88.5034 67.32 88.1994 67.32C87.8261 67.32 87.5008 67.4 87.2234 67.56C86.9461 67.7147 86.7328 67.936 86.5834 68.224C86.4341 68.5067 86.3594 68.832 86.3594 69.2C86.3594 69.8293 86.5274 70.3067 86.8634 70.632C87.2048 70.9573 87.6501 71.12 88.1994 71.12C88.5248 71.12 88.8074 71.0587 89.0474 70.936C89.1434 70.8933 89.2288 70.872 89.3034 70.872C89.4421 70.872 89.5594 70.9307 89.6554 71.048C89.7354 71.1493 89.7754 71.2587 89.7754 71.376C89.7754 71.4613 89.7541 71.5387 89.7114 71.608C89.6688 71.6773 89.6074 71.7307 89.5274 71.768C89.1114 71.976 88.6688 72.08 88.1994 72.08C87.6768 72.08 87.1968 71.9707 86.7594 71.752C86.3221 71.528 85.9728 71.2 85.7114 70.768C85.4501 70.336 85.3194 69.8133 85.3194 69.2C85.3194 68.656 85.4421 68.168 85.6874 67.736C85.9381 67.304 86.2821 66.968 86.7194 66.728C87.1568 66.4827 87.6501 66.36 88.1994 66.36C88.6741 66.36 89.1141 66.464 89.5194 66.672Z" fill="#278CFD"/>
</g>
<defs>
<clipPath id="clip0">
<rect width="63" height="75" fill="white" transform="translate(58 24)"/>
</clipPath>
</defs>
</svg>
