<svg width="17" height="15" viewBox="0 0 17 15" fill="none" xmlns="http://www.w3.org/2000/svg">
<path fill-rule="evenodd" clip-rule="evenodd" d="M12.4243 8.42372L8.38489 12.4817L4.3455 8.42372L2.3262 6.39511C1.24429 5.23522 1.24429 3.42399 2.3262 2.3371C3.40811 1.17721 5.21103 1.17721 6.3656 2.3371L8.38489 4.3657L10.405 2.3371C11.4869 1.17721 13.2898 1.17721 14.4436 2.3371C15.5255 3.49619 15.5255 5.30822 14.4436 6.39511L12.4243 8.42372ZM15.3819 1.25013C13.7227 -0.416711 10.9816 -0.416711 9.32318 1.25013L8.31314 2.26403L7.30309 1.25013C5.64389 -0.416711 2.90359 -0.416711 1.2444 1.25013C-0.414798 2.91697 -0.414798 5.66991 1.2444 7.33675L2.25444 8.35146L8.31314 14.4381L14.3718 8.35146L15.3819 7.33675C17.0403 5.66991 17.0403 2.98917 15.3819 1.25013Z" fill="#444444"/>
</svg>
