<svg width="180" height="154" viewBox="0 0 180 154" fill="none" xmlns="http://www.w3.org/2000/svg">
<rect x="1" y="1" width="178" height="152.181" rx="5" stroke="#E9EFF4"/>
<g clip-path="url(#clip0)">
<g opacity="0.800951">
<path fill-rule="evenodd" clip-rule="evenodd" d="M63.7273 96H116.091C118.797 96 121 93.8054 121 91.1087V42.1957C121 41.762 120.828 41.3478 120.521 41.0429L100.884 21.4777C100.578 21.1712 100.161 21 99.7273 21H63.7273C61.0207 21 58.8182 23.1946 58.8182 25.8913V55.2391H62.0909V25.8913C62.0909 24.9913 62.8256 24.2609 63.7273 24.2609H98.9909C98.4939 24.2609 98.0909 24.6638 98.0909 25.1609V42.1957C98.0909 43.0973 98.824 43.8261 99.7273 43.8261H117.727V91.1087C117.727 92.0087 116.993 92.7391 116.091 92.7391H63.7273C62.8256 92.7391 62.0909 92.0087 62.0909 91.1087V76.8043H58.8182V91.1087C58.8182 93.8054 61.0207 96 63.7273 96ZM115.413 40.5652L101.364 26.5663V40.5652H115.413Z" fill="#989898"/>
<path d="M120.521 41.0429L119.885 41.6805L119.887 41.6822L120.521 41.0429ZM100.884 21.4777L100.247 22.1136L100.249 22.1153L100.884 21.4777ZM58.8182 55.2391H57.9182V56.1391H58.8182V55.2391ZM62.0909 55.2391V56.1391H62.9909V55.2391H62.0909ZM117.727 43.8261H118.627V42.9261H117.727V43.8261ZM62.0909 76.8043H62.9909V75.9043H62.0909V76.8043ZM58.8182 76.8043V75.9043H57.9182V76.8043H58.8182ZM115.413 40.5652V41.4652H117.592L116.049 39.9277L115.413 40.5652ZM101.364 26.5663L101.999 25.9288L100.464 24.3991V26.5663H101.364ZM101.364 40.5652H100.464V41.4652H101.364V40.5652ZM116.091 95.1H63.7273V96.9H116.091V95.1ZM120.1 91.1087C120.1 93.3053 118.303 95.1 116.091 95.1V96.9C119.291 96.9 121.9 94.3056 121.9 91.1087H120.1ZM120.1 42.1957V91.1087H121.9V42.1957H120.1ZM119.887 41.6822C120.023 41.8171 120.1 42.0007 120.1 42.1957H121.9C121.9 41.5232 121.633 40.8785 121.154 40.4037L119.887 41.6822ZM100.249 22.1153L119.885 41.6805L121.156 40.4054L101.519 20.8402L100.249 22.1153ZM99.7273 21.9C99.9247 21.9 100.112 21.9781 100.247 22.1136L101.521 20.8419C101.044 20.3643 100.397 20.1 99.7273 20.1V21.9ZM63.7273 21.9H99.7273V20.1H63.7273V21.9ZM59.7182 25.8913C59.7182 23.6947 61.5147 21.9 63.7273 21.9V20.1C60.5268 20.1 57.9182 22.6944 57.9182 25.8913H59.7182ZM59.7182 55.2391V25.8913H57.9182V55.2391H59.7182ZM62.0909 54.3391H58.8182V56.1391H62.0909V54.3391ZM61.1909 25.8913V55.2391H62.9909V25.8913H61.1909ZM63.7273 23.3609C62.3323 23.3609 61.1909 24.4906 61.1909 25.8913H62.9909C62.9909 25.492 63.319 25.1609 63.7273 25.1609V23.3609ZM98.9909 23.3609H63.7273V25.1609H98.9909V23.3609ZM98.9909 25.1609V25.1609V23.3609C97.9968 23.3609 97.1909 24.1668 97.1909 25.1609H98.9909ZM98.9909 42.1957V25.1609H97.1909V42.1957H98.9909ZM99.7273 42.9261C99.3174 42.9261 98.9909 42.5966 98.9909 42.1957H97.1909C97.1909 43.598 98.3306 44.7261 99.7273 44.7261V42.9261ZM117.727 42.9261H99.7273V44.7261H117.727V42.9261ZM118.627 91.1087V43.8261H116.827V91.1087H118.627ZM116.091 93.6391C117.486 93.6391 118.627 92.5094 118.627 91.1087H116.827C116.827 91.508 116.499 91.8391 116.091 91.8391V93.6391ZM63.7273 93.6391H116.091V91.8391H63.7273V93.6391ZM61.1909 91.1087C61.1909 92.5094 62.3323 93.6391 63.7273 93.6391V91.8391C63.319 91.8391 62.9909 91.508 62.9909 91.1087H61.1909ZM61.1909 76.8043V91.1087H62.9909V76.8043H61.1909ZM58.8182 77.7043H62.0909V75.9043H58.8182V77.7043ZM59.7182 91.1087V76.8043H57.9182V91.1087H59.7182ZM63.7273 95.1C61.5147 95.1 59.7182 93.3053 59.7182 91.1087H57.9182C57.9182 94.3056 60.5268 96.9 63.7273 96.9V95.1ZM116.049 39.9277L101.999 25.9288L100.728 27.2039L114.778 41.2028L116.049 39.9277ZM100.464 26.5663V40.5652H102.264V26.5663H100.464ZM101.364 41.4652H115.413V39.6652H101.364V41.4652Z" fill="white"/>
</g>
<path fill-rule="evenodd" clip-rule="evenodd" d="M59.4444 78.0654H108.556C109.353 78.0654 110 77.3366 110 76.435V55.2393C110 54.3377 109.353 53.6089 108.556 53.6089H59.4444C58.6471 53.6089 58 54.3377 58 55.2393V76.435C58 77.3366 58.6471 78.0654 59.4444 78.0654Z" fill="#989898" fill-opacity="0.1"/>
<path d="M108.556 77.1654H59.4444V78.9654H108.556V77.1654ZM109.1 76.435C109.1 76.9445 108.757 77.1654 108.556 77.1654V78.9654C109.949 78.9654 110.9 77.7287 110.9 76.435H109.1ZM109.1 55.2393V76.435H110.9V55.2393H109.1ZM108.556 54.5089C108.757 54.5089 109.1 54.7298 109.1 55.2393H110.9C110.9 53.9456 109.949 52.7089 108.556 52.7089V54.5089ZM59.4444 54.5089H108.556V52.7089H59.4444V54.5089ZM58.9 55.2393C58.9 54.7298 59.243 54.5089 59.4444 54.5089V52.7089C58.0512 52.7089 57.1 53.9456 57.1 55.2393H58.9ZM58.9 76.435V55.2393H57.1V76.435H58.9ZM59.4444 77.1654C59.243 77.1654 58.9 76.9445 58.9 76.435H57.1C57.1 77.7287 58.0512 78.9654 59.4444 78.9654V77.1654Z" fill="white"/>
<path d="M74.944 68.992C74.7893 68.992 74.6693 68.952 74.584 68.872C74.504 68.7867 74.464 68.6667 74.464 68.512V68.376C74.464 68.2213 74.504 68.104 74.584 68.024C74.6693 67.9387 74.7893 67.896 74.944 67.896H75.048C75.2027 67.896 75.32 67.9387 75.4 68.024C75.4853 68.104 75.528 68.2213 75.528 68.376V68.512C75.528 68.6667 75.4853 68.7867 75.4 68.872C75.32 68.952 75.2027 68.992 75.048 68.992H74.944ZM78.9769 63.4C79.2489 63.4 79.5076 63.4827 79.7529 63.648C79.9982 63.808 80.1956 64.0267 80.3449 64.304C80.4942 64.576 80.5689 64.8747 80.5689 65.2C80.5689 65.52 80.4942 65.8187 80.3449 66.096C80.1956 66.3733 79.9982 66.5947 79.7529 66.76C79.5076 66.92 79.2489 67 78.9769 67H77.5849V68.512C77.5849 68.656 77.5422 68.7733 77.4569 68.864C77.3716 68.9547 77.2596 69 77.1209 69C76.9876 69 76.8782 68.9547 76.7929 68.864C76.7076 68.768 76.6649 68.6507 76.6649 68.512V63.888C76.6649 63.7493 76.7102 63.6347 76.8009 63.544C76.8969 63.448 77.0142 63.4 77.1529 63.4H78.9769ZM78.9769 66.088C79.0782 66.088 79.1769 66.0453 79.2729 65.96C79.3742 65.8747 79.4542 65.7653 79.5129 65.632C79.5769 65.4933 79.6089 65.3493 79.6089 65.2C79.6089 65.0507 79.5769 64.9093 79.5129 64.776C79.4542 64.6373 79.3742 64.528 79.2729 64.448C79.1769 64.3627 79.0782 64.32 78.9769 64.32H77.5849V66.088H78.9769ZM83.358 69.08C82.974 69.08 82.6326 69.032 82.334 68.936C82.0353 68.84 81.7553 68.6773 81.494 68.448C81.35 68.32 81.278 68.1787 81.278 68.024C81.278 67.9013 81.3233 67.7947 81.414 67.704C81.5046 67.608 81.614 67.56 81.742 67.56C81.8433 67.56 81.934 67.592 82.014 67.656C82.2273 67.832 82.4353 67.96 82.638 68.04C82.8406 68.12 83.0806 68.16 83.358 68.16C83.6566 68.16 83.9126 68.0933 84.126 67.96C84.3446 67.8267 84.454 67.6613 84.454 67.464C84.454 67.224 84.3473 67.0373 84.134 66.904C83.9206 66.7653 83.582 66.6613 83.118 66.592C81.95 66.4213 81.366 65.8773 81.366 64.96C81.366 64.624 81.454 64.3333 81.63 64.088C81.806 63.8373 82.046 63.648 82.35 63.52C82.654 63.3867 82.9926 63.32 83.366 63.32C83.702 63.32 84.0166 63.3707 84.31 63.472C84.6086 63.5733 84.8566 63.7067 85.054 63.872C85.2086 63.9947 85.286 64.136 85.286 64.296C85.286 64.4187 85.2406 64.528 85.15 64.624C85.0593 64.7147 84.9526 64.76 84.83 64.76C84.75 64.76 84.678 64.736 84.614 64.688C84.4753 64.576 84.2806 64.4747 84.03 64.384C83.7846 64.288 83.5633 64.24 83.366 64.24C83.03 64.24 82.7686 64.304 82.582 64.432C82.4006 64.5547 82.31 64.7173 82.31 64.92C82.31 65.1493 82.4033 65.3227 82.59 65.44C82.782 65.5573 83.0806 65.6533 83.486 65.728C83.9446 65.808 84.31 65.912 84.582 66.04C84.8593 66.1627 85.0673 66.3333 85.206 66.552C85.3446 66.7653 85.414 67.0507 85.414 67.408C85.414 67.744 85.318 68.04 85.126 68.296C84.9393 68.5467 84.6886 68.7413 84.374 68.88C84.0593 69.0133 83.7206 69.08 83.358 69.08ZM88.8041 63.4C89.3055 63.4 89.7348 63.5253 90.0921 63.776C90.4548 64.0213 90.7295 64.3573 90.9161 64.784C91.1081 65.2053 91.2041 65.6773 91.2041 66.2C91.2041 66.7227 91.1081 67.1973 90.9161 67.624C90.7295 68.0453 90.4548 68.3813 90.0921 68.632C89.7348 68.8773 89.3055 69 88.8041 69H86.8921C86.7535 69 86.6361 68.9547 86.5401 68.864C86.4495 68.768 86.4041 68.6507 86.4041 68.512V63.888C86.4041 63.7493 86.4495 63.6347 86.5401 63.544C86.6361 63.448 86.7535 63.4 86.8921 63.4H88.8041ZM88.7241 68.08C89.2041 68.08 89.5641 67.904 89.8041 67.552C90.0441 67.1947 90.1641 66.744 90.1641 66.2C90.1641 65.656 90.0415 65.208 89.7961 64.856C89.5561 64.4987 89.1988 64.32 88.7241 64.32H87.4041V68.08H88.7241Z" fill="#989898"/>
</g>
<defs>
<clipPath id="clip0">
<rect width="63" height="75" fill="white" transform="translate(58 21)"/>
</clipPath>
</defs>
</svg>
