<svg width="180" height="154" viewBox="0 0 180 154" fill="none" xmlns="http://www.w3.org/2000/svg">
<rect x="1" y="1" width="178" height="152.181" rx="5" stroke="#E9EFF4"/>
<g clip-path="url(#clip0)">
<g opacity="0.8">
<path fill-rule="evenodd" clip-rule="evenodd" d="M63.7273 96H116.091C118.797 96 121 93.8054 121 91.1087V42.1957C121 41.762 120.828 41.3478 120.521 41.0429L100.884 21.4777C100.578 21.1712 100.161 21 99.7273 21H63.7273C61.0207 21 58.8182 23.1946 58.8182 25.8913V55.2391H62.0909V25.8913C62.0909 24.9913 62.8256 24.2609 63.7273 24.2609H98.9909C98.4938 24.2609 98.0909 24.6638 98.0909 25.1609V42.1957C98.0909 43.0973 98.824 43.8261 99.7273 43.8261H117.727V91.1087C117.727 92.0087 116.993 92.7391 116.091 92.7391H63.7273C62.8256 92.7391 62.0909 92.0087 62.0909 91.1087V76.8043H58.8182V91.1087C58.8182 93.8054 61.0207 96 63.7273 96ZM115.413 40.5652L101.364 26.5663V40.5652H115.413Z" fill="#FF6D4A"/>
<path d="M120.521 41.0429L119.885 41.6805L119.887 41.6822L120.521 41.0429ZM100.884 21.4777L100.247 22.1136L100.249 22.1153L100.884 21.4777ZM58.8182 55.2391H57.9182V56.1391H58.8182V55.2391ZM62.0909 55.2391V56.1391H62.9909V55.2391H62.0909ZM117.727 43.8261H118.627V42.9261H117.727V43.8261ZM62.0909 76.8043H62.9909V75.9043H62.0909V76.8043ZM58.8182 76.8043V75.9043H57.9182V76.8043H58.8182ZM115.413 40.5652V41.4652H117.592L116.049 39.9277L115.413 40.5652ZM101.364 26.5663L101.999 25.9288L100.464 24.3991V26.5663H101.364ZM101.364 40.5652H100.464V41.4652H101.364V40.5652ZM116.091 95.1H63.7273V96.9H116.091V95.1ZM120.1 91.1087C120.1 93.3053 118.303 95.1 116.091 95.1V96.9C119.291 96.9 121.9 94.3056 121.9 91.1087H120.1ZM120.1 42.1957V91.1087H121.9V42.1957H120.1ZM119.887 41.6822C120.023 41.8171 120.1 42.0007 120.1 42.1957H121.9C121.9 41.5232 121.633 40.8785 121.154 40.4037L119.887 41.6822ZM100.249 22.1153L119.885 41.6805L121.156 40.4054L101.519 20.8402L100.249 22.1153ZM99.7273 21.9C99.9247 21.9 100.112 21.9781 100.247 22.1136L101.521 20.8419C101.044 20.3643 100.397 20.1 99.7273 20.1V21.9ZM63.7273 21.9H99.7273V20.1H63.7273V21.9ZM59.7182 25.8913C59.7182 23.6947 61.5147 21.9 63.7273 21.9V20.1C60.5267 20.1 57.9182 22.6944 57.9182 25.8913H59.7182ZM59.7182 55.2391V25.8913H57.9182V55.2391H59.7182ZM62.0909 54.3391H58.8182V56.1391H62.0909V54.3391ZM61.1909 25.8913V55.2391H62.9909V25.8913H61.1909ZM63.7273 23.3609C62.3322 23.3609 61.1909 24.4906 61.1909 25.8913H62.9909C62.9909 25.492 63.319 25.1609 63.7273 25.1609V23.3609ZM98.9909 23.3609H63.7273V25.1609H98.9909V23.3609ZM98.9909 25.1609V25.1609V23.3609C97.9968 23.3609 97.1909 24.1668 97.1909 25.1609H98.9909ZM98.9909 42.1957V25.1609H97.1909V42.1957H98.9909ZM99.7273 42.9261C99.3174 42.9261 98.9909 42.5966 98.9909 42.1957H97.1909C97.1909 43.598 98.3306 44.7261 99.7273 44.7261V42.9261ZM117.727 42.9261H99.7273V44.7261H117.727V42.9261ZM118.627 91.1087V43.8261H116.827V91.1087H118.627ZM116.091 93.6391C117.486 93.6391 118.627 92.5094 118.627 91.1087H116.827C116.827 91.508 116.499 91.8391 116.091 91.8391V93.6391ZM63.7273 93.6391H116.091V91.8391H63.7273V93.6391ZM61.1909 91.1087C61.1909 92.5094 62.3322 93.6391 63.7273 93.6391V91.8391C63.319 91.8391 62.9909 91.508 62.9909 91.1087H61.1909ZM61.1909 76.8043V91.1087H62.9909V76.8043H61.1909ZM58.8182 77.7043H62.0909V75.9043H58.8182V77.7043ZM59.7182 91.1087V76.8043H57.9182V91.1087H59.7182ZM63.7273 95.1C61.5147 95.1 59.7182 93.3053 59.7182 91.1087H57.9182C57.9182 94.3056 60.5267 96.9 63.7273 96.9V95.1ZM116.049 39.9277L101.999 25.9288L100.728 27.2039L114.778 41.2028L116.049 39.9277ZM100.464 26.5663V40.5652H102.264V26.5663H100.464ZM101.364 41.4652H115.413V39.6652H101.364V41.4652Z" fill="white"/>
</g>
<path fill-rule="evenodd" clip-rule="evenodd" d="M59.4444 78.0654H108.556C109.353 78.0654 110 77.3366 110 76.435V55.2393C110 54.3377 109.353 53.6089 108.556 53.6089H59.4444C58.6471 53.6089 58 54.3377 58 55.2393V76.435C58 77.3366 58.6471 78.0654 59.4444 78.0654Z" fill="#FF6D4A" fill-opacity="0.1"/>
<path d="M108.556 77.1654H59.4444V78.9654H108.556V77.1654ZM109.1 76.435C109.1 76.9445 108.757 77.1654 108.556 77.1654V78.9654C109.949 78.9654 110.9 77.7287 110.9 76.435H109.1ZM109.1 55.2393V76.435H110.9V55.2393H109.1ZM108.556 54.5089C108.757 54.5089 109.1 54.7298 109.1 55.2393H110.9C110.9 53.9456 109.949 52.7089 108.556 52.7089V54.5089ZM59.4444 54.5089H108.556V52.7089H59.4444V54.5089ZM58.9 55.2393C58.9 54.7298 59.243 54.5089 59.4444 54.5089V52.7089C58.0512 52.7089 57.1 53.9456 57.1 55.2393H58.9ZM58.9 76.435V55.2393H57.1V76.435H58.9ZM59.4444 77.1654C59.243 77.1654 58.9 76.9445 58.9 76.435H57.1C57.1 77.7287 58.0512 78.9654 59.4444 78.9654V77.1654Z" fill="white"/>
<path d="M73.944 68.992C73.7893 68.992 73.6693 68.952 73.584 68.872C73.504 68.7867 73.464 68.6667 73.464 68.512V68.376C73.464 68.2213 73.504 68.104 73.584 68.024C73.6693 67.9387 73.7893 67.896 73.944 67.896H74.048C74.2027 67.896 74.32 67.9387 74.4 68.024C74.4853 68.104 74.528 68.2213 74.528 68.376V68.512C74.528 68.6667 74.4853 68.7867 74.4 68.872C74.32 68.952 74.2027 68.992 74.048 68.992H73.944ZM77.9769 63.4C78.2489 63.4 78.5076 63.4827 78.7529 63.648C78.9982 63.808 79.1956 64.0267 79.3449 64.304C79.4942 64.576 79.5689 64.8747 79.5689 65.2C79.5689 65.52 79.4942 65.8187 79.3449 66.096C79.1956 66.3733 78.9982 66.5947 78.7529 66.76C78.5076 66.92 78.2489 67 77.9769 67H76.5849V68.512C76.5849 68.656 76.5422 68.7733 76.4569 68.864C76.3716 68.9547 76.2596 69 76.1209 69C75.9876 69 75.8782 68.9547 75.7929 68.864C75.7076 68.768 75.6649 68.6507 75.6649 68.512V63.888C75.6649 63.7493 75.7102 63.6347 75.8009 63.544C75.8969 63.448 76.0142 63.4 76.1529 63.4H77.9769ZM77.9769 66.088C78.0782 66.088 78.1769 66.0453 78.2729 65.96C78.3742 65.8747 78.4542 65.7653 78.5129 65.632C78.5769 65.4933 78.6089 65.3493 78.6089 65.2C78.6089 65.0507 78.5769 64.9093 78.5129 64.776C78.4542 64.6373 78.3742 64.528 78.2729 64.448C78.1769 64.3627 78.0782 64.32 77.9769 64.32H76.5849V66.088H77.9769ZM82.958 63.4C83.4593 63.4 83.8886 63.5253 84.246 63.776C84.6086 64.0213 84.8833 64.3573 85.07 64.784C85.262 65.2053 85.358 65.6773 85.358 66.2C85.358 66.7227 85.262 67.1973 85.07 67.624C84.8833 68.0453 84.6086 68.3813 84.246 68.632C83.8886 68.8773 83.4593 69 82.958 69H81.046C80.9073 69 80.79 68.9547 80.694 68.864C80.6033 68.768 80.558 68.6507 80.558 68.512V63.888C80.558 63.7493 80.6033 63.6347 80.694 63.544C80.79 63.448 80.9073 63.4 81.046 63.4H82.958ZM82.878 68.08C83.358 68.08 83.718 67.904 83.958 67.552C84.198 67.1947 84.318 66.744 84.318 66.2C84.318 65.656 84.1953 65.208 83.95 64.856C83.71 64.4987 83.3526 64.32 82.878 64.32H81.558V68.08H82.878ZM87.3494 64.32V65.728H89.0774C89.2161 65.728 89.3308 65.7733 89.4214 65.864C89.5174 65.9493 89.5654 66.0613 89.5654 66.2C89.5654 66.3173 89.5174 66.4213 89.4214 66.512C89.3308 66.6027 89.2161 66.648 89.0774 66.648H87.3494V68.512C87.3494 68.6507 87.2988 68.768 87.1974 68.864C87.1014 68.9547 86.9868 69 86.8534 69C86.7041 69 86.5814 68.9547 86.4854 68.864C86.3948 68.7733 86.3494 68.656 86.3494 68.512V63.888C86.3494 63.7493 86.3948 63.6347 86.4854 63.544C86.5814 63.448 86.6988 63.4 86.8374 63.4H89.4374C89.5761 63.4 89.6908 63.4453 89.7814 63.536C89.8774 63.6213 89.9254 63.7333 89.9254 63.872C89.9254 63.9893 89.8774 64.0933 89.7814 64.184C89.6908 64.2747 89.5761 64.32 89.4374 64.32H87.3494Z" fill="#FF6D4A"/>
</g>
<path d="M58.1811 119V111.9H61.1411C61.4544 111.9 61.7411 111.967 62.0011 112.1C62.2677 112.227 62.4944 112.4 62.6811 112.62C62.8744 112.833 63.0244 113.077 63.1311 113.35C63.2377 113.617 63.2911 113.89 63.2911 114.17C63.2911 114.463 63.2411 114.747 63.1411 115.02C63.0411 115.293 62.8977 115.537 62.7111 115.75C62.5311 115.963 62.3111 116.133 62.0511 116.26C61.7977 116.387 61.5144 116.45 61.2011 116.45H59.0811V119H58.1811ZM59.0811 115.65H61.1511C61.3377 115.65 61.5044 115.613 61.6511 115.54C61.8044 115.46 61.9344 115.353 62.0411 115.22C62.1477 115.08 62.2311 114.92 62.2911 114.74C62.3511 114.56 62.3811 114.37 62.3811 114.17C62.3811 113.963 62.3444 113.77 62.2711 113.59C62.2044 113.41 62.1111 113.253 61.9911 113.12C61.8777 112.987 61.7411 112.883 61.5811 112.81C61.4277 112.737 61.2644 112.7 61.0911 112.7H59.0811V115.65ZM66.0529 119.1C65.8063 119.1 65.5763 119.06 65.3629 118.98C65.1496 118.893 64.9629 118.777 64.8029 118.63C64.6496 118.483 64.5263 118.313 64.4329 118.12C64.3463 117.92 64.3029 117.703 64.3029 117.47C64.3029 117.23 64.3563 117.013 64.4629 116.82C64.5696 116.62 64.7196 116.45 64.9129 116.31C65.1129 116.17 65.3463 116.06 65.6129 115.98C65.8863 115.9 66.1829 115.86 66.5029 115.86C66.7563 115.86 67.0129 115.883 67.2729 115.93C67.5329 115.977 67.7629 116.04 67.9629 116.12V115.7C67.9629 115.273 67.8429 114.94 67.6029 114.7C67.3629 114.453 67.0229 114.33 66.5829 114.33C66.0563 114.33 65.5029 114.533 64.9229 114.94L64.6329 114.37C65.3063 113.917 65.9829 113.69 66.6629 113.69C67.3496 113.69 67.8829 113.873 68.2629 114.24C68.6496 114.607 68.8429 115.123 68.8429 115.79V117.92C68.8429 118.127 68.9363 118.233 69.1229 118.24V119C69.0296 119.013 68.9529 119.023 68.8929 119.03C68.8329 119.037 68.7696 119.04 68.7029 119.04C68.5296 119.04 68.3896 118.99 68.2829 118.89C68.1829 118.783 68.1229 118.657 68.1029 118.51L68.0829 118.14C67.8496 118.453 67.5529 118.693 67.1929 118.86C66.8396 119.02 66.4596 119.1 66.0529 119.1ZM66.2829 118.44C66.5963 118.44 66.8863 118.383 67.1529 118.27C67.4263 118.15 67.6329 117.993 67.7729 117.8C67.8996 117.673 67.9629 117.543 67.9629 117.41V116.64C67.5363 116.473 67.0929 116.39 66.6329 116.39C66.1929 116.39 65.8329 116.483 65.5529 116.67C65.2796 116.857 65.1429 117.1 65.1429 117.4C65.1429 117.547 65.1696 117.683 65.2229 117.81C65.2829 117.937 65.3629 118.047 65.4629 118.14C65.5696 118.233 65.6929 118.307 65.8329 118.36C65.9729 118.413 66.1229 118.44 66.2829 118.44ZM72.58 119.1C72.16 119.1 71.7467 119.037 71.34 118.91C70.9334 118.777 70.5834 118.587 70.29 118.34L70.67 117.75C70.9767 117.983 71.2834 118.16 71.59 118.28C71.8967 118.393 72.22 118.45 72.56 118.45C72.94 118.45 73.24 118.377 73.46 118.23C73.6867 118.077 73.8 117.863 73.8 117.59C73.8 117.463 73.77 117.357 73.71 117.27C73.65 117.177 73.56 117.097 73.44 117.03C73.32 116.963 73.1667 116.903 72.98 116.85C72.7934 116.797 72.5767 116.74 72.33 116.68C72.0167 116.6 71.7467 116.523 71.52 116.45C71.2934 116.377 71.1067 116.29 70.96 116.19C70.8134 116.09 70.7067 115.97 70.64 115.83C70.5734 115.69 70.54 115.517 70.54 115.31C70.54 115.05 70.59 114.82 70.69 114.62C70.7967 114.413 70.94 114.243 71.12 114.11C71.3 113.97 71.51 113.867 71.75 113.8C71.9967 113.727 72.26 113.69 72.54 113.69C72.9334 113.69 73.3 113.753 73.64 113.88C73.98 114.007 74.2667 114.173 74.5 114.38L74.1 114.91C73.88 114.717 73.6334 114.573 73.36 114.48C73.0867 114.38 72.8067 114.33 72.52 114.33C72.2 114.33 71.9267 114.4 71.7 114.54C71.48 114.673 71.37 114.89 71.37 115.19C71.37 115.31 71.39 115.41 71.43 115.49C71.4767 115.57 71.55 115.64 71.65 115.7C71.75 115.76 71.8767 115.813 72.03 115.86C72.19 115.907 72.38 115.957 72.6 116.01C72.9467 116.09 73.2467 116.173 73.5 116.26C73.76 116.34 73.9734 116.437 74.14 116.55C74.3134 116.663 74.44 116.797 74.52 116.95C74.6067 117.103 74.65 117.29 74.65 117.51C74.65 117.997 74.4634 118.383 74.09 118.67C73.7167 118.957 73.2134 119.1 72.58 119.1ZM78.0214 119.1C77.6014 119.1 77.1881 119.037 76.7814 118.91C76.3748 118.777 76.0248 118.587 75.7314 118.34L76.1114 117.75C76.4181 117.983 76.7248 118.16 77.0314 118.28C77.3381 118.393 77.6614 118.45 78.0014 118.45C78.3814 118.45 78.6814 118.377 78.9014 118.23C79.1281 118.077 79.2414 117.863 79.2414 117.59C79.2414 117.463 79.2114 117.357 79.1514 117.27C79.0914 117.177 79.0014 117.097 78.8814 117.03C78.7614 116.963 78.6081 116.903 78.4214 116.85C78.2348 116.797 78.0181 116.74 77.7714 116.68C77.4581 116.6 77.1881 116.523 76.9614 116.45C76.7348 116.377 76.5481 116.29 76.4014 116.19C76.2548 116.09 76.1481 115.97 76.0814 115.83C76.0148 115.69 75.9814 115.517 75.9814 115.31C75.9814 115.05 76.0314 114.82 76.1314 114.62C76.2381 114.413 76.3814 114.243 76.5614 114.11C76.7414 113.97 76.9514 113.867 77.1914 113.8C77.4381 113.727 77.7014 113.69 77.9814 113.69C78.3748 113.69 78.7414 113.753 79.0814 113.88C79.4214 114.007 79.7081 114.173 79.9414 114.38L79.5414 114.91C79.3214 114.717 79.0748 114.573 78.8014 114.48C78.5281 114.38 78.2481 114.33 77.9614 114.33C77.6414 114.33 77.3681 114.4 77.1414 114.54C76.9214 114.673 76.8114 114.89 76.8114 115.19C76.8114 115.31 76.8314 115.41 76.8714 115.49C76.9181 115.57 76.9914 115.64 77.0914 115.7C77.1914 115.76 77.3181 115.813 77.4714 115.86C77.6314 115.907 77.8214 115.957 78.0414 116.01C78.3881 116.09 78.6881 116.173 78.9414 116.26C79.2014 116.34 79.4148 116.437 79.5814 116.55C79.7548 116.663 79.8814 116.797 79.9614 116.95C80.0481 117.103 80.0914 117.29 80.0914 117.51C80.0914 117.997 79.9048 118.383 79.5314 118.67C79.1581 118.957 78.6548 119.1 78.0214 119.1ZM84.4429 119.1C84.0095 119.1 83.6262 118.993 83.2929 118.78C82.9662 118.567 82.7062 118.297 82.5129 117.97V121.13H81.6329V113.78H82.4129V114.76C82.6195 114.44 82.8862 114.183 83.2129 113.99C83.5462 113.79 83.9129 113.69 84.3129 113.69C84.6729 113.69 85.0029 113.763 85.3029 113.91C85.6029 114.057 85.8629 114.257 86.0829 114.51C86.3029 114.757 86.4729 115.043 86.5929 115.37C86.7195 115.697 86.7829 116.037 86.7829 116.39C86.7829 116.763 86.7262 117.117 86.6129 117.45C86.4995 117.777 86.3395 118.063 86.1329 118.31C85.9262 118.55 85.6795 118.743 85.3929 118.89C85.1062 119.03 84.7895 119.1 84.4429 119.1ZM84.1729 118.34C84.4329 118.34 84.6662 118.287 84.8729 118.18C85.0862 118.067 85.2662 117.92 85.4129 117.74C85.5662 117.553 85.6829 117.343 85.7629 117.11C85.8429 116.877 85.8829 116.637 85.8829 116.39C85.8829 116.13 85.8362 115.883 85.7429 115.65C85.6495 115.41 85.5229 115.203 85.3629 115.03C85.2029 114.85 85.0129 114.71 84.7929 114.61C84.5795 114.503 84.3462 114.45 84.0929 114.45C83.9329 114.45 83.7662 114.483 83.5929 114.55C83.4262 114.61 83.2662 114.693 83.1129 114.8C82.9662 114.9 82.8362 115.023 82.7229 115.17C82.6162 115.31 82.5462 115.46 82.5129 115.62V117.11C82.5862 117.283 82.6795 117.447 82.7929 117.6C82.9062 117.747 83.0362 117.877 83.1829 117.99C83.3295 118.097 83.4862 118.183 83.6529 118.25C83.8195 118.31 83.9929 118.34 84.1729 118.34ZM90.6433 119.1C90.25 119.1 89.89 119.027 89.5633 118.88C89.2433 118.733 88.9667 118.537 88.7333 118.29C88.5067 118.043 88.33 117.757 88.2033 117.43C88.0767 117.103 88.0133 116.76 88.0133 116.4C88.0133 116.033 88.0767 115.687 88.2033 115.36C88.3367 115.033 88.5167 114.747 88.7433 114.5C88.9767 114.253 89.2533 114.057 89.5733 113.91C89.9 113.763 90.2567 113.69 90.6433 113.69C91.03 113.69 91.3867 113.763 91.7133 113.91C92.04 114.057 92.3167 114.253 92.5433 114.5C92.7767 114.747 92.9567 115.033 93.0833 115.36C93.2167 115.687 93.2833 116.033 93.2833 116.4C93.2833 116.76 93.22 117.103 93.0933 117.43C92.9667 117.757 92.7867 118.043 92.5533 118.29C92.32 118.537 92.04 118.733 91.7133 118.88C91.3933 119.027 91.0367 119.1 90.6433 119.1ZM88.9133 116.41C88.9133 116.683 88.9567 116.937 89.0433 117.17C89.1367 117.403 89.26 117.607 89.4133 117.78C89.5733 117.953 89.7567 118.09 89.9633 118.19C90.1767 118.29 90.4033 118.34 90.6433 118.34C90.8833 118.34 91.1067 118.29 91.3133 118.19C91.5267 118.09 91.7133 117.953 91.8733 117.78C92.0333 117.6 92.1567 117.393 92.2433 117.16C92.3367 116.92 92.3833 116.663 92.3833 116.39C92.3833 116.123 92.3367 115.873 92.2433 115.64C92.1567 115.4 92.0333 115.193 91.8733 115.02C91.7133 114.84 91.5267 114.7 91.3133 114.6C91.1067 114.5 90.8833 114.45 90.6433 114.45C90.4033 114.45 90.1767 114.503 89.9633 114.61C89.7567 114.71 89.5733 114.85 89.4133 115.03C89.26 115.203 89.1367 115.41 89.0433 115.65C88.9567 115.883 88.9133 116.137 88.9133 116.41ZM97.6096 114.55C97.1696 114.563 96.7796 114.677 96.4396 114.89C96.1063 115.103 95.8696 115.4 95.7296 115.78V119H94.8496V113.78H95.6696V114.99C95.8496 114.63 96.0863 114.34 96.3796 114.12C96.673 113.893 96.9863 113.767 97.3196 113.74C97.3863 113.74 97.443 113.74 97.4896 113.74C97.5363 113.74 97.5763 113.743 97.6096 113.75V114.55ZM101.682 118.74C101.629 118.767 101.559 118.8 101.472 118.84C101.386 118.873 101.286 118.91 101.172 118.95C101.066 118.983 100.946 119.01 100.812 119.03C100.686 119.057 100.552 119.07 100.412 119.07C100.092 119.07 99.8158 118.983 99.5825 118.81C99.3491 118.63 99.2325 118.353 99.2325 117.98V114.47H98.5225V113.78H99.2325V112.04H100.112V113.78H101.282V114.47H100.112V117.71C100.126 117.903 100.189 118.043 100.302 118.13C100.416 118.217 100.549 118.26 100.702 118.26C100.876 118.26 101.032 118.233 101.172 118.18C101.319 118.12 101.419 118.073 101.472 118.04L101.682 118.74ZM102.928 119V117.88H103.668V119H102.928ZM105.66 119V111.9H108.62C108.933 111.9 109.22 111.967 109.48 112.1C109.746 112.227 109.973 112.4 110.16 112.62C110.353 112.833 110.503 113.077 110.61 113.35C110.716 113.617 110.77 113.89 110.77 114.17C110.77 114.463 110.72 114.747 110.62 115.02C110.52 115.293 110.376 115.537 110.19 115.75C110.01 115.963 109.79 116.133 109.53 116.26C109.276 116.387 108.993 116.45 108.68 116.45H106.56V119H105.66ZM106.56 115.65H108.63C108.816 115.65 108.983 115.613 109.13 115.54C109.283 115.46 109.413 115.353 109.52 115.22C109.626 115.08 109.71 114.92 109.77 114.74C109.83 114.56 109.86 114.37 109.86 114.17C109.86 113.963 109.823 113.77 109.75 113.59C109.683 113.41 109.59 113.253 109.47 113.12C109.356 112.987 109.22 112.883 109.06 112.81C108.906 112.737 108.743 112.7 108.57 112.7H106.56V115.65ZM114.312 119.1C113.952 119.1 113.619 119.027 113.312 118.88C113.005 118.733 112.742 118.537 112.522 118.29C112.302 118.043 112.129 117.757 112.002 117.43C111.882 117.103 111.822 116.76 111.822 116.4C111.822 116.033 111.879 115.687 111.992 115.36C112.112 115.027 112.275 114.737 112.482 114.49C112.695 114.243 112.945 114.05 113.232 113.91C113.525 113.763 113.845 113.69 114.192 113.69C114.612 113.69 114.985 113.8 115.312 114.02C115.645 114.24 115.909 114.507 116.102 114.82V111.7H116.982V117.92C116.982 118.127 117.075 118.233 117.262 118.24V119C117.169 119.013 117.092 119.023 117.032 119.03C116.979 119.037 116.925 119.04 116.872 119.04C116.699 119.04 116.545 118.983 116.412 118.87C116.285 118.75 116.222 118.613 116.222 118.46V118.02C116.015 118.36 115.739 118.627 115.392 118.82C115.052 119.007 114.692 119.1 114.312 119.1ZM114.522 118.34C114.682 118.34 114.845 118.31 115.012 118.25C115.185 118.19 115.345 118.107 115.492 118C115.645 117.893 115.775 117.77 115.882 117.63C115.995 117.483 116.069 117.33 116.102 117.17V115.67C116.042 115.503 115.952 115.347 115.832 115.2C115.712 115.047 115.575 114.917 115.422 114.81C115.275 114.697 115.115 114.61 114.942 114.55C114.775 114.483 114.609 114.45 114.442 114.45C114.182 114.45 113.945 114.507 113.732 114.62C113.525 114.727 113.345 114.873 113.192 115.06C113.045 115.24 112.932 115.45 112.852 115.69C112.772 115.923 112.732 116.163 112.732 116.41C112.732 116.67 112.779 116.92 112.872 117.16C112.965 117.393 113.092 117.597 113.252 117.77C113.412 117.943 113.599 118.083 113.812 118.19C114.032 118.29 114.269 118.34 114.522 118.34ZM119.231 119V114.47H118.521V113.78H119.231V113.67C119.231 113.023 119.375 112.517 119.661 112.15C119.948 111.783 120.338 111.6 120.831 111.6C121.038 111.6 121.241 111.63 121.441 111.69C121.641 111.743 121.821 111.82 121.981 111.92L121.761 112.57C121.668 112.503 121.551 112.45 121.411 112.41C121.278 112.37 121.145 112.35 121.011 112.35C120.718 112.35 120.495 112.46 120.341 112.68C120.188 112.9 120.111 113.22 120.111 113.64V113.78H121.501V114.47H120.111V119H119.231Z" fill="#323C47"/>
<path fill-rule="evenodd" clip-rule="evenodd" d="M153.6 139.8H155.2V133.4H153.6V139.8ZM156.8 139.8H158.4V133.4H156.8V139.8ZM152 141.4H160V131.8H152V141.4ZM153.6 130.2H158.4V128.6H153.6V130.2ZM160 130.2V127H152V130.2H148V131.8H150.4V143H161.6V131.8H164V130.2H160Z" fill="#E9EFF4"/>
<path fill-rule="evenodd" clip-rule="evenodd" d="M126.952 133.914L125.874 132.75L123.8 134.693V128H122.2V134.693L120.165 132.75L119.075 133.914L123.034 137.65L126.952 133.914Z" fill="#E9EFF4"/>
<path fill-rule="evenodd" clip-rule="evenodd" d="M131 143H115V135H118.2V136.6H116.6V141.4H129.4V136.6H127.8V135H131V143Z" fill="#E9EFF4"/>
<defs>
<clipPath id="clip0">
<rect width="63" height="75" fill="white" transform="translate(58 21)"/>
</clipPath>
</defs>
</svg>
