<svg width="180" height="154" viewBox="0 0 180 154" fill="none" xmlns="http://www.w3.org/2000/svg">
<rect x="1" y="1" width="178" height="152.181" rx="5" stroke="#E9EFF4"/>
<g clip-path="url(#clip0)">
<g opacity="0.800951">
<path fill-rule="evenodd" clip-rule="evenodd" d="M63.7273 96H116.091C118.797 96 121 93.8054 121 91.1087V42.1957C121 41.762 120.828 41.3478 120.521 41.0429L100.884 21.4777C100.578 21.1712 100.161 21 99.7273 21H63.7273C61.0207 21 58.8182 23.1946 58.8182 25.8913V55.2391H62.0909V25.8913C62.0909 24.9913 62.8256 24.2609 63.7273 24.2609H98.9909C98.4938 24.2609 98.0909 24.6638 98.0909 25.1609V42.1957C98.0909 43.0973 98.824 43.8261 99.7273 43.8261H117.727V91.1087C117.727 92.0087 116.993 92.7391 116.091 92.7391H63.7273C62.8256 92.7391 62.0909 92.0087 62.0909 91.1087V76.8043H58.8182V91.1087C58.8182 93.8054 61.0207 96 63.7273 96ZM115.413 40.5652L101.364 26.5663V40.5652H115.413Z" fill="#989898"/>
<path d="M120.521 41.0429L119.885 41.6805L119.887 41.6822L120.521 41.0429ZM100.884 21.4777L100.247 22.1136L100.249 22.1153L100.884 21.4777ZM58.8182 55.2391H57.9182V56.1391H58.8182V55.2391ZM62.0909 55.2391V56.1391H62.9909V55.2391H62.0909ZM117.727 43.8261H118.627V42.9261H117.727V43.8261ZM62.0909 76.8043H62.9909V75.9043H62.0909V76.8043ZM58.8182 76.8043V75.9043H57.9182V76.8043H58.8182ZM115.413 40.5652V41.4652H117.592L116.049 39.9277L115.413 40.5652ZM101.364 26.5663L101.999 25.9288L100.464 24.3991V26.5663H101.364ZM101.364 40.5652H100.464V41.4652H101.364V40.5652ZM116.091 95.1H63.7273V96.9H116.091V95.1ZM120.1 91.1087C120.1 93.3053 118.303 95.1 116.091 95.1V96.9C119.291 96.9 121.9 94.3056 121.9 91.1087H120.1ZM120.1 42.1957V91.1087H121.9V42.1957H120.1ZM119.887 41.6822C120.023 41.8171 120.1 42.0007 120.1 42.1957H121.9C121.9 41.5232 121.633 40.8785 121.154 40.4037L119.887 41.6822ZM100.249 22.1153L119.885 41.6805L121.156 40.4054L101.519 20.8402L100.249 22.1153ZM99.7273 21.9C99.9247 21.9 100.112 21.9781 100.247 22.1136L101.521 20.8419C101.044 20.3643 100.397 20.1 99.7273 20.1V21.9ZM63.7273 21.9H99.7273V20.1H63.7273V21.9ZM59.7182 25.8913C59.7182 23.6947 61.5147 21.9 63.7273 21.9V20.1C60.5267 20.1 57.9182 22.6944 57.9182 25.8913H59.7182ZM59.7182 55.2391V25.8913H57.9182V55.2391H59.7182ZM62.0909 54.3391H58.8182V56.1391H62.0909V54.3391ZM61.1909 25.8913V55.2391H62.9909V25.8913H61.1909ZM63.7273 23.3609C62.3322 23.3609 61.1909 24.4906 61.1909 25.8913H62.9909C62.9909 25.492 63.319 25.1609 63.7273 25.1609V23.3609ZM98.9909 23.3609H63.7273V25.1609H98.9909V23.3609ZM98.9909 25.1609V25.1609V23.3609C97.9968 23.3609 97.1909 24.1668 97.1909 25.1609H98.9909ZM98.9909 42.1957V25.1609H97.1909V42.1957H98.9909ZM99.7273 42.9261C99.3174 42.9261 98.9909 42.5966 98.9909 42.1957H97.1909C97.1909 43.598 98.3306 44.7261 99.7273 44.7261V42.9261ZM117.727 42.9261H99.7273V44.7261H117.727V42.9261ZM118.627 91.1087V43.8261H116.827V91.1087H118.627ZM116.091 93.6391C117.486 93.6391 118.627 92.5094 118.627 91.1087H116.827C116.827 91.508 116.499 91.8391 116.091 91.8391V93.6391ZM63.7273 93.6391H116.091V91.8391H63.7273V93.6391ZM61.1909 91.1087C61.1909 92.5094 62.3322 93.6391 63.7273 93.6391V91.8391C63.319 91.8391 62.9909 91.508 62.9909 91.1087H61.1909ZM61.1909 76.8043V91.1087H62.9909V76.8043H61.1909ZM58.8182 77.7043H62.0909V75.9043H58.8182V77.7043ZM59.7182 91.1087V76.8043H57.9182V91.1087H59.7182ZM63.7273 95.1C61.5147 95.1 59.7182 93.3053 59.7182 91.1087H57.9182C57.9182 94.3056 60.5267 96.9 63.7273 96.9V95.1ZM116.049 39.9277L101.999 25.9288L100.728 27.2039L114.778 41.2028L116.049 39.9277ZM100.464 26.5663V40.5652H102.264V26.5663H100.464ZM101.364 41.4652H115.413V39.6652H101.364V41.4652Z" fill="white"/>
</g>
<path fill-rule="evenodd" clip-rule="evenodd" d="M59.4444 78.0654H108.556C109.353 78.0654 110 77.3366 110 76.435V55.2393C110 54.3377 109.353 53.6089 108.556 53.6089H59.4444C58.6471 53.6089 58 54.3377 58 55.2393V76.435C58 77.3366 58.6471 78.0654 59.4444 78.0654Z" fill="#989898" fill-opacity="0.1"/>
<path d="M108.556 77.1654H59.4444V78.9654H108.556V77.1654ZM109.1 76.435C109.1 76.9445 108.757 77.1654 108.556 77.1654V78.9654C109.949 78.9654 110.9 77.7287 110.9 76.435H109.1ZM109.1 55.2393V76.435H110.9V55.2393H109.1ZM108.556 54.5089C108.757 54.5089 109.1 54.7298 109.1 55.2393H110.9C110.9 53.9456 109.949 52.7089 108.556 52.7089V54.5089ZM59.4444 54.5089H108.556V52.7089H59.4444V54.5089ZM58.9 55.2393C58.9 54.7298 59.243 54.5089 59.4444 54.5089V52.7089C58.0512 52.7089 57.1 53.9456 57.1 55.2393H58.9ZM58.9 76.435V55.2393H57.1V76.435H58.9ZM59.4444 77.1654C59.243 77.1654 58.9 76.9445 58.9 76.435H57.1C57.1 77.7287 58.0512 78.9654 59.4444 78.9654V77.1654Z" fill="white"/>
<path d="M70.944 68.992C70.7893 68.992 70.6693 68.952 70.584 68.872C70.504 68.7867 70.464 68.6667 70.464 68.512V68.376C70.464 68.2213 70.504 68.104 70.584 68.024C70.6693 67.9387 70.7893 67.896 70.944 67.896H71.048C71.2027 67.896 71.32 67.9387 71.4 68.024C71.4853 68.104 71.528 68.2213 71.528 68.376V68.512C71.528 68.6667 71.4853 68.7867 71.4 68.872C71.32 68.952 71.2027 68.992 71.048 68.992H70.944ZM74.9769 63.4C75.2489 63.4 75.5076 63.4827 75.7529 63.648C75.9982 63.808 76.1956 64.0267 76.3449 64.304C76.4942 64.576 76.5689 64.8747 76.5689 65.2C76.5689 65.52 76.4942 65.8187 76.3449 66.096C76.1956 66.3733 75.9982 66.5947 75.7529 66.76C75.5076 66.92 75.2489 67 74.9769 67H73.5849V68.512C73.5849 68.656 73.5422 68.7733 73.4569 68.864C73.3716 68.9547 73.2596 69 73.1209 69C72.9876 69 72.8782 68.9547 72.7929 68.864C72.7076 68.768 72.6649 68.6507 72.6649 68.512V63.888C72.6649 63.7493 72.7102 63.6347 72.8009 63.544C72.8969 63.448 73.0142 63.4 73.1529 63.4H74.9769ZM74.9769 66.088C75.0782 66.088 75.1769 66.0453 75.2729 65.96C75.3742 65.8747 75.4542 65.7653 75.5129 65.632C75.5769 65.4933 75.6089 65.3493 75.6089 65.2C75.6089 65.0507 75.5769 64.9093 75.5129 64.776C75.4542 64.6373 75.3742 64.528 75.2729 64.448C75.1769 64.3627 75.0782 64.32 74.9769 64.32H73.5849V66.088H74.9769ZM79.87 63.4C80.142 63.4 80.4006 63.4827 80.646 63.648C80.8913 63.808 81.0886 64.0267 81.238 64.304C81.3873 64.576 81.462 64.8747 81.462 65.2C81.462 65.52 81.3873 65.8187 81.238 66.096C81.0886 66.3733 80.8913 66.5947 80.646 66.76C80.4006 66.92 80.142 67 79.87 67H78.478V68.512C78.478 68.656 78.4353 68.7733 78.35 68.864C78.2646 68.9547 78.1526 69 78.014 69C77.8806 69 77.7713 68.9547 77.686 68.864C77.6006 68.768 77.558 68.6507 77.558 68.512V63.888C77.558 63.7493 77.6033 63.6347 77.694 63.544C77.79 63.448 77.9073 63.4 78.046 63.4H79.87ZM79.87 66.088C79.9713 66.088 80.07 66.0453 80.166 65.96C80.2673 65.8747 80.3473 65.7653 80.406 65.632C80.47 65.4933 80.502 65.3493 80.502 65.2C80.502 65.0507 80.47 64.9093 80.406 64.776C80.3473 64.6373 80.2673 64.528 80.166 64.448C80.07 64.3627 79.9713 64.32 79.87 64.32H78.478V66.088H79.87ZM86.131 63.4C86.275 63.4 86.3923 63.4427 86.483 63.528C86.5737 63.6133 86.619 63.7253 86.619 63.864C86.619 64.0027 86.5737 64.1147 86.483 64.2C86.3923 64.28 86.275 64.32 86.131 64.32H84.875V68.512C84.875 68.6507 84.8243 68.768 84.723 68.864C84.6217 68.9547 84.4963 69 84.347 69C84.1977 69 84.075 68.9547 83.979 68.864C83.883 68.768 83.835 68.6507 83.835 68.512V64.32H82.579C82.435 64.32 82.3177 64.2773 82.227 64.192C82.1363 64.1067 82.091 63.9947 82.091 63.856C82.091 63.7227 82.1363 63.6133 82.227 63.528C82.323 63.4427 82.4403 63.4 82.579 63.4H86.131ZM91.7075 68.264C91.7715 68.3493 91.8035 68.448 91.8035 68.56C91.8035 68.6987 91.7529 68.8133 91.6515 68.904C91.5502 68.9947 91.4409 69.04 91.3235 69.04C91.1689 69.04 91.0382 68.9707 90.9315 68.832L89.5075 66.936L88.1235 68.816C88.0169 68.9653 87.8835 69.04 87.7235 69.04C87.6062 69.04 87.5049 68.9973 87.4195 68.912C87.3342 68.8267 87.2915 68.728 87.2915 68.616C87.2915 68.4987 87.3315 68.3893 87.4115 68.288L88.9555 66.2L87.4115 64.152C87.3422 64.0667 87.3075 63.9707 87.3075 63.864C87.3075 63.7307 87.3582 63.616 87.4595 63.52C87.5609 63.424 87.6729 63.376 87.7955 63.376C87.9502 63.376 88.0809 63.4453 88.1875 63.584L89.5955 65.456L90.9715 63.624C91.0249 63.5493 91.0862 63.4933 91.1555 63.456C91.2249 63.4133 91.2942 63.392 91.3635 63.392C91.4809 63.392 91.5849 63.44 91.6755 63.536C91.7662 63.6267 91.8115 63.728 91.8115 63.84C91.8115 63.9413 91.7769 64.0373 91.7075 64.128L90.1475 66.184L91.7075 68.264Z" fill="#989898"/>
</g>
<defs>
<clipPath id="clip0">
<rect width="63" height="75" fill="white" transform="translate(58 21)"/>
</clipPath>
</defs>
</svg>
