<svg width="180" height="155" viewBox="0 0 180 155" fill="none" xmlns="http://www.w3.org/2000/svg">
<rect x="1" y="1" width="178" height="152.539" rx="5" stroke="#4DA1FF" stroke-width="1.4"/>
<g clip-path="url(#clip0)">
<g opacity="0.9">
<path fill-rule="evenodd" clip-rule="evenodd" d="M63.7273 96H116.091C118.797 96 121 93.8054 121 91.1087V42.1957C121 41.762 120.828 41.3478 120.521 41.0429L100.884 21.4777C100.578 21.1712 100.161 21 99.7273 21H63.7273C61.0207 21 58.8182 23.1946 58.8182 25.8913V55.2391H62.0909V25.8913C62.0909 24.9913 62.8256 24.2609 63.7273 24.2609H98.9909C98.4938 24.2609 98.0909 24.6638 98.0909 25.1609V42.1957C98.0909 43.0973 98.824 43.8261 99.7273 43.8261H117.727V91.1087C117.727 92.0087 116.993 92.7391 116.091 92.7391H63.7273C62.8256 92.7391 62.0909 92.0087 62.0909 91.1087V76.8043H58.8182V91.1087C58.8182 93.8054 61.0207 96 63.7273 96ZM115.413 40.5652L101.364 26.5663V40.5652H115.413Z" fill="#2E92FF"/>
<path d="M120.521 41.0429L119.885 41.6805L119.887 41.6822L120.521 41.0429ZM100.884 21.4777L100.247 22.1136L100.249 22.1153L100.884 21.4777ZM58.8182 55.2391H57.9182V56.1391H58.8182V55.2391ZM62.0909 55.2391V56.1391H62.9909V55.2391H62.0909ZM117.727 43.8261H118.627V42.9261H117.727V43.8261ZM62.0909 76.8043H62.9909V75.9043H62.0909V76.8043ZM58.8182 76.8043V75.9043H57.9182V76.8043H58.8182ZM115.413 40.5652V41.4652H117.592L116.049 39.9277L115.413 40.5652ZM101.364 26.5663L101.999 25.9288L100.464 24.3991V26.5663H101.364ZM101.364 40.5652H100.464V41.4652H101.364V40.5652ZM116.091 95.1H63.7273V96.9H116.091V95.1ZM120.1 91.1087C120.1 93.3053 118.303 95.1 116.091 95.1V96.9C119.291 96.9 121.9 94.3056 121.9 91.1087H120.1ZM120.1 42.1957V91.1087H121.9V42.1957H120.1ZM119.887 41.6822C120.023 41.8171 120.1 42.0007 120.1 42.1957H121.9C121.9 41.5232 121.633 40.8785 121.154 40.4037L119.887 41.6822ZM100.249 22.1153L119.885 41.6805L121.156 40.4054L101.519 20.8402L100.249 22.1153ZM99.7273 21.9C99.9247 21.9 100.112 21.9781 100.247 22.1136L101.521 20.8419C101.044 20.3643 100.397 20.1 99.7273 20.1V21.9ZM63.7273 21.9H99.7273V20.1H63.7273V21.9ZM59.7182 25.8913C59.7182 23.6947 61.5147 21.9 63.7273 21.9V20.1C60.5267 20.1 57.9182 22.6944 57.9182 25.8913H59.7182ZM59.7182 55.2391V25.8913H57.9182V55.2391H59.7182ZM62.0909 54.3391H58.8182V56.1391H62.0909V54.3391ZM61.1909 25.8913V55.2391H62.9909V25.8913H61.1909ZM63.7273 23.3609C62.3322 23.3609 61.1909 24.4906 61.1909 25.8913H62.9909C62.9909 25.492 63.319 25.1609 63.7273 25.1609V23.3609ZM98.9909 23.3609H63.7273V25.1609H98.9909V23.3609ZM98.9909 25.1609V25.1609V23.3609C97.9968 23.3609 97.1909 24.1668 97.1909 25.1609H98.9909ZM98.9909 42.1957V25.1609H97.1909V42.1957H98.9909ZM99.7273 42.9261C99.3174 42.9261 98.9909 42.5966 98.9909 42.1957H97.1909C97.1909 43.598 98.3306 44.7261 99.7273 44.7261V42.9261ZM117.727 42.9261H99.7273V44.7261H117.727V42.9261ZM118.627 91.1087V43.8261H116.827V91.1087H118.627ZM116.091 93.6391C117.486 93.6391 118.627 92.5094 118.627 91.1087H116.827C116.827 91.508 116.499 91.8391 116.091 91.8391V93.6391ZM63.7273 93.6391H116.091V91.8391H63.7273V93.6391ZM61.1909 91.1087C61.1909 92.5094 62.3322 93.6391 63.7273 93.6391V91.8391C63.319 91.8391 62.9909 91.508 62.9909 91.1087H61.1909ZM61.1909 76.8043V91.1087H62.9909V76.8043H61.1909ZM58.8182 77.7043H62.0909V75.9043H58.8182V77.7043ZM59.7182 91.1087V76.8043H57.9182V91.1087H59.7182ZM63.7273 95.1C61.5147 95.1 59.7182 93.3053 59.7182 91.1087H57.9182C57.9182 94.3056 60.5267 96.9 63.7273 96.9V95.1ZM116.049 39.9277L101.999 25.9288L100.728 27.2039L114.778 41.2028L116.049 39.9277ZM100.464 26.5663V40.5652H102.264V26.5663H100.464ZM101.364 41.4652H115.413V39.6652H101.364V41.4652Z" fill="white"/>
</g>
<path fill-rule="evenodd" clip-rule="evenodd" d="M59.4444 78.0654H108.556C109.353 78.0654 110 77.3366 110 76.435V55.2393C110 54.3377 109.353 53.6089 108.556 53.6089H59.4444C58.6471 53.6089 58 54.3377 58 55.2393V76.435C58 77.3366 58.6471 78.0654 59.4444 78.0654Z" fill="#2E92FF" fill-opacity="0.1"/>
<path d="M108.556 77.1654H59.4444V78.9654H108.556V77.1654ZM109.1 76.435C109.1 76.9445 108.757 77.1654 108.556 77.1654V78.9654C109.949 78.9654 110.9 77.7287 110.9 76.435H109.1ZM109.1 55.2393V76.435H110.9V55.2393H109.1ZM108.556 54.5089C108.757 54.5089 109.1 54.7298 109.1 55.2393H110.9C110.9 53.9456 109.949 52.7089 108.556 52.7089V54.5089ZM59.4444 54.5089H108.556V52.7089H59.4444V54.5089ZM58.9 55.2393C58.9 54.7298 59.243 54.5089 59.4444 54.5089V52.7089C58.0512 52.7089 57.1 53.9456 57.1 55.2393H58.9ZM58.9 76.435V55.2393H57.1V76.435H58.9ZM59.4444 77.1654C59.243 77.1654 58.9 76.9445 58.9 76.435H57.1C57.1 77.7287 58.0512 78.9654 59.4444 78.9654V77.1654Z" fill="white"/>
<path d="M71.944 68.992C71.7893 68.992 71.6693 68.952 71.584 68.872C71.504 68.7867 71.464 68.6667 71.464 68.512V68.376C71.464 68.2213 71.504 68.104 71.584 68.024C71.6693 67.9387 71.7893 67.896 71.944 67.896H72.048C72.2027 67.896 72.32 67.9387 72.4 68.024C72.4853 68.104 72.528 68.2213 72.528 68.376V68.512C72.528 68.6667 72.4853 68.7867 72.4 68.872C72.32 68.952 72.2027 68.992 72.048 68.992H71.944ZM76.0649 63.4C76.5662 63.4 76.9956 63.5253 77.3529 63.776C77.7156 64.0213 77.9902 64.3573 78.1769 64.784C78.3689 65.2053 78.4649 65.6773 78.4649 66.2C78.4649 66.7227 78.3689 67.1973 78.1769 67.624C77.9902 68.0453 77.7156 68.3813 77.3529 68.632C76.9956 68.8773 76.5662 69 76.0649 69H74.1529C74.0142 69 73.8969 68.9547 73.8009 68.864C73.7102 68.768 73.6649 68.6507 73.6649 68.512V63.888C73.6649 63.7493 73.7102 63.6347 73.8009 63.544C73.8969 63.448 74.0142 63.4 74.1529 63.4H76.0649ZM75.9849 68.08C76.4649 68.08 76.8249 67.904 77.0649 67.552C77.3049 67.1947 77.4249 66.744 77.4249 66.2C77.4249 65.656 77.3022 65.208 77.0569 64.856C76.8169 64.4987 76.4596 64.32 75.9849 64.32H74.6649V68.08H75.9849ZM84.6084 66.2C84.6084 66.728 84.4911 67.2133 84.2564 67.656C84.0217 68.0933 83.6964 68.44 83.2804 68.696C82.8697 68.952 82.4057 69.08 81.8884 69.08C81.3711 69.08 80.9044 68.952 80.4884 68.696C80.0777 68.44 79.7551 68.0933 79.5204 67.656C79.2911 67.2133 79.1764 66.728 79.1764 66.2C79.1764 65.672 79.2911 65.1893 79.5204 64.752C79.7551 64.3093 80.0777 63.96 80.4884 63.704C80.9044 63.448 81.3711 63.32 81.8884 63.32C82.4057 63.32 82.8697 63.448 83.2804 63.704C83.6964 63.96 84.0217 64.3093 84.2564 64.752C84.4911 65.1893 84.6084 65.672 84.6084 66.2ZM83.5684 66.2C83.5684 65.8427 83.4964 65.52 83.3524 65.232C83.2084 64.9387 83.0084 64.7067 82.7524 64.536C82.4964 64.3653 82.2084 64.28 81.8884 64.28C81.5631 64.28 81.2724 64.3653 81.0164 64.536C80.7657 64.7013 80.5684 64.9307 80.4244 65.224C80.2857 65.5173 80.2164 65.8427 80.2164 66.2C80.2164 66.5573 80.2857 66.8827 80.4244 67.176C80.5684 67.4693 80.7657 67.7013 81.0164 67.872C81.2724 68.0373 81.5631 68.12 81.8884 68.12C82.2084 68.12 82.4964 68.0347 82.7524 67.864C83.0084 67.6933 83.2084 67.464 83.3524 67.176C83.4964 66.8827 83.5684 66.5573 83.5684 66.2ZM89.5194 63.672C89.6848 63.7573 89.7674 63.8933 89.7674 64.08C89.7674 64.192 89.7274 64.3013 89.6474 64.408C89.5621 64.52 89.4528 64.576 89.3194 64.576C89.2288 64.576 89.1381 64.552 89.0474 64.504C88.7861 64.3813 88.5034 64.32 88.1994 64.32C87.8261 64.32 87.5008 64.4 87.2234 64.56C86.9461 64.7147 86.7328 64.936 86.5834 65.224C86.4341 65.5067 86.3594 65.832 86.3594 66.2C86.3594 66.8293 86.5274 67.3067 86.8634 67.632C87.2048 67.9573 87.6501 68.12 88.1994 68.12C88.5248 68.12 88.8074 68.0587 89.0474 67.936C89.1434 67.8933 89.2288 67.872 89.3034 67.872C89.4421 67.872 89.5594 67.9307 89.6554 68.048C89.7354 68.1493 89.7754 68.2587 89.7754 68.376C89.7754 68.4613 89.7541 68.5387 89.7114 68.608C89.6688 68.6773 89.6074 68.7307 89.5274 68.768C89.1114 68.976 88.6688 69.08 88.1994 69.08C87.6768 69.08 87.1968 68.9707 86.7594 68.752C86.3221 68.528 85.9728 68.2 85.7114 67.768C85.4501 67.336 85.3194 66.8133 85.3194 66.2C85.3194 65.656 85.4421 65.168 85.6874 64.736C85.9381 64.304 86.2821 63.968 86.7194 63.728C87.1568 63.4827 87.6501 63.36 88.1994 63.36C88.6741 63.36 89.1141 63.464 89.5194 63.672Z" fill="#278CFD"/>
</g>
<defs>
<clipPath id="clip0">
<rect width="63" height="75" fill="white" transform="translate(58 21)"/>
</clipPath>
</defs>
</svg>
