<svg width="22" height="22" viewBox="0 0 22 22" fill="none" xmlns="http://www.w3.org/2000/svg">
<g clip-path="url(#clip0)">
<path d="M11 22C17.0751 22 22 17.0751 22 11C22 4.92487 17.0751 0 11 0C4.92487 0 0 4.92487 0 11C0 17.0751 4.92487 22 11 22Z" fill="#F0F0F0"/>
<path d="M10.522 11H22.0002C22.0002 10.0071 21.8679 9.04535 21.6213 8.13037H10.522V11Z" fill="#D80027"/>
<path d="M10.522 5.2607H20.3857C19.7123 4.1619 18.8515 3.19068 17.8476 2.39111H10.522V5.2607Z" fill="#D80027"/>
<path d="M11.0002 21.9997C13.589 21.9997 15.9685 21.1049 17.8476 19.6084H4.15283C6.0319 21.1049 8.41138 21.9997 11.0002 21.9997Z" fill="#D80027"/>
<path d="M1.61447 16.7387H20.3855C20.926 15.8567 21.3453 14.8924 21.621 13.8691H0.378906C0.654637 14.8924 1.07388 15.8567 1.61447 16.7387Z" fill="#D80027"/>
<path d="M11 11C11 4.92491 11 4.2087 11 0C4.92491 0 0 4.92491 0 11H11Z" fill="#0052B4"/>
<path d="M7.31444 9.41602C5.81216 9.41602 4.59434 8.19816 4.59434 6.69593C4.59434 5.1937 5.81221 3.97583 7.31444 3.97583C7.78284 3.97583 8.22357 4.0943 8.60836 4.30278C8.00473 3.71252 7.17922 3.34814 6.26824 3.34814C4.41933 3.34814 2.92041 4.84702 2.92041 6.69597C2.92041 8.54492 4.41933 10.0438 6.26824 10.0438C7.17922 10.0438 8.00473 9.67942 8.60836 9.08916C8.22357 9.29756 7.78288 9.41602 7.31444 9.41602Z" fill="#FFDA44"/>
<path d="M8.08095 4.78271L8.56388 5.79257L9.65447 5.5406L9.16608 6.54774L10.0432 7.24328L8.95115 7.48944L8.9542 8.60882L8.08095 7.90852L7.20765 8.60882L7.21066 7.48944L6.11865 7.24328L6.99573 6.54774L6.5073 5.5406L7.59798 5.79257L8.08095 4.78271Z" fill="#FFDA44"/>
</g>
<defs>
<clipPath id="clip0">
<rect width="22" height="22" fill="white"/>
</clipPath>
</defs>
</svg>
