<svg width="27" height="25" viewBox="0 0 27 25" fill="none" xmlns="http://www.w3.org/2000/svg">
<g clip-path="url(#clip0)">
<path fill-rule="evenodd" clip-rule="evenodd" d="M25 8.33333H23.7179V5.76923C23.7179 5.06218 23.1429 4.48718 22.4359 4.48718H14.1026C13.9526 4.48718 13.8077 4.43462 13.6923 4.3391L10.0244 1.28205H2.5641C1.85705 1.28205 1.28205 1.85705 1.28205 2.5641V7.05128H25V8.33333H1.28205H0V2.5641C0 1.15 1.15 0 2.5641 0H10.2564C10.4064 0 10.5513 0.0525641 10.6667 0.148077L14.3346 3.20513H22.4359C23.85 3.20513 25 4.35513 25 5.76923V8.33333Z" fill="#2E92FF"/>
<path d="M25 8.33333H23.7179V5.76923C23.7179 5.06218 23.1429 4.48718 22.4359 4.48718H14.1026C13.9526 4.48718 13.8077 4.43462 13.6923 4.3391L10.0244 1.28205H2.5641C1.85705 1.28205 1.28205 1.85705 1.28205 2.5641V7.05128H25V8.33333H1.28205H0V2.5641C0 1.15 1.15 0 2.5641 0H10.2564C10.4064 0 10.5513 0.0525641 10.6667 0.148077L14.3346 3.20513H22.4359C23.85 3.20513 25 4.35513 25 5.76923V8.33333Z" stroke="white" stroke-width="0.2"/>
<rect y="6" width="27" height="19" rx="2" fill="#E0EEFD" stroke="#4DA1FF"/>
<g opacity="0.74" clip-path="url(#clip1)">
<path fill-rule="evenodd" clip-rule="evenodd" d="M8.62523 15.5574L15.269 18.386L16.0222 12.0759L8.62523 15.5574ZM15.4259 18.8252C15.3997 18.8252 15.3738 18.8199 15.3495 18.8097L8.11052 15.7276C8.0446 15.6995 8.00146 15.6375 7.99996 15.5687C7.99865 15.4999 8.03918 15.4365 8.10399 15.4059L16.1638 11.6129C16.2248 11.5841 16.2978 11.5893 16.3539 11.6268C16.4099 11.6641 16.4398 11.7275 16.4321 11.7922L15.6113 18.6675C15.6046 18.7237 15.57 18.7738 15.5183 18.8017C15.4897 18.8174 15.4578 18.8252 15.4259 18.8252Z" fill="#278CFD"/>
<path d="M8.62523 15.5574L8.54006 15.3764L8.13615 15.5665L8.54688 15.7414L8.62523 15.5574ZM15.269 18.386L15.1906 18.57L15.436 18.6745L15.4676 18.4097L15.269 18.386ZM16.0222 12.0759L16.2208 12.0996L16.2636 11.7413L15.937 11.8949L16.0222 12.0759ZM15.3495 18.8097L15.2711 18.9937L15.2725 18.9943L15.3495 18.8097ZM8.11052 15.7276L8.03215 15.9116L8.03218 15.9116L8.11052 15.7276ZM7.99996 15.5687L7.8 15.5725L7.80001 15.5731L7.99996 15.5687ZM8.10399 15.4059L8.01882 15.225L8.01866 15.225L8.10399 15.4059ZM16.1638 11.6129L16.2489 11.7939L16.249 11.7938L16.1638 11.6129ZM16.3539 11.6268L16.2426 11.793L16.243 11.7932L16.3539 11.6268ZM16.4321 11.7922L16.6307 11.8159L16.6307 11.8157L16.4321 11.7922ZM15.6113 18.6675L15.8099 18.6913L15.8099 18.6912L15.6113 18.6675ZM15.5183 18.8017L15.4234 18.6257L15.4223 18.6263L15.5183 18.8017ZM8.54688 15.7414L15.1906 18.57L15.3473 18.202L8.70358 15.3733L8.54688 15.7414ZM15.4676 18.4097L16.2208 12.0996L15.8236 12.0522L15.0704 18.3623L15.4676 18.4097ZM15.937 11.8949L8.54006 15.3764L8.7104 15.7383L16.1074 12.2569L15.937 11.8949ZM15.4259 18.6252L15.4265 18.6251L15.2725 18.9943C15.3204 19.0143 15.3725 19.0252 15.4259 19.0252V18.6252ZM15.4278 18.6257L8.18887 15.5436L8.03218 15.9116L15.2711 18.9937L15.4278 18.6257ZM8.1889 15.5436C8.19146 15.5447 8.19961 15.5505 8.19991 15.5644L7.80001 15.5731C7.8033 15.7245 7.89773 15.8544 8.03215 15.9116L8.1889 15.5436ZM8.19993 15.5649C8.20019 15.579 8.19198 15.5856 8.18931 15.5868L8.01866 15.225C7.88638 15.2874 7.79712 15.4209 7.8 15.5725L8.19993 15.5649ZM8.18915 15.5869L16.2489 11.7939L16.0786 11.4319L8.01882 15.225L8.18915 15.5869ZM16.249 11.7938C16.2476 11.7945 16.2467 11.7945 16.2463 11.7945C16.2458 11.7944 16.2445 11.7942 16.2426 11.793L16.4651 11.4606C16.3501 11.3836 16.2024 11.3736 16.0785 11.432L16.249 11.7938ZM16.243 11.7932C16.241 11.7919 16.2382 11.7891 16.236 11.7847C16.2339 11.7801 16.2328 11.7745 16.2335 11.7687L16.6307 11.8157C16.6476 11.6736 16.5812 11.5379 16.4648 11.4603L16.243 11.7932ZM16.2335 11.7685L15.4127 18.6438L15.8099 18.6912L16.6307 11.8159L16.2335 11.7685ZM15.4127 18.6438C15.414 18.633 15.4199 18.6276 15.4234 18.6257L15.6133 18.9777C15.7202 18.9201 15.7952 18.8143 15.8099 18.6913L15.4127 18.6438ZM15.4223 18.6263C15.4241 18.6253 15.4254 18.6252 15.4259 18.6252V19.0252C15.4903 19.0252 15.5554 19.0094 15.6143 18.9772L15.4223 18.6263Z" fill="#278CFD"/>
<path fill-rule="evenodd" clip-rule="evenodd" d="M11.5114 19.9353C11.4944 19.9353 11.4772 19.933 11.4602 19.9285C11.3794 19.9065 11.3241 19.8359 11.3247 19.7561L11.348 16.9124C11.3484 16.8699 11.3648 16.829 11.3941 16.797L16.1031 11.6559C16.1711 11.5819 16.2891 11.5743 16.3668 11.6386C16.4445 11.7033 16.4525 11.8155 16.3847 11.8894L11.7212 16.981L11.7034 19.1168L12.7325 17.5117C12.7864 17.4278 12.9013 17.4013 12.9892 17.4525C13.0772 17.5035 13.105 17.6132 13.0512 17.6967L11.6709 19.8501C11.6364 19.904 11.5753 19.9353 11.5114 19.9353Z" fill="#278CFD"/>
<path d="M11.5114 19.9353C11.4944 19.9353 11.4772 19.933 11.4602 19.9285C11.3794 19.9065 11.3241 19.8359 11.3247 19.7561L11.348 16.9124C11.3484 16.8699 11.3648 16.829 11.3941 16.797L16.1031 11.6559C16.1711 11.5819 16.2891 11.5743 16.3668 11.6386C16.4445 11.7033 16.4525 11.8155 16.3847 11.8894L11.7212 16.981L11.7034 19.1168L12.7325 17.5117C12.7864 17.4278 12.9013 17.4013 12.9892 17.4525C13.0772 17.5035 13.105 17.6132 13.0512 17.6967L11.6709 19.8501C11.6364 19.904 11.5753 19.9353 11.5114 19.9353" stroke="#278CFD" stroke-width="0.4"/>
</g>
</g>
<defs>
<clipPath id="clip0">
<rect width="27" height="25" fill="white"/>
</clipPath>
<clipPath id="clip1">
<rect width="9" height="9" fill="white" transform="translate(8 11.4167)"/>
</clipPath>
</defs>
</svg>
