<svg width="27" height="25" viewBox="0 0 27 25" fill="none" xmlns="http://www.w3.org/2000/svg">
<g clip-path="url(#clip0)">
<path fill-rule="evenodd" clip-rule="evenodd" d="M25 8.33333H23.7179V5.76923C23.7179 5.06218 23.1429 4.48718 22.4359 4.48718H14.1026C13.9526 4.48718 13.8077 4.43462 13.6923 4.3391L10.0244 1.28205H2.5641C1.85705 1.28205 1.28205 1.85705 1.28205 2.5641V7.05128H25V8.33333H1.28205H0V2.5641C0 1.15 1.15 0 2.5641 0H10.2564C10.4064 0 10.5513 0.0525641 10.6667 0.148077L14.3346 3.20513H22.4359C23.85 3.20513 25 4.35513 25 5.76923V8.33333Z" fill="#2E92FF"/>
<path d="M25 8.33333H23.7179V5.76923C23.7179 5.06218 23.1429 4.48718 22.4359 4.48718H14.1026C13.9526 4.48718 13.8077 4.43462 13.6923 4.3391L10.0244 1.28205H2.5641C1.85705 1.28205 1.28205 1.85705 1.28205 2.5641V7.05128H25V8.33333H1.28205H0V2.5641C0 1.15 1.15 0 2.5641 0H10.2564C10.4064 0 10.5513 0.0525641 10.6667 0.148077L14.3346 3.20513H22.4359C23.85 3.20513 25 4.35513 25 5.76923V8.33333Z" stroke="white" stroke-width="0.2"/>
<rect y="6" width="27" height="19" rx="2" fill="#E0EEFD" stroke="#4DA1FF"/>
</g>
<defs>
<clipPath id="clip0">
<rect width="27" height="25" fill="white"/>
</clipPath>
</defs>
</svg>
