<svg width="180" height="154" viewBox="0 0 180 154" fill="none" xmlns="http://www.w3.org/2000/svg">
<rect x="1" y="1" width="178" height="152.181" rx="5" stroke="#DADADA"/>
<g clip-path="url(#clip0)">
<g opacity="0.800951">
<path fill-rule="evenodd" clip-rule="evenodd" d="M63.7273 99H116.091C118.797 99 121 96.8054 121 94.1087V45.1957C121 44.762 120.828 44.3478 120.521 44.0429L100.884 24.4777C100.578 24.1712 100.161 24 99.7273 24H63.7273C61.0207 24 58.8182 26.1946 58.8182 28.8913V58.2391H62.0909V28.8913C62.0909 27.9913 62.8256 27.2609 63.7273 27.2609H98.9909C98.4938 27.2609 98.0909 27.6638 98.0909 28.1609V45.1957C98.0909 46.0973 98.824 46.8261 99.7273 46.8261H117.727V94.1087C117.727 95.0087 116.993 95.7391 116.091 95.7391H63.7273C62.8256 95.7391 62.0909 95.0087 62.0909 94.1087V79.8043H58.8182V94.1087C58.8182 96.8054 61.0207 99 63.7273 99ZM115.413 43.5652L101.364 29.5663V43.5652H115.413Z" fill="#989898"/>
<path d="M120.521 44.0429L119.885 44.6805L119.887 44.6822L120.521 44.0429ZM100.884 24.4777L100.247 25.1136L100.249 25.1153L100.884 24.4777ZM58.8182 58.2391H57.9182V59.1391H58.8182V58.2391ZM62.0909 58.2391V59.1391H62.9909V58.2391H62.0909ZM117.727 46.8261H118.627V45.9261H117.727V46.8261ZM62.0909 79.8043H62.9909V78.9043H62.0909V79.8043ZM58.8182 79.8043V78.9043H57.9182V79.8043H58.8182ZM115.413 43.5652V44.4652H117.592L116.049 42.9277L115.413 43.5652ZM101.364 29.5663L101.999 28.9288L100.464 27.3991V29.5663H101.364ZM101.364 43.5652H100.464V44.4652H101.364V43.5652ZM116.091 98.1H63.7273V99.9H116.091V98.1ZM120.1 94.1087C120.1 96.3053 118.303 98.1 116.091 98.1V99.9C119.291 99.9 121.9 97.3056 121.9 94.1087H120.1ZM120.1 45.1957V94.1087H121.9V45.1957H120.1ZM119.887 44.6822C120.023 44.8171 120.1 45.0007 120.1 45.1957H121.9C121.9 44.5232 121.633 43.8785 121.154 43.4037L119.887 44.6822ZM100.249 25.1153L119.885 44.6805L121.156 43.4054L101.519 23.8402L100.249 25.1153ZM99.7273 24.9C99.9247 24.9 100.112 24.9781 100.247 25.1136L101.521 23.8419C101.044 23.3643 100.397 23.1 99.7273 23.1V24.9ZM63.7273 24.9H99.7273V23.1H63.7273V24.9ZM59.7182 28.8913C59.7182 26.6947 61.5147 24.9 63.7273 24.9V23.1C60.5267 23.1 57.9182 25.6944 57.9182 28.8913H59.7182ZM59.7182 58.2391V28.8913H57.9182V58.2391H59.7182ZM62.0909 57.3391H58.8182V59.1391H62.0909V57.3391ZM61.1909 28.8913V58.2391H62.9909V28.8913H61.1909ZM63.7273 26.3609C62.3322 26.3609 61.1909 27.4906 61.1909 28.8913H62.9909C62.9909 28.492 63.319 28.1609 63.7273 28.1609V26.3609ZM98.9909 26.3609H63.7273V28.1609H98.9909V26.3609ZM98.9909 28.1609V28.1609V26.3609C97.9968 26.3609 97.1909 27.1668 97.1909 28.1609H98.9909ZM98.9909 45.1957V28.1609H97.1909V45.1957H98.9909ZM99.7273 45.9261C99.3174 45.9261 98.9909 45.5966 98.9909 45.1957H97.1909C97.1909 46.598 98.3306 47.7261 99.7273 47.7261V45.9261ZM117.727 45.9261H99.7273V47.7261H117.727V45.9261ZM118.627 94.1087V46.8261H116.827V94.1087H118.627ZM116.091 96.6391C117.486 96.6391 118.627 95.5094 118.627 94.1087H116.827C116.827 94.508 116.499 94.8391 116.091 94.8391V96.6391ZM63.7273 96.6391H116.091V94.8391H63.7273V96.6391ZM61.1909 94.1087C61.1909 95.5094 62.3322 96.6391 63.7273 96.6391V94.8391C63.319 94.8391 62.9909 94.508 62.9909 94.1087H61.1909ZM61.1909 79.8043V94.1087H62.9909V79.8043H61.1909ZM58.8182 80.7043H62.0909V78.9043H58.8182V80.7043ZM59.7182 94.1087V79.8043H57.9182V94.1087H59.7182ZM63.7273 98.1C61.5147 98.1 59.7182 96.3053 59.7182 94.1087H57.9182C57.9182 97.3056 60.5267 99.9 63.7273 99.9V98.1ZM116.049 42.9277L101.999 28.9288L100.728 30.2039L114.778 44.2028L116.049 42.9277ZM100.464 29.5663V43.5652H102.264V29.5663H100.464ZM101.364 44.4652H115.413V42.6652H101.364V44.4652Z" fill="white"/>
</g>
<path fill-rule="evenodd" clip-rule="evenodd" d="M59.4444 81.0652H108.556C109.353 81.0652 110 80.3364 110 79.4348V58.2391C110 57.3375 109.353 56.6087 108.556 56.6087H59.4444C58.6471 56.6087 58 57.3375 58 58.2391V79.4348C58 80.3364 58.6471 81.0652 59.4444 81.0652Z" fill="#989898" fill-opacity="0.1"/>
<path d="M108.556 80.1652H59.4444V81.9652H108.556V80.1652ZM109.1 79.4348C109.1 79.9443 108.757 80.1652 108.556 80.1652V81.9652C109.949 81.9652 110.9 80.7285 110.9 79.4348H109.1ZM109.1 58.2391V79.4348H110.9V58.2391H109.1ZM108.556 57.5087C108.757 57.5087 109.1 57.7296 109.1 58.2391H110.9C110.9 56.9454 109.949 55.7087 108.556 55.7087V57.5087ZM59.4444 57.5087H108.556V55.7087H59.4444V57.5087ZM58.9 58.2391C58.9 57.7296 59.243 57.5087 59.4444 57.5087V55.7087C58.0512 55.7087 57.1 56.9454 57.1 58.2391H58.9ZM58.9 79.4348V58.2391H57.1V79.4348H58.9ZM59.4444 80.1652C59.243 80.1652 58.9 79.9443 58.9 79.4348H57.1C57.1 80.7285 58.0512 81.9652 59.4444 81.9652V80.1652Z" fill="white"/>
<path d="M74.944 71.992C74.7893 71.992 74.6693 71.952 74.584 71.872C74.504 71.7867 74.464 71.6667 74.464 71.512V71.376C74.464 71.2213 74.504 71.104 74.584 71.024C74.6693 70.9387 74.7893 70.896 74.944 70.896H75.048C75.2027 70.896 75.32 70.9387 75.4 71.024C75.4853 71.104 75.528 71.2213 75.528 71.376V71.512C75.528 71.6667 75.4853 71.7867 75.4 71.872C75.32 71.952 75.2027 71.992 75.048 71.992H74.944ZM78.9769 66.4C79.2489 66.4 79.5076 66.4827 79.7529 66.648C79.9982 66.808 80.1956 67.0267 80.3449 67.304C80.4942 67.576 80.5689 67.8747 80.5689 68.2C80.5689 68.52 80.4942 68.8187 80.3449 69.096C80.1956 69.3733 79.9982 69.5947 79.7529 69.76C79.5076 69.92 79.2489 70 78.9769 70H77.5849V71.512C77.5849 71.656 77.5422 71.7733 77.4569 71.864C77.3716 71.9547 77.2596 72 77.1209 72C76.9876 72 76.8782 71.9547 76.7929 71.864C76.7076 71.768 76.6649 71.6507 76.6649 71.512V66.888C76.6649 66.7493 76.7102 66.6347 76.8009 66.544C76.8969 66.448 77.0142 66.4 77.1529 66.4H78.9769ZM78.9769 69.088C79.0782 69.088 79.1769 69.0453 79.2729 68.96C79.3742 68.8747 79.4542 68.7653 79.5129 68.632C79.5769 68.4933 79.6089 68.3493 79.6089 68.2C79.6089 68.0507 79.5769 67.9093 79.5129 67.776C79.4542 67.6373 79.3742 67.528 79.2729 67.448C79.1769 67.3627 79.0782 67.32 78.9769 67.32H77.5849V69.088H78.9769ZM83.358 72.08C82.974 72.08 82.6326 72.032 82.334 71.936C82.0353 71.84 81.7553 71.6773 81.494 71.448C81.35 71.32 81.278 71.1787 81.278 71.024C81.278 70.9013 81.3233 70.7947 81.414 70.704C81.5046 70.608 81.614 70.56 81.742 70.56C81.8433 70.56 81.934 70.592 82.014 70.656C82.2273 70.832 82.4353 70.96 82.638 71.04C82.8406 71.12 83.0806 71.16 83.358 71.16C83.6566 71.16 83.9126 71.0933 84.126 70.96C84.3446 70.8267 84.454 70.6613 84.454 70.464C84.454 70.224 84.3473 70.0373 84.134 69.904C83.9206 69.7653 83.582 69.6613 83.118 69.592C81.95 69.4213 81.366 68.8773 81.366 67.96C81.366 67.624 81.454 67.3333 81.63 67.088C81.806 66.8373 82.046 66.648 82.35 66.52C82.654 66.3867 82.9926 66.32 83.366 66.32C83.702 66.32 84.0166 66.3707 84.31 66.472C84.6086 66.5733 84.8566 66.7067 85.054 66.872C85.2086 66.9947 85.286 67.136 85.286 67.296C85.286 67.4187 85.2406 67.528 85.15 67.624C85.0593 67.7147 84.9526 67.76 84.83 67.76C84.75 67.76 84.678 67.736 84.614 67.688C84.4753 67.576 84.2806 67.4747 84.03 67.384C83.7846 67.288 83.5633 67.24 83.366 67.24C83.03 67.24 82.7686 67.304 82.582 67.432C82.4006 67.5547 82.31 67.7173 82.31 67.92C82.31 68.1493 82.4033 68.3227 82.59 68.44C82.782 68.5573 83.0806 68.6533 83.486 68.728C83.9446 68.808 84.31 68.912 84.582 69.04C84.8593 69.1627 85.0673 69.3333 85.206 69.552C85.3446 69.7653 85.414 70.0507 85.414 70.408C85.414 70.744 85.318 71.04 85.126 71.296C84.9393 71.5467 84.6886 71.7413 84.374 71.88C84.0593 72.0133 83.7206 72.08 83.358 72.08ZM88.8041 66.4C89.3055 66.4 89.7348 66.5253 90.0921 66.776C90.4548 67.0213 90.7295 67.3573 90.9161 67.784C91.1081 68.2053 91.2041 68.6773 91.2041 69.2C91.2041 69.7227 91.1081 70.1973 90.9161 70.624C90.7295 71.0453 90.4548 71.3813 90.0921 71.632C89.7348 71.8773 89.3055 72 88.8041 72H86.8921C86.7535 72 86.6361 71.9547 86.5401 71.864C86.4495 71.768 86.4041 71.6507 86.4041 71.512V66.888C86.4041 66.7493 86.4495 66.6347 86.5401 66.544C86.6361 66.448 86.7535 66.4 86.8921 66.4H88.8041ZM88.7241 71.08C89.2041 71.08 89.5641 70.904 89.8041 70.552C90.0441 70.1947 90.1641 69.744 90.1641 69.2C90.1641 68.656 90.0415 68.208 89.7961 67.856C89.5561 67.4987 89.1988 67.32 88.7241 67.32H87.4041V71.08H88.7241Z" fill="#989898"/>
</g>
<defs>
<clipPath id="clip0">
<rect width="63" height="75" fill="white" transform="translate(58 24)"/>
</clipPath>
</defs>
</svg>
