<svg width="17" height="16" viewBox="0 0 17 16" fill="none" xmlns="http://www.w3.org/2000/svg">
<path d="M15.5356 5.63406L10.8959 4.90408L8.82185 0.352135C8.76521 0.227506 8.67201 0.126615 8.55688 0.0652895C8.26816 -0.0890138 7.9173 0.0395723 7.77294 0.352135L5.69886 4.90408L1.05915 5.63406C0.931229 5.65384 0.814277 5.71912 0.724735 5.81803C0.616485 5.93848 0.556833 6.10053 0.558889 6.26856C0.560945 6.4366 0.62454 6.59688 0.7357 6.71418L4.0926 10.2572L3.29951 15.2602C3.28092 15.3766 3.29281 15.4963 3.33385 15.6057C3.3749 15.7151 3.44344 15.8099 3.53172 15.8793C3.61999 15.9488 3.72446 15.99 3.83329 15.9984C3.94212 16.0068 4.05094 15.982 4.14742 15.9269L8.2974 13.5648L12.4474 15.9269C12.5607 15.9922 12.6922 16.0139 12.8183 15.9902C13.1363 15.9308 13.3501 15.6044 13.2953 15.2602L12.5022 10.2572L15.8591 6.71418C15.9505 6.61724 16.0108 6.49064 16.029 6.35216C16.0784 6.00597 15.8554 5.68549 15.5356 5.63406Z" fill="#E0E0E0"/>
</svg>
