<svg width="15" height="15" viewBox="0 0 15 15" fill="none" xmlns="http://www.w3.org/2000/svg">
<path d="M7.40597 0C8.80674 0 10.0973 0.331312 11.2581 0.993937C12.4254 1.65656 13.3398 2.57254 14.0013 3.73538C14.6628 4.89822 15 6.1845 15 7.5942C15 8.90645 14.6628 10.1408 13.9883 11.2841C13.3139 12.4275 12.3995 13.3369 11.2387 13.9996C10.0778 14.6687 8.83268 15 7.50324 15C6.14786 15 4.89624 14.6622 3.73541 13.9931C2.58106 13.324 1.66667 12.408 0.998703 11.2386C0.330739 10.0758 0 8.80901 0 7.43829C0 6.11953 0.330739 4.88523 0.998703 3.73538C1.66667 2.58553 2.56809 1.67605 3.71595 1.00693C4.86381 0.337809 6.08949 0 7.40597 0ZM7.49676 14.1945C8.67704 14.1945 9.78599 13.8956 10.8171 13.298C11.8482 12.7003 12.6654 11.8883 13.2685 10.8683C13.8716 9.84192 14.1699 8.75054 14.1699 7.5812C14.1699 6.32741 13.8716 5.17757 13.2815 4.13816C12.6913 3.09874 11.8742 2.2867 10.8366 1.69554C9.79896 1.10437 8.6511 0.81204 7.39948 0.81204C6.23217 0.81204 5.14267 1.11087 4.12451 1.70853C3.10636 2.30619 2.3022 3.11823 1.70558 4.14465C1.10895 5.17107 0.817121 6.26895 0.817121 7.44478C0.817121 8.65959 1.11543 9.78995 1.70558 10.8359C2.3022 11.8753 3.11284 12.7003 4.14397 13.298C5.1751 13.8956 6.29702 14.1945 7.49676 14.1945ZM4.86381 11.1672H6.28405V6.80165H5.00648V5.92464H8.93645V11.1672H10.1297V12.0507H4.86381V11.1672ZM6.25162 3.54049C6.25162 3.1767 6.38132 2.86488 6.64073 2.60502C6.90013 2.34517 7.20493 2.21524 7.56809 2.21524C7.93126 2.21524 8.23606 2.34517 8.50195 2.60502C8.76135 2.86488 8.89105 3.1767 8.89105 3.54049C8.89105 3.90429 8.76135 4.20961 8.50195 4.47596C8.24254 4.73582 7.93126 4.86574 7.56809 4.86574C7.20493 4.86574 6.90013 4.73582 6.64073 4.47596C6.38132 4.21611 6.25162 3.90429 6.25162 3.54049Z" fill="#EB5757"/>
</svg>
