<svg width="44" height="45" viewBox="0 0 44 45" fill="none" xmlns="http://www.w3.org/2000/svg">
<path d="M34.2032 7.19297C30.7354 4.35526 26.4259 2.81026 21.9846 2.8125C16.7493 2.8125 11.8595 4.8753 8.20369 8.62119C4.67079 12.2458 2.73462 17.0314 2.75009 22.0931C2.75021 25.8041 3.81547 29.4334 5.81376 32.531L5.83009 32.5547C5.85415 32.5907 5.87908 32.6268 5.904 32.6619C5.92892 32.6971 5.95986 32.7428 5.96673 32.7542L5.98564 32.7894C6.08275 32.9651 6.15751 33.1796 6.09134 33.3958L4.50837 39.2546C4.44505 39.4725 4.41037 39.698 4.40525 39.9252C4.4041 40.523 4.63479 41.0968 5.04671 41.5209C5.45864 41.945 6.01819 42.1847 6.60267 42.1875C6.91153 42.1771 7.2159 42.1088 7.50072 41.9862L13.3006 39.8452L13.3737 39.8162C13.5315 39.7485 13.701 39.7141 13.8721 39.7151C14.0299 39.7155 14.1863 39.7453 14.3336 39.803C14.4728 39.8584 15.737 40.3532 17.0707 40.7347C18.1793 41.0511 20.4859 41.5257 22.2931 41.5257C27.4193 41.5257 32.206 39.4954 35.7707 35.8075C39.3045 32.1478 41.2501 27.283 41.2501 22.1036C41.2505 20.7741 41.1128 19.4483 40.8393 18.1485C39.9507 13.8753 37.5943 9.9835 34.2032 7.19297Z" fill="#4DA1FF"/>
<path d="M13.2596 19V13.32H14.5716V17.848H17.3236V19H13.2596ZM18.2353 19V14.8H19.5153V19H18.2353ZM18.2353 14.32V13.16H19.5153V14.32H18.2353ZM21.8796 19L20.3916 14.8H21.7116L22.6316 17.976L23.5596 14.8H24.7516L23.2716 19H21.8796ZM27.5042 19.08C27.1522 19.08 26.8349 19.024 26.5522 18.912C26.2749 18.7947 26.0376 18.6373 25.8402 18.44C25.6482 18.2427 25.5016 18.016 25.4002 17.76C25.2989 17.4987 25.2482 17.2267 25.2482 16.944C25.2482 16.64 25.2989 16.3547 25.4002 16.088C25.5016 15.816 25.6482 15.5787 25.8402 15.376C26.0322 15.1733 26.2669 15.0133 26.5442 14.896C26.8269 14.7787 27.1469 14.72 27.5042 14.72C27.8616 14.72 28.1789 14.7787 28.4562 14.896C28.7336 15.0133 28.9682 15.1733 29.1602 15.376C29.3522 15.5733 29.4962 15.8027 29.5922 16.064C29.6936 16.3253 29.7442 16.6 29.7442 16.888C29.7442 16.9627 29.7416 17.0373 29.7362 17.112C29.7309 17.1813 29.7229 17.2427 29.7122 17.296H26.6082C26.6296 17.5787 26.7309 17.7947 26.9122 17.944C27.0989 18.088 27.3096 18.16 27.5442 18.16C27.7309 18.16 27.9096 18.1147 28.0802 18.024C28.2562 17.9333 28.3736 17.8107 28.4322 17.656L29.5202 17.96C29.3549 18.2907 29.0989 18.56 28.7522 18.768C28.4056 18.976 27.9896 19.08 27.5042 19.08ZM28.3922 16.504C28.3656 16.2373 28.2696 16.0267 28.1042 15.872C27.9389 15.7173 27.7336 15.64 27.4882 15.64C27.2376 15.64 27.0296 15.72 26.8642 15.88C26.7042 16.0347 26.6109 16.2427 26.5842 16.504H28.3922ZM11.9754 27.112C11.9754 26.7707 12.0394 26.432 12.1674 26.096C12.2954 25.7547 12.482 25.4507 12.7274 25.184C12.9727 24.9173 13.2714 24.7013 13.6234 24.536C13.9754 24.3707 14.3754 24.288 14.8234 24.288C15.3567 24.288 15.818 24.4027 16.2074 24.632C16.602 24.8613 16.8954 25.16 17.0874 25.528L16.0794 26.232C16.0154 26.0827 15.9327 25.96 15.8314 25.864C15.7354 25.7627 15.6287 25.6827 15.5114 25.624C15.394 25.56 15.274 25.5173 15.1514 25.496C15.0287 25.4693 14.9087 25.456 14.7914 25.456C14.5407 25.456 14.322 25.5067 14.1354 25.608C13.9487 25.7093 13.794 25.84 13.6714 26C13.5487 26.16 13.458 26.3413 13.3994 26.544C13.3407 26.7467 13.3114 26.952 13.3114 27.16C13.3114 27.384 13.346 27.6 13.4154 27.808C13.4847 28.016 13.5834 28.2 13.7114 28.36C13.8447 28.52 14.002 28.648 14.1834 28.744C14.37 28.8347 14.578 28.88 14.8074 28.88C14.9247 28.88 15.0447 28.8667 15.1674 28.84C15.2954 28.808 15.4154 28.7627 15.5274 28.704C15.6447 28.64 15.7514 28.56 15.8474 28.464C15.9434 28.3627 16.0207 28.24 16.0794 28.096L17.1514 28.728C17.066 28.936 16.938 29.1227 16.7674 29.288C16.602 29.4533 16.41 29.592 16.1914 29.704C15.9727 29.816 15.7407 29.9013 15.4954 29.96C15.25 30.0187 15.01 30.048 14.7754 30.048C14.3647 30.048 13.986 29.9653 13.6394 29.8C13.298 29.6293 13.002 29.4053 12.7514 29.128C12.506 28.8507 12.314 28.536 12.1754 28.184C12.042 27.832 11.9754 27.4747 11.9754 27.112ZM22.1552 30H20.8752V27.64C20.8752 27.368 20.8219 27.168 20.7152 27.04C20.6085 26.912 20.4619 26.848 20.2752 26.848C20.2005 26.848 20.1179 26.8667 20.0272 26.904C19.9419 26.936 19.8565 26.9867 19.7712 27.056C19.6912 27.12 19.6165 27.1973 19.5472 27.288C19.4779 27.3787 19.4245 27.48 19.3872 27.592V30H18.1072V24.16H19.3872V26.504C19.5419 26.2533 19.7445 26.0613 19.9952 25.928C20.2512 25.7893 20.5312 25.72 20.8352 25.72C21.1179 25.72 21.3445 25.7707 21.5152 25.872C21.6912 25.968 21.8245 26.0933 21.9152 26.248C22.0112 26.3973 22.0752 26.568 22.1072 26.76C22.1392 26.9467 22.1552 27.1307 22.1552 27.312V30ZM24.5976 30.08C24.3896 30.08 24.195 30.048 24.0136 29.984C23.8376 29.9147 23.6856 29.8213 23.5576 29.704C23.4296 29.5813 23.3283 29.44 23.2536 29.28C23.179 29.1147 23.1416 28.936 23.1416 28.744C23.1416 28.536 23.1843 28.3467 23.2696 28.176C23.3603 28.0053 23.4856 27.8587 23.6456 27.736C23.8056 27.6133 23.995 27.5173 24.2136 27.448C24.4323 27.3787 24.675 27.344 24.9416 27.344C25.1176 27.344 25.2883 27.36 25.4536 27.392C25.619 27.4187 25.763 27.4613 25.8856 27.52V27.328C25.8856 26.8427 25.6056 26.6 25.0456 26.6C24.8163 26.6 24.5976 26.64 24.3896 26.72C24.1816 26.7947 23.963 26.9093 23.7336 27.064L23.3576 26.264C23.635 26.0827 23.923 25.9467 24.2216 25.856C24.5203 25.7653 24.8376 25.72 25.1736 25.72C25.8083 25.72 26.299 25.8693 26.6456 26.168C26.9923 26.4667 27.1656 26.904 27.1656 27.48V28.56C27.1656 28.688 27.1843 28.7787 27.2216 28.832C27.2643 28.88 27.3363 28.9093 27.4376 28.92V30C27.3256 30.0267 27.2243 30.0427 27.1336 30.048C27.043 30.0587 26.9603 30.064 26.8856 30.064C26.6456 30.064 26.4643 30.0187 26.3416 29.928C26.219 29.832 26.1416 29.6987 26.1096 29.528L26.0856 29.336C25.899 29.576 25.675 29.76 25.4136 29.888C25.1576 30.016 24.8856 30.08 24.5976 30.08ZM24.9736 29.16C25.1123 29.16 25.2456 29.136 25.3736 29.088C25.507 29.04 25.6163 28.976 25.7016 28.896C25.8243 28.8 25.8856 28.6987 25.8856 28.592V28.192C25.7736 28.1493 25.651 28.1173 25.5176 28.096C25.3896 28.0693 25.2696 28.056 25.1576 28.056C24.923 28.056 24.7283 28.1093 24.5736 28.216C24.4243 28.3227 24.3496 28.4613 24.3496 28.632C24.3496 28.7867 24.4083 28.9147 24.5256 29.016C24.643 29.112 24.7923 29.16 24.9736 29.16ZM31.1819 29.776C31.0059 29.8507 30.8032 29.92 30.5739 29.984C30.3499 30.048 30.1232 30.08 29.8939 30.08C29.7339 30.08 29.5819 30.0587 29.4379 30.016C29.2992 29.9787 29.1765 29.9173 29.0699 29.832C28.9632 29.7413 28.8779 29.624 28.8139 29.48C28.7552 29.336 28.7259 29.1627 28.7259 28.96V26.768H28.1899V25.8H28.7259V24.464H30.0059V25.8H30.8619V26.768H30.0059V28.52C30.0059 28.6587 30.0405 28.76 30.1099 28.824C30.1792 28.8827 30.2672 28.912 30.3739 28.912C30.4699 28.912 30.5685 28.896 30.6699 28.864C30.7712 28.832 30.8592 28.7973 30.9339 28.76L31.1819 29.776Z" fill="white"/>
</svg>
