<svg width="180" height="55" viewBox="0 0 180 55" fill="none" xmlns="http://www.w3.org/2000/svg">
<rect x="1" y="1" width="178" height="53" rx="5" fill="white" stroke="#439DFF" stroke-width="1.4"/>
<g clip-path="url(#clip0)">
<path fill-rule="evenodd" clip-rule="evenodd" d="M41 23.3333H39.7179V20.7692C39.7179 20.0622 39.1429 19.4872 38.4359 19.4872H30.1026C29.9526 19.4872 29.8077 19.4346 29.6923 19.3391L26.0244 16.2821H18.5641C17.8571 16.2821 17.2821 16.8571 17.2821 17.5641V22.0513H41V23.3333H17.2821H16V17.5641C16 16.15 17.15 15 18.5641 15H26.2564C26.4064 15 26.5513 15.0526 26.6667 15.1481L30.3346 18.2051H38.4359C39.85 18.2051 41 19.3551 41 20.7692V23.3333Z" fill="#2E92FF"/>
<path d="M41 23.3333H39.7179V20.7692C39.7179 20.0622 39.1429 19.4872 38.4359 19.4872H30.1026C29.9526 19.4872 29.8077 19.4346 29.6923 19.3391L26.0244 16.2821H18.5641C17.8571 16.2821 17.2821 16.8571 17.2821 17.5641V22.0513H41V23.3333H17.2821H16V17.5641C16 16.15 17.15 15 18.5641 15H26.2564C26.4064 15 26.5513 15.0526 26.6667 15.1481L30.3346 18.2051H38.4359C39.85 18.2051 41 19.3551 41 20.7692V23.3333Z" stroke="white" stroke-width="0.2"/>
<rect x="16" y="21" width="27" height="19" rx="2" fill="#E0EEFD" stroke="#4DA1FF"/>
</g>
<path d="M59.85 32V24.9H62.81C63.1233 24.9 63.41 24.9667 63.67 25.1C63.9367 25.2267 64.1633 25.4 64.35 25.62C64.5433 25.8333 64.6933 26.0767 64.8 26.35C64.9067 26.6167 64.96 26.89 64.96 27.17C64.96 27.4633 64.91 27.7467 64.81 28.02C64.71 28.2933 64.5667 28.5367 64.38 28.75C64.2 28.9633 63.98 29.1333 63.72 29.26C63.4667 29.3867 63.1833 29.45 62.87 29.45H60.75V32H59.85ZM60.75 28.65H62.82C63.0067 28.65 63.1733 28.6133 63.32 28.54C63.4733 28.46 63.6033 28.3533 63.71 28.22C63.8167 28.08 63.9 27.92 63.96 27.74C64.02 27.56 64.05 27.37 64.05 27.17C64.05 26.9633 64.0133 26.77 63.94 26.59C63.8733 26.41 63.78 26.2533 63.66 26.12C63.5467 25.9867 63.41 25.8833 63.25 25.81C63.0967 25.7367 62.9333 25.7 62.76 25.7H60.75V28.65ZM68.6528 32.1C68.2595 32.1 67.8995 32.03 67.5728 31.89C67.2461 31.7433 66.9661 31.5467 66.7328 31.3C66.4995 31.0533 66.3161 30.7667 66.1828 30.44C66.0561 30.1067 65.9928 29.7567 65.9928 29.39C65.9928 29.0233 66.0561 28.6767 66.1828 28.35C66.3161 28.0233 66.4995 27.7367 66.7328 27.49C66.9728 27.2433 67.2561 27.05 67.5828 26.91C67.9095 26.7633 68.2695 26.69 68.6628 26.69C69.0561 26.69 69.4128 26.7633 69.7328 26.91C70.0595 27.0567 70.3361 27.2533 70.5628 27.5C70.7895 27.74 70.9628 28.0233 71.0828 28.35C71.2095 28.67 71.2728 29.0033 71.2728 29.35C71.2728 29.4233 71.2695 29.49 71.2628 29.55C71.2628 29.61 71.2595 29.6567 71.2528 29.69H66.9228C66.9428 29.95 67.0028 30.1867 67.1028 30.4C67.2028 30.6133 67.3328 30.7967 67.4928 30.95C67.6528 31.1033 67.8328 31.2233 68.0328 31.31C68.2395 31.3967 68.4561 31.44 68.6828 31.44C68.8428 31.44 68.9995 31.42 69.1528 31.38C69.3061 31.3333 69.4495 31.2733 69.5828 31.2C69.7161 31.1267 69.8328 31.0367 69.9328 30.93C70.0395 30.8233 70.1195 30.7033 70.1728 30.57L70.9328 30.78C70.8461 30.9733 70.7261 31.15 70.5728 31.31C70.4261 31.47 70.2528 31.61 70.0528 31.73C69.8595 31.8433 69.6428 31.9333 69.4028 32C69.1628 32.0667 68.9128 32.1 68.6528 32.1ZM70.4428 29.04C70.4228 28.7933 70.3595 28.5667 70.2528 28.36C70.1528 28.1467 70.0228 27.9667 69.8628 27.82C69.7095 27.6733 69.5295 27.56 69.3228 27.48C69.1161 27.3933 68.8961 27.35 68.6628 27.35C68.4295 27.35 68.2095 27.3933 68.0028 27.48C67.7961 27.56 67.6128 27.6767 67.4528 27.83C67.2995 27.9767 67.1728 28.1533 67.0728 28.36C66.9795 28.5667 66.9228 28.7933 66.9028 29.04H70.4428ZM75.511 27.55C75.071 27.5633 74.681 27.6767 74.341 27.89C74.0077 28.1033 73.771 28.4 73.631 28.78V32H72.751V26.78H73.571V27.99C73.751 27.63 73.9877 27.34 74.281 27.12C74.5743 26.8933 74.8877 26.7667 75.221 26.74C75.2877 26.74 75.3443 26.74 75.391 26.74C75.4377 26.74 75.4777 26.7433 75.511 26.75V27.55ZM78.7138 32.1C78.2938 32.1 77.8805 32.0367 77.4738 31.91C77.0672 31.7767 76.7172 31.5867 76.4238 31.34L76.8038 30.75C77.1105 30.9833 77.4172 31.16 77.7238 31.28C78.0305 31.3933 78.3538 31.45 78.6938 31.45C79.0738 31.45 79.3738 31.3767 79.5938 31.23C79.8205 31.0767 79.9338 30.8633 79.9338 30.59C79.9338 30.4633 79.9038 30.3567 79.8438 30.27C79.7838 30.1767 79.6938 30.0967 79.5738 30.03C79.4538 29.9633 79.3005 29.9033 79.1138 29.85C78.9272 29.7967 78.7105 29.74 78.4638 29.68C78.1505 29.6 77.8805 29.5233 77.6538 29.45C77.4272 29.3767 77.2405 29.29 77.0938 29.19C76.9472 29.09 76.8405 28.97 76.7738 28.83C76.7072 28.69 76.6738 28.5167 76.6738 28.31C76.6738 28.05 76.7238 27.82 76.8238 27.62C76.9305 27.4133 77.0738 27.2433 77.2538 27.11C77.4338 26.97 77.6438 26.8667 77.8838 26.8C78.1305 26.7267 78.3938 26.69 78.6738 26.69C79.0672 26.69 79.4338 26.7533 79.7738 26.88C80.1138 27.0067 80.4005 27.1733 80.6338 27.38L80.2338 27.91C80.0138 27.7167 79.7672 27.5733 79.4938 27.48C79.2205 27.38 78.9405 27.33 78.6538 27.33C78.3338 27.33 78.0605 27.4 77.8338 27.54C77.6138 27.6733 77.5038 27.89 77.5038 28.19C77.5038 28.31 77.5238 28.41 77.5638 28.49C77.6105 28.57 77.6838 28.64 77.7838 28.7C77.8838 28.76 78.0105 28.8133 78.1638 28.86C78.3238 28.9067 78.5138 28.9567 78.7338 29.01C79.0805 29.09 79.3805 29.1733 79.6338 29.26C79.8938 29.34 80.1072 29.4367 80.2738 29.55C80.4472 29.6633 80.5738 29.7967 80.6538 29.95C80.7405 30.1033 80.7838 30.29 80.7838 30.51C80.7838 30.9967 80.5972 31.3833 80.2238 31.67C79.8505 31.9567 79.3472 32.1 78.7138 32.1ZM84.6052 32.1C84.2119 32.1 83.8519 32.0267 83.5252 31.88C83.2052 31.7333 82.9286 31.5367 82.6952 31.29C82.4686 31.0433 82.2919 30.7567 82.1652 30.43C82.0386 30.1033 81.9752 29.76 81.9752 29.4C81.9752 29.0333 82.0386 28.6867 82.1652 28.36C82.2986 28.0333 82.4786 27.7467 82.7052 27.5C82.9386 27.2533 83.2152 27.0567 83.5352 26.91C83.8619 26.7633 84.2186 26.69 84.6052 26.69C84.9919 26.69 85.3486 26.7633 85.6752 26.91C86.0019 27.0567 86.2786 27.2533 86.5052 27.5C86.7386 27.7467 86.9186 28.0333 87.0452 28.36C87.1786 28.6867 87.2452 29.0333 87.2452 29.4C87.2452 29.76 87.1819 30.1033 87.0552 30.43C86.9286 30.7567 86.7486 31.0433 86.5152 31.29C86.2819 31.5367 86.0019 31.7333 85.6752 31.88C85.3552 32.0267 84.9986 32.1 84.6052 32.1ZM82.8752 29.41C82.8752 29.6833 82.9186 29.9367 83.0052 30.17C83.0986 30.4033 83.2219 30.6067 83.3752 30.78C83.5352 30.9533 83.7186 31.09 83.9252 31.19C84.1386 31.29 84.3652 31.34 84.6052 31.34C84.8452 31.34 85.0686 31.29 85.2752 31.19C85.4886 31.09 85.6752 30.9533 85.8352 30.78C85.9952 30.6 86.1186 30.3933 86.2052 30.16C86.2986 29.92 86.3452 29.6633 86.3452 29.39C86.3452 29.1233 86.2986 28.8733 86.2052 28.64C86.1186 28.4 85.9952 28.1933 85.8352 28.02C85.6752 27.84 85.4886 27.7 85.2752 27.6C85.0686 27.5 84.8452 27.45 84.6052 27.45C84.3652 27.45 84.1386 27.5033 83.9252 27.61C83.7186 27.71 83.5352 27.85 83.3752 28.03C83.2219 28.2033 83.0986 28.41 83.0052 28.65C82.9186 28.8833 82.8752 29.1367 82.8752 29.41ZM93.3416 32H92.4616V29.08C92.4616 28.52 92.3749 28.1133 92.2016 27.86C92.0349 27.6067 91.7782 27.48 91.4316 27.48C91.2516 27.48 91.0716 27.5167 90.8916 27.59C90.7116 27.6567 90.5416 27.75 90.3816 27.87C90.2216 27.99 90.0816 28.1333 89.9616 28.3C89.8416 28.4667 89.7516 28.65 89.6916 28.85V32H88.8116V26.78H89.6116V27.9C89.8182 27.5333 90.1149 27.24 90.5016 27.02C90.8949 26.8 91.3216 26.69 91.7816 26.69C92.0816 26.69 92.3316 26.7467 92.5316 26.86C92.7316 26.9667 92.8916 27.12 93.0116 27.32C93.1316 27.5133 93.2149 27.7433 93.2616 28.01C93.3149 28.2767 93.3416 28.5667 93.3416 28.88V32ZM96.55 32.1C96.3033 32.1 96.0733 32.06 95.86 31.98C95.6467 31.8933 95.46 31.7767 95.3 31.63C95.1467 31.4833 95.0233 31.3133 94.93 31.12C94.8433 30.92 94.8 30.7033 94.8 30.47C94.8 30.23 94.8533 30.0133 94.96 29.82C95.0667 29.62 95.2167 29.45 95.41 29.31C95.61 29.17 95.8433 29.06 96.11 28.98C96.3833 28.9 96.68 28.86 97 28.86C97.2533 28.86 97.51 28.8833 97.77 28.93C98.03 28.9767 98.26 29.04 98.46 29.12V28.7C98.46 28.2733 98.34 27.94 98.1 27.7C97.86 27.4533 97.52 27.33 97.08 27.33C96.5533 27.33 96 27.5333 95.42 27.94L95.13 27.37C95.8033 26.9167 96.48 26.69 97.16 26.69C97.8467 26.69 98.38 26.8733 98.76 27.24C99.1467 27.6067 99.34 28.1233 99.34 28.79V30.92C99.34 31.1267 99.4333 31.2333 99.62 31.24V32C99.5267 32.0133 99.45 32.0233 99.39 32.03C99.33 32.0367 99.2667 32.04 99.2 32.04C99.0267 32.04 98.8867 31.99 98.78 31.89C98.68 31.7833 98.62 31.6567 98.6 31.51L98.58 31.14C98.3467 31.4533 98.05 31.6933 97.69 31.86C97.3367 32.02 96.9567 32.1 96.55 32.1ZM96.78 31.44C97.0933 31.44 97.3833 31.3833 97.65 31.27C97.9233 31.15 98.13 30.9933 98.27 30.8C98.3967 30.6733 98.46 30.5433 98.46 30.41V29.64C98.0333 29.4733 97.59 29.39 97.13 29.39C96.69 29.39 96.33 29.4833 96.05 29.67C95.7767 29.8567 95.64 30.1 95.64 30.4C95.64 30.5467 95.6667 30.6833 95.72 30.81C95.78 30.9367 95.86 31.0467 95.96 31.14C96.0667 31.2333 96.19 31.3067 96.33 31.36C96.47 31.4133 96.62 31.44 96.78 31.44ZM101.267 24.7H102.147V30.65C102.147 30.8433 102.197 30.9967 102.297 31.11C102.404 31.2167 102.55 31.27 102.737 31.27C102.81 31.27 102.897 31.26 102.997 31.24C103.097 31.2133 103.19 31.1833 103.277 31.15L103.417 31.86C103.27 31.92 103.097 31.97 102.897 32.01C102.697 32.05 102.52 32.07 102.367 32.07C102.027 32.07 101.757 31.9733 101.557 31.78C101.364 31.5867 101.267 31.3167 101.267 30.97V24.7Z" fill="#323C47"/>
<defs>
<clipPath id="clip0">
<rect width="27" height="25" fill="white" transform="translate(16 15)"/>
</clipPath>
</defs>
</svg>
