<svg width="61" height="61" viewBox="0 0 61 61" fill="none" xmlns="http://www.w3.org/2000/svg">
<path fill-rule="evenodd" clip-rule="evenodd" d="M30.5 61C47.3447 61 61 47.3447 61 30.5C61 13.6553 47.3447 0 30.5 0C13.6553 0 0 13.6553 0 30.5C0 47.3447 13.6553 61 30.5 61Z" fill="#E0E0E0"/>
<path fill-rule="evenodd" clip-rule="evenodd" d="M22.4049 21.9659C22.4252 17.0972 25.7215 13.5705 30.2671 13.5547C34.9731 13.5412 38.2332 17.1537 38.1926 22.3455C38.1542 27.1735 34.7743 30.6889 30.2174 30.6483C25.6017 30.6054 22.3845 27.0312 22.4049 21.9659Z" fill="white"/>
<path fill-rule="evenodd" clip-rule="evenodd" d="M30.081 43.8104C26.4278 43.8127 22.7723 43.7743 19.1191 43.8308C17.6664 43.8511 16.4509 43.5303 15.9493 42.0663C15.4523 40.6226 16.4034 39.6511 17.4382 38.9417C24.1843 34.3035 31.3642 33.2552 38.9915 36.5469C40.6634 37.2676 42.3307 38.029 43.6591 39.3552C44.486 40.1798 45.1096 41.0632 44.5696 42.2606C44.0681 43.3676 43.1553 43.8308 41.9195 43.8217C37.9748 43.7901 34.0279 43.8104 30.081 43.8104Z" fill="white"/>
</svg>
