<svg width="180" height="154" viewBox="0 0 180 154" fill="none" xmlns="http://www.w3.org/2000/svg">
<rect x="1" y="1" width="178" height="152.181" rx="5" stroke="#E9EFF4"/>
<g clip-path="url(#clip0)">
<g opacity="0.8">
<path fill-rule="evenodd" clip-rule="evenodd" d="M63.7273 99H116.091C118.797 99 121 96.8054 121 94.1087V45.1957C121 44.762 120.828 44.3478 120.521 44.0429L100.884 24.4777C100.578 24.1712 100.161 24 99.7273 24H63.7273C61.0207 24 58.8182 26.1946 58.8182 28.8913V58.2391H62.0909V28.8913C62.0909 27.9913 62.8256 27.2609 63.7273 27.2609H98.9909C98.4939 27.2609 98.0909 27.6638 98.0909 28.1609V45.1957C98.0909 46.0973 98.824 46.8261 99.7273 46.8261H117.727V94.1087C117.727 95.0087 116.993 95.7391 116.091 95.7391H63.7273C62.8256 95.7391 62.0909 95.0087 62.0909 94.1087V79.8043H58.8182V94.1087C58.8182 96.8054 61.0207 99 63.7273 99ZM115.413 43.5652L101.364 29.5663V43.5652H115.413Z" fill="#FF6D4A"/>
<path d="M120.521 44.0429L119.885 44.6805L119.887 44.6822L120.521 44.0429ZM100.884 24.4777L100.247 25.1136L100.249 25.1153L100.884 24.4777ZM58.8182 58.2391H57.9182V59.1391H58.8182V58.2391ZM62.0909 58.2391V59.1391H62.9909V58.2391H62.0909ZM117.727 46.8261H118.627V45.9261H117.727V46.8261ZM62.0909 79.8043H62.9909V78.9043H62.0909V79.8043ZM58.8182 79.8043V78.9043H57.9182V79.8043H58.8182ZM115.413 43.5652V44.4652H117.592L116.049 42.9277L115.413 43.5652ZM101.364 29.5663L101.999 28.9288L100.464 27.3991V29.5663H101.364ZM101.364 43.5652H100.464V44.4652H101.364V43.5652ZM116.091 98.1H63.7273V99.9H116.091V98.1ZM120.1 94.1087C120.1 96.3053 118.303 98.1 116.091 98.1V99.9C119.291 99.9 121.9 97.3056 121.9 94.1087H120.1ZM120.1 45.1957V94.1087H121.9V45.1957H120.1ZM119.887 44.6822C120.023 44.8171 120.1 45.0007 120.1 45.1957H121.9C121.9 44.5232 121.633 43.8785 121.154 43.4037L119.887 44.6822ZM100.249 25.1153L119.885 44.6805L121.156 43.4054L101.519 23.8402L100.249 25.1153ZM99.7273 24.9C99.9247 24.9 100.112 24.9781 100.247 25.1136L101.521 23.8419C101.044 23.3643 100.397 23.1 99.7273 23.1V24.9ZM63.7273 24.9H99.7273V23.1H63.7273V24.9ZM59.7182 28.8913C59.7182 26.6947 61.5147 24.9 63.7273 24.9V23.1C60.5268 23.1 57.9182 25.6944 57.9182 28.8913H59.7182ZM59.7182 58.2391V28.8913H57.9182V58.2391H59.7182ZM62.0909 57.3391H58.8182V59.1391H62.0909V57.3391ZM61.1909 28.8913V58.2391H62.9909V28.8913H61.1909ZM63.7273 26.3609C62.3323 26.3609 61.1909 27.4906 61.1909 28.8913H62.9909C62.9909 28.492 63.319 28.1609 63.7273 28.1609V26.3609ZM98.9909 26.3609H63.7273V28.1609H98.9909V26.3609ZM98.9909 28.1609L98.9909 28.1609V26.3609C97.9968 26.3609 97.1909 27.1668 97.1909 28.1609H98.9909ZM98.9909 45.1957V28.1609H97.1909V45.1957H98.9909ZM99.7273 45.9261C99.3174 45.9261 98.9909 45.5966 98.9909 45.1957H97.1909C97.1909 46.598 98.3306 47.7261 99.7273 47.7261V45.9261ZM117.727 45.9261H99.7273V47.7261H117.727V45.9261ZM118.627 94.1087V46.8261H116.827V94.1087H118.627ZM116.091 96.6391C117.486 96.6391 118.627 95.5094 118.627 94.1087H116.827C116.827 94.508 116.499 94.8391 116.091 94.8391V96.6391ZM63.7273 96.6391H116.091V94.8391H63.7273V96.6391ZM61.1909 94.1087C61.1909 95.5094 62.3323 96.6391 63.7273 96.6391V94.8391C63.319 94.8391 62.9909 94.508 62.9909 94.1087H61.1909ZM61.1909 79.8043V94.1087H62.9909V79.8043H61.1909ZM58.8182 80.7043H62.0909V78.9043H58.8182V80.7043ZM59.7182 94.1087V79.8043H57.9182V94.1087H59.7182ZM63.7273 98.1C61.5147 98.1 59.7182 96.3053 59.7182 94.1087H57.9182C57.9182 97.3056 60.5268 99.9 63.7273 99.9V98.1ZM116.049 42.9277L101.999 28.9288L100.728 30.2039L114.778 44.2028L116.049 42.9277ZM100.464 29.5663V43.5652H102.264V29.5663H100.464ZM101.364 44.4652H115.413V42.6652H101.364V44.4652Z" fill="white"/>
</g>
<path fill-rule="evenodd" clip-rule="evenodd" d="M59.4444 81.0652H108.556C109.353 81.0652 110 80.3364 110 79.4348V58.2391C110 57.3375 109.353 56.6087 108.556 56.6087H59.4444C58.6471 56.6087 58 57.3375 58 58.2391V79.4348C58 80.3364 58.6471 81.0652 59.4444 81.0652Z" fill="#FF6D4A" fill-opacity="0.1"/>
<path d="M108.556 80.1652H59.4444V81.9652H108.556V80.1652ZM109.1 79.4348C109.1 79.9443 108.757 80.1652 108.556 80.1652V81.9652C109.949 81.9652 110.9 80.7285 110.9 79.4348H109.1ZM109.1 58.2391V79.4348H110.9V58.2391H109.1ZM108.556 57.5087C108.757 57.5087 109.1 57.7296 109.1 58.2391H110.9C110.9 56.9454 109.949 55.7087 108.556 55.7087V57.5087ZM59.4444 57.5087H108.556V55.7087H59.4444V57.5087ZM58.9 58.2391C58.9 57.7296 59.243 57.5087 59.4444 57.5087V55.7087C58.0512 55.7087 57.1 56.9454 57.1 58.2391H58.9ZM58.9 79.4348V58.2391H57.1V79.4348H58.9ZM59.4444 80.1652C59.243 80.1652 58.9 79.9443 58.9 79.4348H57.1C57.1 80.7285 58.0512 81.9652 59.4444 81.9652V80.1652Z" fill="white"/>
<path d="M73.944 71.992C73.7893 71.992 73.6693 71.952 73.584 71.872C73.504 71.7867 73.464 71.6667 73.464 71.512V71.376C73.464 71.2213 73.504 71.104 73.584 71.024C73.6693 70.9387 73.7893 70.896 73.944 70.896H74.048C74.2027 70.896 74.32 70.9387 74.4 71.024C74.4853 71.104 74.528 71.2213 74.528 71.376V71.512C74.528 71.6667 74.4853 71.7867 74.4 71.872C74.32 71.952 74.2027 71.992 74.048 71.992H73.944ZM77.9769 66.4C78.2489 66.4 78.5076 66.4827 78.7529 66.648C78.9982 66.808 79.1956 67.0267 79.3449 67.304C79.4942 67.576 79.5689 67.8747 79.5689 68.2C79.5689 68.52 79.4942 68.8187 79.3449 69.096C79.1956 69.3733 78.9982 69.5947 78.7529 69.76C78.5076 69.92 78.2489 70 77.9769 70H76.5849V71.512C76.5849 71.656 76.5422 71.7733 76.4569 71.864C76.3716 71.9547 76.2596 72 76.1209 72C75.9876 72 75.8782 71.9547 75.7929 71.864C75.7076 71.768 75.6649 71.6507 75.6649 71.512V66.888C75.6649 66.7493 75.7102 66.6347 75.8009 66.544C75.8969 66.448 76.0142 66.4 76.1529 66.4H77.9769ZM77.9769 69.088C78.0782 69.088 78.1769 69.0453 78.2729 68.96C78.3742 68.8747 78.4542 68.7653 78.5129 68.632C78.5769 68.4933 78.6089 68.3493 78.6089 68.2C78.6089 68.0507 78.5769 67.9093 78.5129 67.776C78.4542 67.6373 78.3742 67.528 78.2729 67.448C78.1769 67.3627 78.0782 67.32 77.9769 67.32H76.5849V69.088H77.9769ZM82.958 66.4C83.4593 66.4 83.8886 66.5253 84.246 66.776C84.6086 67.0213 84.8833 67.3573 85.07 67.784C85.262 68.2053 85.358 68.6773 85.358 69.2C85.358 69.7227 85.262 70.1973 85.07 70.624C84.8833 71.0453 84.6086 71.3813 84.246 71.632C83.8886 71.8773 83.4593 72 82.958 72H81.046C80.9073 72 80.79 71.9547 80.694 71.864C80.6033 71.768 80.558 71.6507 80.558 71.512V66.888C80.558 66.7493 80.6033 66.6347 80.694 66.544C80.79 66.448 80.9073 66.4 81.046 66.4H82.958ZM82.878 71.08C83.358 71.08 83.718 70.904 83.958 70.552C84.198 70.1947 84.318 69.744 84.318 69.2C84.318 68.656 84.1953 68.208 83.95 67.856C83.71 67.4987 83.3526 67.32 82.878 67.32H81.558V71.08H82.878ZM87.3494 67.32V68.728H89.0774C89.2161 68.728 89.3308 68.7733 89.4214 68.864C89.5174 68.9493 89.5654 69.0613 89.5654 69.2C89.5654 69.3173 89.5174 69.4213 89.4214 69.512C89.3308 69.6027 89.2161 69.648 89.0774 69.648H87.3494V71.512C87.3494 71.6507 87.2988 71.768 87.1974 71.864C87.1014 71.9547 86.9868 72 86.8534 72C86.7041 72 86.5814 71.9547 86.4854 71.864C86.3948 71.7733 86.3494 71.656 86.3494 71.512V66.888C86.3494 66.7493 86.3948 66.6347 86.4854 66.544C86.5814 66.448 86.6988 66.4 86.8374 66.4H89.4374C89.5761 66.4 89.6908 66.4453 89.7814 66.536C89.8774 66.6213 89.9254 66.7333 89.9254 66.872C89.9254 66.9893 89.8774 67.0933 89.7814 67.184C89.6908 67.2747 89.5761 67.32 89.4374 67.32H87.3494Z" fill="#FF6D4A"/>
</g>
<defs>
<clipPath id="clip0">
<rect width="63" height="75" fill="white" transform="translate(58 24)"/>
</clipPath>
</defs>
</svg>
