<svg width="180" height="55" viewBox="0 0 180 55" fill="none" xmlns="http://www.w3.org/2000/svg">
<rect x="1" y="1" width="178" height="53" rx="5" fill="white" stroke="#E9EFF4"/>
<g clip-path="url(#clip0)">
<path fill-rule="evenodd" clip-rule="evenodd" d="M41 23.3333H39.7179V20.7692C39.7179 20.0622 39.1429 19.4872 38.4359 19.4872H30.1026C29.9526 19.4872 29.8077 19.4346 29.6923 19.3391L26.0244 16.2821H18.5641C17.8571 16.2821 17.2821 16.8571 17.2821 17.5641V22.0513H41V23.3333H17.2821H16V17.5641C16 16.15 17.15 15 18.5641 15H26.2564C26.4064 15 26.5513 15.0526 26.6667 15.1481L30.3346 18.2051H38.4359C39.85 18.2051 41 19.3551 41 20.7692V23.3333Z" fill="#2E92FF"/>
<path d="M41 23.3333H39.7179V20.7692C39.7179 20.0622 39.1429 19.4872 38.4359 19.4872H30.1026C29.9526 19.4872 29.8077 19.4346 29.6923 19.3391L26.0244 16.2821H18.5641C17.8571 16.2821 17.2821 16.8571 17.2821 17.5641V22.0513H41V23.3333H17.2821H16V17.5641C16 16.15 17.15 15 18.5641 15H26.2564C26.4064 15 26.5513 15.0526 26.6667 15.1481L30.3346 18.2051H38.4359C39.85 18.2051 41 19.3551 41 20.7692V23.3333Z" stroke="white" stroke-width="0.2"/>
<rect x="16" y="21" width="27" height="19" rx="2" fill="#E0EEFD" stroke="#4DA1FF"/>
</g>
<path d="M64.97 25.7H62.52V32H61.62V25.7H59.17V24.9H64.97V25.7ZM68.302 27.55C67.862 27.5633 67.472 27.6767 67.132 27.89C66.7987 28.1033 66.562 28.4 66.422 28.78V32H65.542V26.78H66.362V27.99C66.542 27.63 66.7787 27.34 67.072 27.12C67.3654 26.8933 67.6787 26.7667 68.012 26.74C68.0787 26.74 68.1354 26.74 68.182 26.74C68.2287 26.74 68.2687 26.7433 68.302 26.75V27.55ZM71.0148 32.1C70.7682 32.1 70.5382 32.06 70.3248 31.98C70.1115 31.8933 69.9248 31.7767 69.7648 31.63C69.6115 31.4833 69.4882 31.3133 69.3948 31.12C69.3082 30.92 69.2648 30.7033 69.2648 30.47C69.2648 30.23 69.3182 30.0133 69.4248 29.82C69.5315 29.62 69.6815 29.45 69.8748 29.31C70.0748 29.17 70.3082 29.06 70.5748 28.98C70.8482 28.9 71.1448 28.86 71.4648 28.86C71.7182 28.86 71.9748 28.8833 72.2348 28.93C72.4948 28.9767 72.7248 29.04 72.9248 29.12V28.7C72.9248 28.2733 72.8048 27.94 72.5648 27.7C72.3248 27.4533 71.9848 27.33 71.5448 27.33C71.0182 27.33 70.4648 27.5333 69.8848 27.94L69.5948 27.37C70.2682 26.9167 70.9448 26.69 71.6248 26.69C72.3115 26.69 72.8448 26.8733 73.2248 27.24C73.6115 27.6067 73.8048 28.1233 73.8048 28.79V30.92C73.8048 31.1267 73.8982 31.2333 74.0848 31.24V32C73.9915 32.0133 73.9148 32.0233 73.8548 32.03C73.7948 32.0367 73.7315 32.04 73.6648 32.04C73.4915 32.04 73.3515 31.99 73.2448 31.89C73.1448 31.7833 73.0848 31.6567 73.0648 31.51L73.0448 31.14C72.8115 31.4533 72.5148 31.6933 72.1548 31.86C71.8015 32.02 71.4215 32.1 71.0148 32.1ZM71.2448 31.44C71.5582 31.44 71.8482 31.3833 72.1148 31.27C72.3882 31.15 72.5948 30.9933 72.7348 30.8C72.8615 30.6733 72.9248 30.5433 72.9248 30.41V29.64C72.4982 29.4733 72.0548 29.39 71.5948 29.39C71.1548 29.39 70.7948 29.4833 70.5148 29.67C70.2415 29.8567 70.1048 30.1 70.1048 30.4C70.1048 30.5467 70.1315 30.6833 70.1848 30.81C70.2448 30.9367 70.3248 31.0467 70.4248 31.14C70.5315 31.2333 70.6548 31.3067 70.7948 31.36C70.9348 31.4133 71.0848 31.44 71.2448 31.44ZM80.242 32H79.362V29.08C79.362 28.52 79.2753 28.1133 79.102 27.86C78.9353 27.6067 78.6786 27.48 78.332 27.48C78.152 27.48 77.972 27.5167 77.792 27.59C77.612 27.6567 77.442 27.75 77.282 27.87C77.122 27.99 76.982 28.1333 76.862 28.3C76.742 28.4667 76.652 28.65 76.592 28.85V32H75.712V26.78H76.512V27.9C76.7186 27.5333 77.0153 27.24 77.402 27.02C77.7953 26.8 78.222 26.69 78.682 26.69C78.982 26.69 79.232 26.7467 79.432 26.86C79.632 26.9667 79.792 27.12 79.912 27.32C80.032 27.5133 80.1153 27.7433 80.162 28.01C80.2153 28.2767 80.242 28.5667 80.242 28.88V32ZM83.9404 32.1C83.5204 32.1 83.1071 32.0367 82.7004 31.91C82.2937 31.7767 81.9437 31.5867 81.6504 31.34L82.0304 30.75C82.3371 30.9833 82.6437 31.16 82.9504 31.28C83.2571 31.3933 83.5804 31.45 83.9204 31.45C84.3004 31.45 84.6004 31.3767 84.8204 31.23C85.0471 31.0767 85.1604 30.8633 85.1604 30.59C85.1604 30.4633 85.1304 30.3567 85.0704 30.27C85.0104 30.1767 84.9204 30.0967 84.8004 30.03C84.6804 29.9633 84.5271 29.9033 84.3404 29.85C84.1537 29.7967 83.9371 29.74 83.6904 29.68C83.3771 29.6 83.1071 29.5233 82.8804 29.45C82.6537 29.3767 82.4671 29.29 82.3204 29.19C82.1737 29.09 82.0671 28.97 82.0004 28.83C81.9337 28.69 81.9004 28.5167 81.9004 28.31C81.9004 28.05 81.9504 27.82 82.0504 27.62C82.1571 27.4133 82.3004 27.2433 82.4804 27.11C82.6604 26.97 82.8704 26.8667 83.1104 26.8C83.3571 26.7267 83.6204 26.69 83.9004 26.69C84.2937 26.69 84.6604 26.7533 85.0004 26.88C85.3404 27.0067 85.6271 27.1733 85.8604 27.38L85.4604 27.91C85.2404 27.7167 84.9937 27.5733 84.7204 27.48C84.4471 27.38 84.1671 27.33 83.8804 27.33C83.5604 27.33 83.2871 27.4 83.0604 27.54C82.8404 27.6733 82.7304 27.89 82.7304 28.19C82.7304 28.31 82.7504 28.41 82.7904 28.49C82.8371 28.57 82.9104 28.64 83.0104 28.7C83.1104 28.76 83.2371 28.8133 83.3904 28.86C83.5504 28.9067 83.7404 28.9567 83.9604 29.01C84.3071 29.09 84.6071 29.1733 84.8604 29.26C85.1204 29.34 85.3337 29.4367 85.5004 29.55C85.6737 29.6633 85.8004 29.7967 85.8804 29.95C85.9671 30.1033 86.0104 30.29 86.0104 30.51C86.0104 30.9967 85.8237 31.3833 85.4504 31.67C85.0771 31.9567 84.5737 32.1 83.9404 32.1ZM87.2018 29.38C87.2018 29.0133 87.2651 28.6667 87.3918 28.34C87.5185 28.0133 87.6985 27.73 87.9318 27.49C88.1651 27.2433 88.4418 27.05 88.7618 26.91C89.0885 26.7633 89.4518 26.69 89.8518 26.69C90.3718 26.69 90.8185 26.8067 91.1918 27.04C91.5718 27.2667 91.8585 27.5733 92.0518 27.96L91.1918 28.23C91.0585 27.9833 90.8718 27.7933 90.6318 27.66C90.3918 27.52 90.1251 27.45 89.8318 27.45C89.5918 27.45 89.3651 27.5 89.1518 27.6C88.9385 27.6933 88.7551 27.8267 88.6018 28C88.4485 28.1733 88.3251 28.3767 88.2318 28.61C88.1451 28.8433 88.1018 29.1 88.1018 29.38C88.1018 29.6533 88.1485 29.91 88.2418 30.15C88.3351 30.39 88.4585 30.6 88.6118 30.78C88.7718 30.9533 88.9551 31.09 89.1618 31.19C89.3751 31.29 89.6018 31.34 89.8418 31.34C89.9951 31.34 90.1451 31.32 90.2918 31.28C90.4451 31.2333 90.5818 31.1733 90.7018 31.1C90.8285 31.0267 90.9385 30.9433 91.0318 30.85C91.1251 30.75 91.1918 30.6433 91.2318 30.53L92.0918 30.79C92.0118 30.9833 91.8985 31.16 91.7518 31.32C91.6118 31.48 91.4451 31.6167 91.2518 31.73C91.0585 31.8433 90.8418 31.9333 90.6018 32C90.3685 32.0667 90.1218 32.1 89.8618 32.1C89.4685 32.1 89.1085 32.0267 88.7818 31.88C88.4551 31.7333 88.1751 31.5367 87.9418 31.29C87.7085 31.0433 87.5251 30.7567 87.3918 30.43C87.2651 30.0967 87.2018 29.7467 87.2018 29.38ZM96.3489 27.55C95.9089 27.5633 95.5189 27.6767 95.1789 27.89C94.8456 28.1033 94.6089 28.4 94.4689 28.78V32H93.5889V26.78H94.4089V27.99C94.5889 27.63 94.8256 27.34 95.1189 27.12C95.4122 26.8933 95.7256 26.7667 96.0589 26.74C96.1256 26.74 96.1822 26.74 96.2289 26.74C96.2756 26.74 96.3156 26.7433 96.3489 26.75V27.55ZM97.7217 32V26.78H98.6017V32H97.7217ZM97.7217 25.8V24.7H98.6017V25.8H97.7217ZM103.336 32.1C102.903 32.1 102.52 31.9933 102.186 31.78C101.86 31.5667 101.6 31.2967 101.406 30.97V34.13H100.526V26.78H101.306V27.76C101.513 27.44 101.78 27.1833 102.106 26.99C102.44 26.79 102.806 26.69 103.206 26.69C103.566 26.69 103.896 26.7633 104.196 26.91C104.496 27.0567 104.756 27.2567 104.976 27.51C105.196 27.7567 105.366 28.0433 105.486 28.37C105.613 28.6967 105.676 29.0367 105.676 29.39C105.676 29.7633 105.62 30.1167 105.506 30.45C105.393 30.7767 105.233 31.0633 105.026 31.31C104.82 31.55 104.573 31.7433 104.286 31.89C104 32.03 103.683 32.1 103.336 32.1ZM103.066 31.34C103.326 31.34 103.56 31.2867 103.766 31.18C103.98 31.0667 104.16 30.92 104.306 30.74C104.46 30.5533 104.576 30.3433 104.656 30.11C104.736 29.8767 104.776 29.6367 104.776 29.39C104.776 29.13 104.73 28.8833 104.636 28.65C104.543 28.41 104.416 28.2033 104.256 28.03C104.096 27.85 103.906 27.71 103.686 27.61C103.473 27.5033 103.24 27.45 102.986 27.45C102.826 27.45 102.66 27.4833 102.486 27.55C102.32 27.61 102.16 27.6933 102.006 27.8C101.86 27.9 101.73 28.0233 101.616 28.17C101.51 28.31 101.44 28.46 101.406 28.62V30.11C101.48 30.2833 101.573 30.4467 101.686 30.6C101.8 30.7467 101.93 30.8767 102.076 30.99C102.223 31.0967 102.38 31.1833 102.546 31.25C102.713 31.31 102.886 31.34 103.066 31.34ZM109.879 31.74C109.825 31.7667 109.755 31.8 109.669 31.84C109.582 31.8733 109.482 31.91 109.369 31.95C109.262 31.9833 109.142 32.01 109.009 32.03C108.882 32.0567 108.749 32.07 108.609 32.07C108.289 32.07 108.012 31.9833 107.779 31.81C107.545 31.63 107.429 31.3533 107.429 30.98V27.47H106.719V26.78H107.429V25.04H108.309V26.78H109.479V27.47H108.309V30.71C108.322 30.9033 108.385 31.0433 108.499 31.13C108.612 31.2167 108.745 31.26 108.899 31.26C109.072 31.26 109.229 31.2333 109.369 31.18C109.515 31.12 109.615 31.0733 109.669 31.04L109.879 31.74ZM113.024 32.1C112.604 32.1 112.191 32.0367 111.784 31.91C111.378 31.7767 111.028 31.5867 110.734 31.34L111.114 30.75C111.421 30.9833 111.728 31.16 112.034 31.28C112.341 31.3933 112.664 31.45 113.004 31.45C113.384 31.45 113.684 31.3767 113.904 31.23C114.131 31.0767 114.244 30.8633 114.244 30.59C114.244 30.4633 114.214 30.3567 114.154 30.27C114.094 30.1767 114.004 30.0967 113.884 30.03C113.764 29.9633 113.611 29.9033 113.424 29.85C113.238 29.7967 113.021 29.74 112.774 29.68C112.461 29.6 112.191 29.5233 111.964 29.45C111.738 29.3767 111.551 29.29 111.404 29.19C111.258 29.09 111.151 28.97 111.084 28.83C111.018 28.69 110.984 28.5167 110.984 28.31C110.984 28.05 111.034 27.82 111.134 27.62C111.241 27.4133 111.384 27.2433 111.564 27.11C111.744 26.97 111.954 26.8667 112.194 26.8C112.441 26.7267 112.704 26.69 112.984 26.69C113.378 26.69 113.744 26.7533 114.084 26.88C114.424 27.0067 114.711 27.1733 114.944 27.38L114.544 27.91C114.324 27.7167 114.078 27.5733 113.804 27.48C113.531 27.38 113.251 27.33 112.964 27.33C112.644 27.33 112.371 27.4 112.144 27.54C111.924 27.6733 111.814 27.89 111.814 28.19C111.814 28.31 111.834 28.41 111.874 28.49C111.921 28.57 111.994 28.64 112.094 28.7C112.194 28.76 112.321 28.8133 112.474 28.86C112.634 28.9067 112.824 28.9567 113.044 29.01C113.391 29.09 113.691 29.1733 113.944 29.26C114.204 29.34 114.418 29.4367 114.584 29.55C114.758 29.6633 114.884 29.7967 114.964 29.95C115.051 30.1033 115.094 30.29 115.094 30.51C115.094 30.9967 114.908 31.3833 114.534 31.67C114.161 31.9567 113.658 32.1 113.024 32.1Z" fill="#323C47"/>
<defs>
<clipPath id="clip0">
<rect width="27" height="25" fill="white" transform="translate(16 15)"/>
</clipPath>
</defs>
</svg>
