<svg width="24" height="24" viewBox="0 0 24 24" fill="none" xmlns="http://www.w3.org/2000/svg">
<path d="M12.0422 0.00110346C5.36338 -0.0891052 -0.0891052 5.36338 0.00110346 12.0422C0.0901702 18.4476 5.30571 23.6632 11.7111 23.7522C18.3911 23.8436 23.8424 18.3911 23.7511 11.7122C23.6632 5.30571 18.4476 0.0901702 12.0422 0.00110346ZM19.2601 18.6851C19.2373 18.7097 19.2095 18.729 19.1784 18.7416C19.1474 18.7543 19.114 18.7599 19.0805 18.7581C19.0471 18.7564 19.0144 18.7473 18.9848 18.7315C18.9553 18.7158 18.9296 18.6937 18.9095 18.6669C18.3988 17.9987 17.7734 17.4267 17.0625 16.9775C15.6089 16.0445 13.7671 15.5307 11.8767 15.5307C9.98628 15.5307 8.14443 16.0445 6.69081 16.9775C5.97992 17.4265 5.35452 17.9983 4.84382 18.6663C4.82376 18.6931 4.79804 18.7152 4.76849 18.731C4.73894 18.7468 4.70628 18.7558 4.67282 18.7576C4.63937 18.7593 4.60594 18.7537 4.57491 18.7411C4.54388 18.7284 4.51601 18.7092 4.49326 18.6846C2.81794 16.876 1.86893 14.5129 1.82811 12.048C1.73505 6.49213 6.29401 1.84182 11.8521 1.82811C17.4102 1.81441 21.9252 6.3277 21.9252 11.8767C21.9271 14.401 20.9752 16.8329 19.2601 18.6851Z" fill="#109CF1"/>
<path d="M11.8769 5.48193C10.751 5.48193 9.73299 5.90386 9.00961 6.67063C8.28623 7.43741 7.92482 8.49764 8.00647 9.63553C8.17204 11.8765 9.90827 13.7035 11.8769 13.7035C13.8455 13.7035 15.5783 11.8765 15.7473 9.6361C15.8318 8.50906 15.4732 7.45853 14.7379 6.67748C14.0116 5.90671 12.9953 5.48193 11.8769 5.48193Z" fill="#109CF1"/>
</svg>
