<svg width="250" height="73" viewBox="0 0 250 73" fill="none" xmlns="http://www.w3.org/2000/svg">
<path d="M87.6113 34.3882V21.3973H96.339V23.6112H90.1363V26.9596H95.2961V29.0089H90.1363V34.3882H87.6113ZM103.055 34.5712C102.274 34.5712 101.573 34.437 100.951 34.1686C100.328 33.9003 99.7979 33.5404 99.3587 33.0891C98.9318 32.6256 98.6024 32.095 98.3707 31.4972C98.1389 30.8995 98.023 30.2713 98.023 29.6127C98.023 28.9418 98.1389 28.3075 98.3707 27.7098C98.6024 27.1121 98.9318 26.5875 99.3587 26.1362C99.7979 25.6727 100.328 25.3067 100.951 25.0384C101.573 24.77 102.274 24.6359 103.055 24.6359C103.835 24.6359 104.531 24.77 105.141 25.0384C105.763 25.3067 106.287 25.6727 106.714 26.1362C107.153 26.5875 107.489 27.1121 107.72 27.7098C107.952 28.3075 108.068 28.9418 108.068 29.6127C108.068 30.2713 107.952 30.8995 107.72 31.4972C107.489 32.095 107.159 32.6256 106.732 33.0891C106.306 33.5404 105.781 33.9003 105.159 34.1686C104.537 34.437 103.835 34.5712 103.055 34.5712ZM100.548 29.6127C100.548 30.0396 100.609 30.4299 100.731 30.7837C100.865 31.1252 101.042 31.4241 101.262 31.6802C101.493 31.9364 101.762 32.1376 102.067 32.284C102.372 32.4182 102.701 32.4853 103.055 32.4853C103.408 32.4853 103.738 32.4182 104.043 32.284C104.348 32.1376 104.61 31.9364 104.83 31.6802C105.061 31.4241 105.238 31.1191 105.36 30.7654C105.494 30.4116 105.561 30.0213 105.561 29.5944C105.561 29.1796 105.494 28.7954 105.36 28.4416C105.238 28.0879 105.061 27.7829 104.83 27.5268C104.61 27.2706 104.348 27.0755 104.043 26.9413C103.738 26.7949 103.408 26.7217 103.055 26.7217C102.701 26.7217 102.372 26.7949 102.067 26.9413C101.762 27.0877 101.493 27.2889 101.262 27.5451C101.042 27.8012 100.865 28.1062 100.731 28.4599C100.609 28.8137 100.548 29.1979 100.548 29.6127ZM116.804 26.923C116.06 26.9352 115.395 27.0816 114.81 27.3621C114.224 27.6305 113.803 28.0391 113.547 28.588V34.3882H111.095V24.8005H113.346V26.8498C113.517 26.5205 113.718 26.2277 113.95 25.9715C114.181 25.7032 114.431 25.4714 114.7 25.2763C114.968 25.0811 115.237 24.9347 115.505 24.8371C115.785 24.7273 116.054 24.6724 116.31 24.6724C116.444 24.6724 116.542 24.6724 116.603 24.6724C116.676 24.6724 116.743 24.6785 116.804 24.6907V26.923ZM134.437 34.3882H131.985V29.0089C131.985 28.2404 131.851 27.6793 131.583 27.3255C131.327 26.9718 130.967 26.7949 130.503 26.7949C130.015 26.7949 129.558 26.984 129.131 27.3621C128.704 27.7281 128.399 28.2099 128.216 28.8076V34.3882H125.764V29.0089C125.764 28.2404 125.63 27.6793 125.362 27.3255C125.106 26.9718 124.746 26.7949 124.282 26.7949C123.807 26.7949 123.349 26.9779 122.91 27.3438C122.483 27.7098 122.178 28.1916 121.995 28.7893V34.3882H119.543V24.8005H121.757V26.5753C122.111 25.9532 122.593 25.4775 123.203 25.1482C123.825 24.8066 124.532 24.6359 125.325 24.6359C126.13 24.6359 126.752 24.831 127.192 25.2214C127.631 25.6117 127.911 26.0935 128.033 26.6668C128.424 26.0081 128.918 25.508 129.515 25.1665C130.113 24.8127 130.796 24.6359 131.565 24.6359C132.15 24.6359 132.632 24.7456 133.01 24.9652C133.388 25.1848 133.681 25.4714 133.888 25.8252C134.096 26.1789 134.236 26.5814 134.309 27.0328C134.394 27.4841 134.437 27.9415 134.437 28.405V34.3882ZM142.39 34.5712C141.622 34.5712 140.926 34.4431 140.304 34.1869C139.682 33.9186 139.152 33.5587 138.713 33.1074C138.273 32.6561 137.932 32.1315 137.688 31.5338C137.456 30.9361 137.34 30.3079 137.34 29.6492C137.34 28.9662 137.456 28.3258 137.688 27.7281C137.92 27.1182 138.255 26.5875 138.694 26.1362C139.133 25.6727 139.664 25.3067 140.286 25.0384C140.92 24.77 141.628 24.6359 142.409 24.6359C143.189 24.6359 143.885 24.77 144.494 25.0384C145.117 25.3067 145.641 25.6666 146.068 26.1179C146.507 26.5692 146.836 27.0938 147.056 27.6915C147.288 28.2892 147.404 28.9113 147.404 29.5578C147.404 29.7163 147.398 29.8688 147.385 30.0152C147.385 30.1616 147.373 30.2835 147.349 30.3811H139.938C139.975 30.7593 140.067 31.0947 140.213 31.3875C140.359 31.6802 140.548 31.9303 140.78 32.1376C141.012 32.345 141.274 32.5036 141.567 32.6134C141.86 32.7232 142.165 32.778 142.482 32.778C142.97 32.778 143.427 32.6622 143.854 32.4304C144.293 32.1864 144.592 31.8693 144.751 31.479L146.855 32.0645C146.501 32.7963 145.934 33.4001 145.153 33.8759C144.385 34.3394 143.464 34.5712 142.39 34.5712ZM144.879 28.7893C144.818 28.0696 144.549 27.4963 144.074 27.0694C143.61 26.6302 143.043 26.4107 142.372 26.4107C142.043 26.4107 141.732 26.4717 141.439 26.5936C141.158 26.7034 140.908 26.862 140.689 27.0694C140.469 27.2767 140.286 27.5268 140.14 27.8195C140.006 28.1123 139.926 28.4355 139.902 28.7893H144.879ZM154.716 34.5712C153.947 34.5712 153.252 34.4431 152.63 34.1869C152.008 33.9186 151.477 33.5587 151.038 33.1074C150.599 32.6561 150.257 32.1315 150.013 31.5338C149.782 30.9361 149.666 30.3079 149.666 29.6492C149.666 28.9662 149.782 28.3258 150.013 27.7281C150.245 27.1182 150.581 26.5875 151.02 26.1362C151.459 25.6727 151.989 25.3067 152.612 25.0384C153.246 24.77 153.953 24.6359 154.734 24.6359C155.515 24.6359 156.21 24.77 156.82 25.0384C157.442 25.3067 157.967 25.6666 158.393 26.1179C158.833 26.5692 159.162 27.0938 159.381 27.6915C159.613 28.2892 159.729 28.9113 159.729 29.5578C159.729 29.7163 159.723 29.8688 159.711 30.0152C159.711 30.1616 159.699 30.2835 159.674 30.3811H152.264C152.301 30.7593 152.392 31.0947 152.538 31.3875C152.685 31.6802 152.874 31.9303 153.106 32.1376C153.337 32.345 153.6 32.5036 153.892 32.6134C154.185 32.7232 154.49 32.778 154.807 32.778C155.295 32.778 155.753 32.6622 156.18 32.4304C156.619 32.1864 156.917 31.8693 157.076 31.479L159.18 32.0645C158.826 32.7963 158.259 33.4001 157.479 33.8759C156.71 34.3394 155.789 34.5712 154.716 34.5712ZM157.204 28.7893C157.143 28.0696 156.875 27.4963 156.399 27.0694C155.936 26.6302 155.368 26.4107 154.697 26.4107C154.368 26.4107 154.057 26.4717 153.764 26.5936C153.484 26.7034 153.234 26.862 153.014 27.0694C152.795 27.2767 152.612 27.5268 152.465 27.8195C152.331 28.1123 152.252 28.4355 152.227 28.7893H157.204ZM177.603 33.2538V34.3882H168.875V21.3973H177.438V22.5317H170.156V27.2157H176.505V28.2953H170.156V33.2538H177.603ZM181.379 24.8554L184.233 28.588L184.38 28.8625L184.526 28.588L187.38 24.8554H188.716L185.075 29.6492L188.716 34.3882H187.38L184.526 30.6739L184.38 30.4177L184.233 30.6739L181.379 34.3882H180.043L183.684 29.6492L180.043 24.8554H181.379ZM196.6 34.5712C195.795 34.5712 195.082 34.3699 194.46 33.9674C193.85 33.5526 193.356 33.0342 192.978 32.4121V38.2855H191.733V24.8554H192.85V26.7034C193.24 26.1057 193.746 25.6239 194.368 25.258C194.99 24.8798 195.667 24.6907 196.399 24.6907C197.058 24.6907 197.662 24.831 198.211 25.1116C198.759 25.3799 199.235 25.7459 199.638 26.2094C200.04 26.6607 200.351 27.1852 200.571 27.7829C200.803 28.3807 200.919 28.9967 200.919 29.631C200.919 30.3018 200.815 30.9361 200.607 31.5338C200.4 32.1315 200.101 32.6561 199.711 33.1074C199.333 33.5587 198.875 33.9186 198.339 34.1869C197.814 34.4431 197.235 34.5712 196.6 34.5712ZM196.253 33.4733C196.765 33.4733 197.229 33.3635 197.643 33.144C198.07 32.9244 198.43 32.6378 198.723 32.284C199.028 31.9181 199.26 31.5094 199.418 31.0581C199.577 30.5946 199.656 30.1189 199.656 29.631C199.656 29.1186 199.565 28.6307 199.382 28.1672C199.199 27.7037 198.949 27.295 198.631 26.9413C198.314 26.5875 197.936 26.307 197.497 26.0996C197.07 25.8923 196.607 25.7886 196.106 25.7886C195.789 25.7886 195.454 25.8557 195.1 25.9898C194.758 26.1118 194.435 26.2826 194.13 26.5022C193.838 26.7095 193.581 26.9596 193.362 27.2523C193.154 27.5329 193.026 27.8317 192.978 28.1489V31.0764C193.124 31.418 193.307 31.7351 193.526 32.0279C193.758 32.3206 194.014 32.5768 194.295 32.7963C194.588 33.0037 194.899 33.1684 195.228 33.2904C195.557 33.4123 195.899 33.4733 196.253 33.4733ZM209.156 25.9532C208.314 25.9776 207.582 26.2094 206.96 26.6485C206.338 27.0877 205.899 27.6915 205.643 28.4599V34.3882H204.398V24.8554H205.569V27.1426C205.923 26.4107 206.399 25.8374 206.997 25.4226C207.594 25.0079 208.235 24.8005 208.918 24.8005C209.015 24.8005 209.095 24.8066 209.156 24.8188V25.9532ZM215.82 34.5712C215.124 34.5712 214.484 34.4431 213.899 34.1869C213.325 33.9186 212.825 33.5587 212.398 33.1074C211.971 32.6439 211.636 32.1133 211.392 31.5155C211.16 30.9178 211.044 30.2774 211.044 29.5944C211.044 28.9235 211.16 28.2953 211.392 27.7098C211.636 27.1121 211.965 26.5936 212.38 26.1545C212.807 25.7032 213.313 25.3494 213.899 25.0933C214.484 24.8249 215.118 24.6907 215.801 24.6907C216.497 24.6907 217.131 24.8249 217.704 25.0933C218.29 25.3494 218.79 25.7032 219.205 26.1545C219.619 26.6058 219.943 27.1243 220.174 27.7098C220.406 28.2953 220.522 28.9174 220.522 29.5761C220.522 29.6736 220.522 29.7712 220.522 29.8688C220.522 29.9664 220.516 30.0335 220.504 30.0701H212.343C212.38 30.5824 212.496 31.0581 212.691 31.4972C212.898 31.9242 213.161 32.2962 213.478 32.6134C213.795 32.9305 214.155 33.1806 214.557 33.3635C214.972 33.5343 215.411 33.6197 215.875 33.6197C216.18 33.6197 216.485 33.577 216.789 33.4916C217.094 33.4062 217.375 33.2904 217.631 33.144C217.887 32.9976 218.119 32.8207 218.326 32.6134C218.534 32.3938 218.692 32.1559 218.802 31.8998L219.882 32.1925C219.735 32.5463 219.528 32.8695 219.26 33.1623C218.991 33.4428 218.68 33.6929 218.326 33.9125C217.973 34.1198 217.582 34.2784 217.155 34.3882C216.728 34.5102 216.283 34.5712 215.82 34.5712ZM219.333 29.1186C219.296 28.6063 219.174 28.1428 218.967 27.7281C218.772 27.3011 218.516 26.9352 218.198 26.6302C217.893 26.3253 217.534 26.0874 217.119 25.9166C216.716 25.7459 216.283 25.6605 215.82 25.6605C215.356 25.6605 214.917 25.7459 214.502 25.9166C214.088 26.0874 213.722 26.3253 213.405 26.6302C213.1 26.9352 212.85 27.3011 212.654 27.7281C212.471 28.155 212.362 28.6185 212.325 29.1186H219.333ZM226.979 34.5712C226.235 34.5712 225.51 34.4492 224.802 34.2052C224.095 33.9613 223.485 33.6075 222.972 33.144L223.54 32.3023C224.076 32.7414 224.619 33.0708 225.168 33.2904C225.729 33.5099 226.327 33.6197 226.961 33.6197C227.73 33.6197 228.339 33.4672 228.791 33.1623C229.254 32.8451 229.486 32.3999 229.486 31.8266C229.486 31.5582 229.425 31.3387 229.303 31.1679C229.181 30.9849 228.998 30.8264 228.754 30.6922C228.522 30.558 228.224 30.4421 227.858 30.3445C227.504 30.2348 227.089 30.125 226.613 30.0152C226.065 29.881 225.589 29.7468 225.186 29.6127C224.784 29.4785 224.448 29.326 224.18 29.1552C223.924 28.9845 223.729 28.7771 223.594 28.5331C223.472 28.277 223.411 27.9598 223.411 27.5817C223.411 27.106 223.503 26.6851 223.686 26.3192C223.881 25.9532 224.137 25.6544 224.454 25.4226C224.784 25.1787 225.162 24.9957 225.589 24.8737C226.028 24.7517 226.491 24.6907 226.979 24.6907C227.711 24.6907 228.376 24.8127 228.974 25.0567C229.571 25.2884 230.053 25.5995 230.419 25.9898L229.815 26.7217C229.462 26.3558 229.029 26.0813 228.516 25.8984C228.016 25.7154 227.492 25.6239 226.943 25.6239C226.613 25.6239 226.308 25.6605 226.028 25.7337C225.747 25.7947 225.497 25.8984 225.278 26.0447C225.07 26.1911 224.906 26.3802 224.784 26.6119C224.662 26.8315 224.601 27.0938 224.601 27.3987C224.601 27.6549 224.643 27.8622 224.729 28.0208C224.814 28.1794 224.954 28.3197 225.15 28.4416C225.345 28.5514 225.589 28.6551 225.882 28.7527C226.186 28.8381 226.552 28.9296 226.979 29.0271C227.589 29.1735 228.126 29.3199 228.59 29.4663C229.053 29.6127 229.437 29.7834 229.742 29.9786C230.059 30.1738 230.297 30.4116 230.456 30.6922C230.614 30.9727 230.694 31.3143 230.694 31.7168C230.694 32.5951 230.358 33.2904 229.687 33.8027C229.016 34.315 228.114 34.5712 226.979 34.5712ZM237.268 34.5712C236.524 34.5712 235.798 34.4492 235.091 34.2052C234.383 33.9613 233.773 33.6075 233.261 33.144L233.828 32.3023C234.365 32.7414 234.908 33.0708 235.456 33.2904C236.018 33.5099 236.615 33.6197 237.25 33.6197C238.018 33.6197 238.628 33.4672 239.079 33.1623C239.543 32.8451 239.775 32.3999 239.775 31.8266C239.775 31.5582 239.714 31.3387 239.592 31.1679C239.47 30.9849 239.287 30.8264 239.043 30.6922C238.811 30.558 238.512 30.4421 238.146 30.3445C237.792 30.2348 237.378 30.125 236.902 30.0152C236.353 29.881 235.877 29.7468 235.475 29.6127C235.072 29.4785 234.737 29.326 234.468 29.1552C234.212 28.9845 234.017 28.7771 233.883 28.5331C233.761 28.277 233.7 27.9598 233.7 27.5817C233.7 27.106 233.791 26.6851 233.974 26.3192C234.17 25.9532 234.426 25.6544 234.743 25.4226C235.072 25.1787 235.45 24.9957 235.877 24.8737C236.316 24.7517 236.78 24.6907 237.268 24.6907C238 24.6907 238.665 24.8127 239.262 25.0567C239.86 25.2884 240.342 25.5995 240.708 25.9898L240.104 26.7217C239.75 26.3558 239.317 26.0813 238.805 25.8984C238.305 25.7154 237.78 25.6239 237.231 25.6239C236.902 25.6239 236.597 25.6605 236.316 25.7337C236.036 25.7947 235.786 25.8984 235.566 26.0447C235.359 26.1911 235.194 26.3802 235.072 26.6119C234.95 26.8315 234.889 27.0938 234.889 27.3987C234.889 27.6549 234.932 27.8622 235.017 28.0208C235.103 28.1794 235.243 28.3197 235.438 28.4416C235.633 28.5514 235.877 28.6551 236.17 28.7527C236.475 28.8381 236.841 28.9296 237.268 29.0271C237.878 29.1735 238.415 29.3199 238.878 29.4663C239.342 29.6127 239.726 29.7834 240.031 29.9786C240.348 30.1738 240.586 30.4116 240.744 30.6922C240.903 30.9727 240.982 31.3143 240.982 31.7168C240.982 32.5951 240.647 33.2904 239.976 33.8027C239.305 34.315 238.402 34.5712 237.268 34.5712Z" fill="#444444"/>
<circle cx="52.9095" cy="43.1851" r="23.7147" transform="rotate(-163.7 52.9095 43.1851)" fill="#2B6A6C"/>
<circle cx="19.6116" cy="19.6115" r="15.8098" transform="rotate(-163.7 19.6116 19.6115)" fill="#B80D48"/>
<circle cx="43.243" cy="12.0267" r="7.9049" transform="rotate(-163.7 43.243 12.0267)" fill="#F29724"/>
</svg>
