<svg width="245" height="74" viewBox="0 0 245 74" fill="none" xmlns="http://www.w3.org/2000/svg">
<path d="M89.0137 35.0838V22.0415H97.8902V24.2642H91.5817V27.6258H96.8295V29.6832H91.5817V35.0838H89.0137Z" fill="white"/>
<path d="M104.72 35.2675C103.926 35.2675 103.213 35.1328 102.58 34.8634C101.948 34.594 101.408 34.2327 100.961 33.7796C100.527 33.3142 100.192 32.7815 99.9565 32.1815C99.7208 31.5814 99.603 30.9507 99.603 30.2894C99.603 29.6158 99.7208 28.979 99.9565 28.379C100.192 27.7789 100.527 27.2523 100.961 26.7992C101.408 26.3338 101.948 25.9664 102.58 25.697C103.213 25.4276 103.926 25.2929 104.72 25.2929C105.514 25.2929 106.222 25.4276 106.842 25.697C107.475 25.9664 108.008 26.3338 108.442 26.7992C108.889 27.2523 109.23 27.7789 109.466 28.379C109.701 28.979 109.819 29.6158 109.819 30.2894C109.819 30.9507 109.701 31.5814 109.466 32.1815C109.23 32.7815 108.895 33.3142 108.461 33.7796C108.027 34.2327 107.493 34.594 106.86 34.8634C106.228 35.1328 105.514 35.2675 104.72 35.2675ZM102.171 30.2894C102.171 30.718 102.233 31.1099 102.357 31.465C102.494 31.8079 102.673 32.108 102.897 32.3651C103.132 32.6223 103.405 32.8244 103.716 32.9713C104.026 33.106 104.361 33.1734 104.72 33.1734C105.08 33.1734 105.415 33.106 105.725 32.9713C106.035 32.8244 106.302 32.6223 106.526 32.3651C106.761 32.108 106.941 31.8018 107.065 31.4467C107.202 31.0915 107.27 30.6996 107.27 30.271C107.27 29.8547 107.202 29.4689 107.065 29.1137C106.941 28.7586 106.761 28.4524 106.526 28.1953C106.302 27.9381 106.035 27.7422 105.725 27.6075C105.415 27.4605 105.08 27.387 104.72 27.387C104.361 27.387 104.026 27.4605 103.716 27.6075C103.405 27.7544 103.132 27.9565 102.897 28.2136C102.673 28.4708 102.494 28.777 102.357 29.1321C102.233 29.4873 102.171 29.873 102.171 30.2894Z" fill="white"/>
<path d="M118.704 27.5891C117.947 27.6013 117.271 27.7483 116.676 28.03C116.08 28.2994 115.652 28.7096 115.392 29.2607V35.0838H112.898V25.4582H115.187V27.5156C115.361 27.185 115.565 26.891 115.801 26.6339C116.037 26.3645 116.291 26.1318 116.564 25.9358C116.837 25.7399 117.11 25.5929 117.383 25.495C117.668 25.3847 117.941 25.3296 118.202 25.3296C118.338 25.3296 118.437 25.3296 118.499 25.3296C118.574 25.3296 118.642 25.3358 118.704 25.348V27.5891Z" fill="white"/>
<path d="M136.638 35.0838H134.144V29.6832C134.144 28.9117 134.008 28.3484 133.735 27.9932C133.474 27.6381 133.108 27.4605 132.637 27.4605C132.141 27.4605 131.676 27.6503 131.241 28.03C130.807 28.3973 130.497 28.8811 130.311 29.4811V35.0838H127.817V29.6832C127.817 28.9117 127.681 28.3484 127.408 27.9932C127.147 27.6381 126.781 27.4605 126.31 27.4605C125.826 27.4605 125.361 27.6442 124.914 28.0116C124.48 28.379 124.17 28.8627 123.984 29.4628V35.0838H121.49V25.4582H123.742V27.2401C124.102 26.6155 124.592 26.1379 125.212 25.8072C125.845 25.4643 126.564 25.2929 127.371 25.2929C128.19 25.2929 128.822 25.4888 129.269 25.8807C129.715 26.2726 130.001 26.7563 130.125 27.3319C130.522 26.6706 131.024 26.1685 131.632 25.8256C132.24 25.4705 132.935 25.2929 133.716 25.2929C134.312 25.2929 134.802 25.4031 135.187 25.6235C135.571 25.844 135.869 26.1318 136.08 26.4869C136.291 26.8421 136.433 27.2462 136.508 27.6993C136.595 28.1524 136.638 28.6117 136.638 29.077V35.0838Z" fill="white"/>
<path d="M144.727 35.2675C143.945 35.2675 143.238 35.1389 142.605 34.8818C141.973 34.6123 141.433 34.2511 140.986 33.798C140.54 33.3448 140.192 32.8183 139.944 32.2182C139.708 31.6181 139.591 30.9874 139.591 30.3261C139.591 29.6403 139.708 28.9974 139.944 28.3973C140.18 27.785 140.521 27.2523 140.968 26.7992C141.414 26.3338 141.954 25.9664 142.587 25.697C143.232 25.4276 143.951 25.2929 144.745 25.2929C145.539 25.2929 146.246 25.4276 146.867 25.697C147.499 25.9664 148.033 26.3277 148.467 26.7808C148.914 27.2339 149.249 27.7605 149.472 28.3606C149.708 28.9607 149.826 29.5852 149.826 30.2343C149.826 30.3935 149.819 30.5466 149.807 30.6935C149.807 30.8405 149.795 30.9629 149.77 31.0609H142.233C142.27 31.4405 142.363 31.7773 142.512 32.0712C142.661 32.3651 142.853 32.6162 143.089 32.8244C143.325 33.0326 143.592 33.1918 143.889 33.302C144.187 33.4122 144.497 33.4673 144.82 33.4673C145.316 33.4673 145.781 33.351 146.215 33.1183C146.662 32.8734 146.966 32.555 147.127 32.1631L149.267 32.7509C148.908 33.4857 148.331 34.0919 147.537 34.5695C146.755 35.0348 145.818 35.2675 144.727 35.2675ZM147.258 29.4628C147.195 28.7402 146.923 28.1647 146.439 27.736C145.967 27.2952 145.39 27.0747 144.708 27.0747C144.373 27.0747 144.057 27.136 143.759 27.2584C143.474 27.3686 143.219 27.5279 142.996 27.736C142.773 27.9442 142.587 28.1953 142.438 28.4892C142.301 28.7831 142.221 29.1076 142.196 29.4628H147.258Z" fill="white"/>
<path d="M157.262 35.2675C156.481 35.2675 155.774 35.1389 155.141 34.8818C154.508 34.6123 153.969 34.2511 153.522 33.798C153.075 33.3448 152.728 32.8183 152.48 32.2182C152.244 31.6181 152.126 30.9874 152.126 30.3261C152.126 29.6403 152.244 28.9974 152.48 28.3973C152.716 27.785 153.057 27.2523 153.503 26.7992C153.95 26.3338 154.49 25.9664 155.122 25.697C155.767 25.4276 156.487 25.2929 157.281 25.2929C158.075 25.2929 158.782 25.4276 159.402 25.697C160.035 25.9664 160.569 26.3277 161.003 26.7808C161.449 27.2339 161.784 27.7605 162.008 28.3606C162.243 28.9607 162.361 29.5852 162.361 30.2343C162.361 30.3935 162.355 30.5466 162.343 30.6935C162.343 30.8405 162.33 30.9629 162.305 31.0609H154.769C154.806 31.4405 154.899 31.7773 155.048 32.0712C155.197 32.3651 155.389 32.6162 155.625 32.8244C155.86 33.0326 156.127 33.1918 156.425 33.302C156.723 33.4122 157.033 33.4673 157.355 33.4673C157.852 33.4673 158.317 33.351 158.751 33.1183C159.198 32.8734 159.502 32.555 159.663 32.1631L161.803 32.7509C161.443 33.4857 160.866 34.0919 160.072 34.5695C159.291 35.0348 158.354 35.2675 157.262 35.2675ZM159.793 29.4628C159.731 28.7402 159.458 28.1647 158.974 27.736C158.503 27.2952 157.926 27.0747 157.244 27.0747C156.909 27.0747 156.592 27.136 156.295 27.2584C156.009 27.3686 155.755 27.5279 155.532 27.736C155.308 27.9442 155.122 28.1953 154.973 28.4892C154.837 28.7831 154.756 29.1076 154.732 29.4628H159.793Z" fill="white"/>
<path d="M180.54 33.9449V35.0838H171.663V22.0415H180.372V23.1804H172.966V27.883H179.423V28.9668H172.966V33.9449H180.54Z" fill="white"/>
<path d="M184.38 25.5133L187.283 29.2607L187.432 29.5362L187.581 29.2607L190.484 25.5133H191.842L188.139 30.3261L191.842 35.0838H190.484L187.581 31.3548L187.432 31.0977L187.283 31.3548L184.38 35.0838H183.022L186.725 30.3261L183.022 25.5133H184.38Z" fill="white"/>
<path d="M199.861 35.2675C199.042 35.2675 198.317 35.0655 197.684 34.6613C197.064 34.245 196.561 33.7245 196.177 33.0999V38.9965H194.911V25.5133H196.046V27.3686C196.443 26.7686 196.958 26.2849 197.591 25.9175C198.224 25.5378 198.912 25.348 199.657 25.348C200.326 25.348 200.941 25.4888 201.499 25.7705C202.057 26.0399 202.541 26.4073 202.95 26.8727C203.36 27.3258 203.676 27.8524 203.899 28.4524C204.135 29.0525 204.253 29.671 204.253 30.3078C204.253 30.9813 204.148 31.6181 203.937 32.2182C203.726 32.8183 203.422 33.3448 203.025 33.798C202.64 34.2511 202.175 34.6123 201.629 34.8818C201.096 35.1389 200.506 35.2675 199.861 35.2675ZM199.508 34.1654C200.029 34.1654 200.5 34.0551 200.922 33.8347C201.356 33.6143 201.722 33.3265 202.02 32.9713C202.33 32.6039 202.566 32.1937 202.727 31.7406C202.888 31.2752 202.969 30.7976 202.969 30.3078C202.969 29.7934 202.876 29.3036 202.69 28.8382C202.504 28.3728 202.249 27.9626 201.927 27.6075C201.604 27.2523 201.22 26.9706 200.773 26.7625C200.339 26.5543 199.867 26.4502 199.359 26.4502C199.036 26.4502 198.695 26.5175 198.335 26.6522C197.988 26.7747 197.659 26.9462 197.349 27.1666C197.051 27.3748 196.791 27.6258 196.567 27.9197C196.357 28.2014 196.226 28.5014 196.177 28.8198V31.759C196.326 32.1018 196.512 32.4203 196.735 32.7142C196.971 33.0081 197.231 33.2652 197.517 33.4857C197.814 33.6939 198.131 33.8592 198.466 33.9817C198.801 34.1041 199.148 34.1654 199.508 34.1654Z" fill="white"/>
<path d="M212.631 26.6155C211.775 26.64 211.03 26.8727 210.397 27.3135C209.765 27.7544 209.318 28.3606 209.058 29.1321V35.0838H207.792V25.5133H208.983V27.8095C209.343 27.0747 209.827 26.4992 210.435 26.0828C211.043 25.6664 211.694 25.4582 212.389 25.4582C212.488 25.4582 212.569 25.4643 212.631 25.4766V26.6155Z" fill="white"/>
<path d="M219.408 35.2675C218.701 35.2675 218.05 35.1389 217.454 34.8818C216.871 34.6123 216.363 34.2511 215.928 33.798C215.494 33.3326 215.153 32.7999 214.905 32.1998C214.669 31.5998 214.551 30.9568 214.551 30.271C214.551 29.5975 214.669 28.9668 214.905 28.379C215.153 27.7789 215.488 27.2584 215.91 26.8176C216.344 26.3645 216.859 26.0093 217.454 25.7521C218.05 25.4827 218.695 25.348 219.39 25.348C220.097 25.348 220.742 25.4827 221.325 25.7521C221.921 26.0093 222.429 26.3645 222.851 26.8176C223.273 27.2707 223.602 27.7911 223.837 28.379C224.073 28.9668 224.191 29.5914 224.191 30.2527C224.191 30.3506 224.191 30.4486 224.191 30.5466C224.191 30.6445 224.185 30.7119 224.172 30.7486H215.873C215.91 31.263 216.028 31.7406 216.226 32.1815C216.437 32.6101 216.704 32.9836 217.026 33.302C217.349 33.6204 217.715 33.8714 218.124 34.0551C218.546 34.2266 218.993 34.3123 219.464 34.3123C219.774 34.3123 220.084 34.2694 220.395 34.1837C220.705 34.098 220.99 33.9817 221.251 33.8347C221.511 33.6877 221.747 33.5102 221.958 33.302C222.169 33.0816 222.33 32.8428 222.442 32.5856L223.54 32.8795C223.391 33.2346 223.18 33.5592 222.907 33.8531C222.634 34.1347 222.318 34.3858 221.958 34.6062C221.598 34.8144 221.201 34.9736 220.767 35.0838C220.333 35.2063 219.88 35.2675 219.408 35.2675ZM222.981 29.7934C222.944 29.2791 222.82 28.8137 222.609 28.3973C222.411 27.9687 222.15 27.6013 221.827 27.2952C221.517 26.989 221.151 26.7502 220.73 26.5788C220.32 26.4073 219.88 26.3216 219.408 26.3216C218.937 26.3216 218.49 26.4073 218.068 26.5788C217.647 26.7502 217.274 26.989 216.952 27.2952C216.642 27.6013 216.387 27.9687 216.189 28.3973C216.003 28.826 215.891 29.2913 215.854 29.7934H222.981Z" fill="white"/>
<path d="M230.758 35.2675C230.001 35.2675 229.263 35.1451 228.544 34.9001C227.824 34.6552 227.204 34.3001 226.683 33.8347L227.26 32.9897C227.806 33.4306 228.358 33.7612 228.916 33.9817C229.487 34.2021 230.095 34.3123 230.74 34.3123C231.521 34.3123 232.142 34.1592 232.601 33.8531C233.072 33.5347 233.308 33.0877 233.308 32.5121C233.308 32.2427 233.246 32.0222 233.122 31.8508C232.998 31.6671 232.811 31.5079 232.563 31.3732C232.328 31.2385 232.024 31.1221 231.651 31.0242C231.292 30.914 230.87 30.8037 230.386 30.6935C229.828 30.5588 229.344 30.4241 228.935 30.2894C228.525 30.1547 228.184 30.0016 227.911 29.8302C227.651 29.6587 227.452 29.4505 227.316 29.2056C227.192 28.9484 227.129 28.63 227.129 28.2504C227.129 27.7728 227.223 27.3503 227.409 26.9829C227.607 26.6155 227.868 26.3155 228.19 26.0828C228.525 25.8379 228.91 25.6542 229.344 25.5317C229.791 25.4092 230.262 25.348 230.758 25.348C231.503 25.348 232.179 25.4705 232.787 25.7154C233.395 25.9481 233.885 26.2604 234.257 26.6522L233.643 27.387C233.283 27.0196 232.842 26.7441 232.321 26.5604C231.813 26.3767 231.279 26.2849 230.721 26.2849C230.386 26.2849 230.076 26.3216 229.791 26.3951C229.505 26.4563 229.251 26.5604 229.028 26.7073C228.817 26.8543 228.649 27.0441 228.525 27.2768C228.401 27.4972 228.339 27.7605 228.339 28.0667C228.339 28.3239 228.382 28.532 228.469 28.6913C228.556 28.8505 228.699 28.9913 228.897 29.1137C229.096 29.224 229.344 29.3281 229.642 29.426C229.952 29.5118 230.324 29.6036 230.758 29.7016C231.379 29.8485 231.924 29.9955 232.396 30.1424C232.867 30.2894 233.258 30.4608 233.568 30.6568C233.891 30.8527 234.133 31.0915 234.294 31.3732C234.455 31.6549 234.536 31.9978 234.536 32.4019C234.536 33.2836 234.195 33.9817 233.512 34.496C232.83 35.0103 231.912 35.2675 230.758 35.2675Z" fill="white"/>
<path d="M241.222 35.2675C240.465 35.2675 239.727 35.1451 239.008 34.9001C238.288 34.6552 237.668 34.3001 237.147 33.8347L237.724 32.9897C238.27 33.4306 238.822 33.7612 239.38 33.9817C239.951 34.2021 240.558 34.3123 241.204 34.3123C241.985 34.3123 242.605 34.1592 243.064 33.8531C243.536 33.5347 243.772 33.0877 243.772 32.5121C243.772 32.2427 243.71 32.0222 243.586 31.8508C243.461 31.6671 243.275 31.5079 243.027 31.3732C242.792 31.2385 242.488 31.1221 242.115 31.0242C241.756 30.914 241.334 30.8037 240.85 30.6935C240.292 30.5588 239.808 30.4241 239.399 30.2894C238.989 30.1547 238.648 30.0016 238.375 29.8302C238.114 29.6587 237.916 29.4505 237.78 29.2056C237.655 28.9484 237.593 28.63 237.593 28.2504C237.593 27.7728 237.686 27.3503 237.873 26.9829C238.071 26.6155 238.332 26.3155 238.654 26.0828C238.989 25.8379 239.374 25.6542 239.808 25.5317C240.255 25.4092 240.726 25.348 241.222 25.348C241.967 25.348 242.643 25.4705 243.251 25.7154C243.858 25.9481 244.349 26.2604 244.721 26.6522L244.107 27.387C243.747 27.0196 243.306 26.7441 242.785 26.5604C242.277 26.3767 241.743 26.2849 241.185 26.2849C240.85 26.2849 240.54 26.3216 240.255 26.3951C239.969 26.4563 239.715 26.5604 239.492 26.7073C239.281 26.8543 239.113 27.0441 238.989 27.2768C238.865 27.4972 238.803 27.7605 238.803 28.0667C238.803 28.3239 238.846 28.532 238.933 28.6913C239.02 28.8505 239.163 28.9913 239.361 29.1137C239.56 29.224 239.808 29.3281 240.106 29.426C240.416 29.5118 240.788 29.6036 241.222 29.7016C241.842 29.8485 242.388 29.9955 242.86 30.1424C243.331 30.2894 243.722 30.4608 244.032 30.6568C244.355 30.8527 244.597 31.0915 244.758 31.3732C244.919 31.6549 245 31.9978 245 32.4019C245 33.2836 244.659 33.9817 243.976 34.496C243.294 35.0103 242.376 35.2675 241.222 35.2675Z" fill="white"/>
<path d="M30.6264 37.1088C34.3606 24.3385 47.7402 17.0134 60.5105 20.7476C73.2808 24.4819 80.6059 37.8615 76.8716 50.6318C73.1373 63.402 59.7578 70.7272 46.9875 66.9929C34.2172 63.2586 26.8921 49.879 30.6264 37.1088Z" fill="#2B6A6C"/>
<path d="M4.50758 15.415C6.9971 6.90151 15.9168 2.0181 24.4303 4.50762C32.9439 6.99714 37.8273 15.9169 35.3378 24.4304C32.8482 32.9439 23.9285 37.8273 15.415 35.3378C6.90148 32.8483 2.01806 23.9285 4.50758 15.415Z" fill="#B80D48"/>
<path d="M36.2213 9.96374C37.4661 5.70698 41.9259 3.26528 46.1827 4.51004C50.4395 5.75479 52.8812 10.2147 51.6364 14.4714C50.3916 18.7282 45.9318 21.1699 41.675 19.9251C37.4183 18.6804 34.9766 14.2205 36.2213 9.96374Z" fill="#F29724"/>
</svg>
