<svg width="241" height="61" viewBox="0 0 241 61" fill="none" xmlns="http://www.w3.org/2000/svg">
<path d="M75.3941 37.9337H73.5755L73.6748 37.4599H77.8547L77.7553 37.9337H75.929L74.8745 42.8854H74.3472L75.3941 37.9337ZM79.5131 37.4599H80.0404L79.5284 39.8746H82.5468L83.0588 37.4599H83.5937L82.4398 42.8854H81.9049L82.4474 40.3484H79.4291L78.8865 42.8854H78.3593L79.5131 37.4599ZM85.7714 37.4599H89.1718L89.0725 37.9337H86.1993L85.779 39.8899H88.2854L88.1937 40.3408H85.6873L85.2441 42.4116H88.1861L88.0867 42.8854H84.6175L85.7714 37.4599ZM93.8029 37.4599H97.2034L97.1041 37.9337H94.2309L93.8106 39.8899H96.317L96.2253 40.3408H93.7189L93.2757 42.4116H96.2176L96.1183 42.8854H92.6491L93.8029 37.4599ZM99.0911 37.4599H100.849C101.185 37.4599 101.478 37.5134 101.727 37.6204C101.977 37.7274 102.183 37.8751 102.346 38.0636C102.509 38.2521 102.629 38.4737 102.705 38.7284C102.787 38.978 102.828 39.248 102.828 39.5384C102.828 40.0173 102.749 40.463 102.591 40.8757C102.433 41.2832 102.214 41.6373 101.934 41.9378C101.654 42.2333 101.322 42.4651 100.94 42.6332C100.558 42.8013 100.143 42.8854 99.6948 42.8854H97.9372L99.0911 37.4599ZM99.7941 42.4116C100.176 42.4116 100.52 42.3352 100.826 42.1824C101.136 42.0295 101.399 41.8258 101.613 41.571C101.827 41.3112 101.99 41.0132 102.102 40.677C102.219 40.3408 102.278 39.9893 102.278 39.6225C102.278 39.3779 102.244 39.1512 102.178 38.9424C102.117 38.7335 102.02 38.5552 101.888 38.4075C101.76 38.2597 101.6 38.1451 101.406 38.0636C101.218 37.977 100.996 37.9337 100.742 37.9337H99.519L98.5638 42.4116H99.7941ZM106.147 42.9236C105.832 42.9236 105.564 42.8777 105.345 42.786C105.126 42.6892 104.95 42.5593 104.818 42.3963C104.685 42.2333 104.589 42.0448 104.527 41.8309C104.471 41.6118 104.443 41.3775 104.443 41.1278C104.443 40.8375 104.479 40.5267 104.55 40.1956L105.131 37.4599H105.658L105.078 40.1956C105.047 40.3433 105.022 40.4885 105.001 40.6311C104.986 40.7687 104.978 40.9037 104.978 41.0361C104.978 41.2348 104.999 41.4208 105.039 41.594C105.085 41.7621 105.157 41.9098 105.253 42.0372C105.355 42.1594 105.485 42.2588 105.643 42.3352C105.806 42.4065 106.005 42.4422 106.239 42.4422C106.56 42.4422 106.84 42.3785 107.08 42.2511C107.324 42.1187 107.531 41.948 107.699 41.7392C107.872 41.5252 108.012 41.2832 108.119 41.0132C108.226 40.7432 108.307 40.4707 108.363 40.1956L108.944 37.4599H109.471L108.898 40.1956C108.822 40.5624 108.71 40.9113 108.562 41.2425C108.414 41.5736 108.226 41.864 107.997 42.1136C107.773 42.3581 107.508 42.5542 107.202 42.702C106.896 42.8497 106.545 42.9236 106.147 42.9236ZM112.487 42.9312C112.186 42.9312 111.919 42.8675 111.685 42.7402C111.45 42.6077 111.252 42.4345 111.089 42.2206C110.931 42.0066 110.808 41.7621 110.722 41.487C110.64 41.2119 110.6 40.9292 110.6 40.6388C110.6 40.2669 110.676 39.8925 110.829 39.5155C110.987 39.1334 111.203 38.7896 111.478 38.4839C111.753 38.1731 112.079 37.921 112.456 37.7274C112.833 37.5287 113.246 37.4294 113.694 37.4294C114.158 37.4294 114.527 37.5389 114.802 37.758C115.083 37.977 115.266 38.2623 115.353 38.6138L114.871 38.8736C114.825 38.6953 114.757 38.545 114.665 38.4228C114.578 38.3005 114.476 38.2012 114.359 38.1247C114.242 38.0483 114.115 37.9948 113.977 37.9643C113.84 37.9286 113.702 37.9108 113.564 37.9108C113.208 37.9108 112.879 37.9948 112.579 38.163C112.283 38.326 112.029 38.5399 111.815 38.8048C111.601 39.0646 111.433 39.355 111.31 39.676C111.193 39.9969 111.135 40.3102 111.135 40.6159C111.135 40.8655 111.168 41.1024 111.234 41.3265C111.305 41.5456 111.405 41.7392 111.532 41.9073C111.659 42.0754 111.815 42.2078 111.998 42.3046C112.181 42.4014 112.388 42.4498 112.617 42.4498C112.76 42.4498 112.91 42.432 113.068 42.3963C113.231 42.3556 113.391 42.2944 113.549 42.2129C113.707 42.1263 113.86 42.0219 114.008 41.8996C114.155 41.7723 114.288 41.6194 114.405 41.4411L114.802 41.6704C114.675 41.8742 114.52 42.055 114.336 42.2129C114.158 42.3658 113.964 42.4957 113.756 42.6026C113.547 42.7096 113.333 42.7911 113.114 42.8472C112.895 42.9032 112.686 42.9312 112.487 42.9312ZM118.926 37.4599H119.384L120.363 42.8854H119.797L119.499 41.189H117.214L116.206 42.8854H115.632L118.926 37.4599ZM119.468 40.7687L119.025 38.0865L117.413 40.7687H119.468ZM123.711 37.9337H121.892L121.992 37.4599H126.172L126.072 37.9337H124.246L123.192 42.8854H122.664L123.711 37.9337ZM127.83 37.4676H128.357L127.204 42.8854H126.676L127.83 37.4676ZM131.468 42.9236C131.163 42.9236 130.89 42.8625 130.651 42.7402C130.416 42.6128 130.218 42.4473 130.055 42.2435C129.892 42.0346 129.767 41.7952 129.68 41.5252C129.599 41.2552 129.558 40.975 129.558 40.6846C129.558 40.272 129.645 39.8695 129.818 39.4773C129.991 39.085 130.22 38.7361 130.506 38.4304C130.796 38.1247 131.125 37.8802 131.491 37.6968C131.863 37.5134 132.248 37.4217 132.645 37.4217C132.951 37.4217 133.221 37.4854 133.455 37.6128C133.689 37.7401 133.886 37.9082 134.044 38.1171C134.207 38.326 134.329 38.5654 134.41 38.8354C134.497 39.1054 134.54 39.3856 134.54 39.676C134.54 40.0886 134.454 40.4911 134.28 40.8833C134.112 41.2705 133.886 41.6169 133.6 41.9226C133.315 42.2231 132.986 42.4651 132.615 42.6485C132.248 42.8319 131.866 42.9236 131.468 42.9236ZM131.575 42.4422C131.912 42.4422 132.225 42.3607 132.515 42.1976C132.811 42.0346 133.068 41.8232 133.287 41.5634C133.511 41.2985 133.687 41.0056 133.814 40.6846C133.942 40.3586 134.005 40.0351 134.005 39.7142C134.005 39.4747 133.972 39.2455 133.906 39.0264C133.84 38.8074 133.743 38.6163 133.616 38.4533C133.493 38.2852 133.341 38.1528 133.157 38.056C132.974 37.9592 132.767 37.9108 132.538 37.9108C132.202 37.9108 131.886 37.9923 131.591 38.1553C131.295 38.3183 131.035 38.5297 130.811 38.7896C130.592 39.0494 130.419 39.3423 130.292 39.6683C130.164 39.9893 130.101 40.3128 130.101 40.6388C130.101 40.8782 130.131 41.1075 130.192 41.3265C130.258 41.5456 130.355 41.7392 130.483 41.9073C130.61 42.0703 130.763 42.2002 130.941 42.297C131.125 42.3938 131.336 42.4422 131.575 42.4422ZM136.899 37.4599H137.312L139.726 41.976L140.682 37.4676H141.209L140.055 42.8854H139.604L137.212 38.4533L136.272 42.8854H135.745L136.899 37.4599ZM147.049 42.9312C146.748 42.9312 146.481 42.8675 146.246 42.7402C146.012 42.6077 145.813 42.4345 145.65 42.2206C145.493 42.0066 145.37 41.7621 145.284 41.487C145.202 41.2119 145.161 40.9292 145.161 40.6388C145.161 40.2669 145.238 39.8925 145.391 39.5155C145.549 39.1334 145.765 38.7896 146.04 38.4839C146.315 38.1731 146.641 37.921 147.018 37.7274C147.395 37.5287 147.808 37.4294 148.256 37.4294C148.72 37.4294 149.089 37.5389 149.364 37.758C149.644 37.977 149.828 38.2623 149.914 38.6138L149.433 38.8736C149.387 38.6953 149.318 38.545 149.227 38.4228C149.14 38.3005 149.038 38.2012 148.921 38.1247C148.804 38.0483 148.676 37.9948 148.539 37.9643C148.401 37.9286 148.264 37.9108 148.126 37.9108C147.77 37.9108 147.441 37.9948 147.141 38.163C146.845 38.326 146.59 38.5399 146.376 38.8048C146.162 39.0646 145.994 39.355 145.872 39.676C145.755 39.9969 145.696 40.3102 145.696 40.6159C145.696 40.8655 145.729 41.1024 145.796 41.3265C145.867 41.5456 145.966 41.7392 146.094 41.9073C146.221 42.0754 146.376 42.2078 146.56 42.3046C146.743 42.4014 146.949 42.4498 147.179 42.4498C147.321 42.4498 147.472 42.432 147.63 42.3963C147.793 42.3556 147.953 42.2944 148.111 42.2129C148.269 42.1263 148.422 42.0219 148.569 41.8996C148.717 41.7723 148.85 41.6194 148.967 41.4411L149.364 41.6704C149.237 41.8742 149.081 42.055 148.898 42.2129C148.72 42.3658 148.526 42.4957 148.317 42.6026C148.108 42.7096 147.894 42.7911 147.675 42.8472C147.456 42.9032 147.248 42.9312 147.049 42.9312ZM152.875 42.9236C152.569 42.9236 152.296 42.8625 152.057 42.7402C151.823 42.6128 151.624 42.4473 151.461 42.2435C151.298 42.0346 151.173 41.7952 151.087 41.5252C151.005 41.2552 150.964 40.975 150.964 40.6846C150.964 40.272 151.051 39.8695 151.224 39.4773C151.397 39.085 151.627 38.7361 151.912 38.4304C152.202 38.1247 152.531 37.8802 152.898 37.6968C153.269 37.5134 153.654 37.4217 154.051 37.4217C154.357 37.4217 154.627 37.4854 154.861 37.6128C155.096 37.7401 155.292 37.9082 155.45 38.1171C155.613 38.326 155.735 38.5654 155.817 38.8354C155.903 39.1054 155.946 39.3856 155.946 39.676C155.946 40.0886 155.86 40.4911 155.687 40.8833C155.519 41.2705 155.292 41.6169 155.007 41.9226C154.721 42.2231 154.393 42.4651 154.021 42.6485C153.654 42.8319 153.272 42.9236 152.875 42.9236ZM152.982 42.4422C153.318 42.4422 153.631 42.3607 153.922 42.1976C154.217 42.0346 154.474 41.8232 154.693 41.5634C154.917 41.2985 155.093 41.0056 155.221 40.6846C155.348 40.3586 155.412 40.0351 155.412 39.7142C155.412 39.4747 155.378 39.2455 155.312 39.0264C155.246 38.8074 155.149 38.6163 155.022 38.4533C154.9 38.2852 154.747 38.1528 154.563 38.056C154.38 37.9592 154.174 37.9108 153.944 37.9108C153.608 37.9108 153.292 37.9923 152.997 38.1553C152.701 38.3183 152.442 38.5297 152.217 38.7896C151.998 39.0494 151.825 39.3423 151.698 39.6683C151.57 39.9893 151.507 40.3128 151.507 40.6388C151.507 40.8782 151.537 41.1075 151.598 41.3265C151.665 41.5456 151.762 41.7392 151.889 41.9073C152.016 42.0703 152.169 42.2002 152.347 42.297C152.531 42.3938 152.742 42.4422 152.982 42.4422ZM158.305 37.4599H158.718L161.133 41.976L162.088 37.4676H162.615L161.461 42.8854H161.01L158.619 38.4533L157.679 42.8854H157.151L158.305 37.4599ZM164.802 37.4599H165.215L167.63 41.976L168.585 37.4676H169.112L167.958 42.8854H167.507L165.116 38.4533L164.176 42.8854H163.648L164.802 37.4599ZM171.299 37.4599H174.7L174.6 37.9337H171.727L171.307 39.8899H173.813L173.722 40.3408H171.215L170.772 42.4116H173.714L173.615 42.8854H170.145L171.299 37.4599ZM177.4 42.9312C177.099 42.9312 176.832 42.8675 176.597 42.7402C176.363 42.6077 176.164 42.4345 176.001 42.2206C175.843 42.0066 175.721 41.7621 175.635 41.487C175.553 41.2119 175.512 40.9292 175.512 40.6388C175.512 40.2669 175.589 39.8925 175.742 39.5155C175.899 39.1334 176.116 38.7896 176.391 38.4839C176.666 38.1731 176.992 37.921 177.369 37.7274C177.746 37.5287 178.159 37.4294 178.607 37.4294C179.071 37.4294 179.44 37.5389 179.715 37.758C179.995 37.977 180.179 38.2623 180.265 38.6138L179.784 38.8736C179.738 38.6953 179.669 38.545 179.578 38.4228C179.491 38.3005 179.389 38.2012 179.272 38.1247C179.155 38.0483 179.027 37.9948 178.89 37.9643C178.752 37.9286 178.615 37.9108 178.477 37.9108C178.121 37.9108 177.792 37.9948 177.491 38.163C177.196 38.326 176.941 38.5399 176.727 38.8048C176.513 39.0646 176.345 39.355 176.223 39.676C176.106 39.9969 176.047 40.3102 176.047 40.6159C176.047 40.8655 176.08 41.1024 176.147 41.3265C176.218 41.5456 176.317 41.7392 176.445 41.9073C176.572 42.0754 176.727 42.2078 176.911 42.3046C177.094 42.4014 177.3 42.4498 177.53 42.4498C177.672 42.4498 177.823 42.432 177.981 42.3963C178.144 42.3556 178.304 42.2944 178.462 42.2129C178.62 42.1263 178.773 42.0219 178.92 41.8996C179.068 41.7723 179.201 41.6194 179.318 41.4411L179.715 41.6704C179.588 41.8742 179.432 42.055 179.249 42.2129C179.071 42.3658 178.877 42.4957 178.668 42.6026C178.459 42.7096 178.245 42.7911 178.026 42.8472C177.807 42.9032 177.598 42.9312 177.4 42.9312ZM183.395 37.9337H181.577L181.676 37.4599H185.856L185.757 37.9337H183.93L182.876 42.8854H182.349L183.395 37.9337ZM187.514 37.4676H188.042L186.888 42.8854H186.361L187.514 37.4676ZM191.153 42.9236C190.847 42.9236 190.574 42.8625 190.335 42.7402C190.101 42.6128 189.902 42.4473 189.739 42.2435C189.576 42.0346 189.451 41.7952 189.365 41.5252C189.283 41.2552 189.242 40.975 189.242 40.6846C189.242 40.272 189.329 39.8695 189.502 39.4773C189.675 39.085 189.905 38.7361 190.19 38.4304C190.48 38.1247 190.809 37.8802 191.176 37.6968C191.547 37.5134 191.932 37.4217 192.329 37.4217C192.635 37.4217 192.905 37.4854 193.139 37.6128C193.374 37.7401 193.57 37.9082 193.728 38.1171C193.891 38.326 194.013 38.5654 194.095 38.8354C194.181 39.1054 194.225 39.3856 194.225 39.676C194.225 40.0886 194.138 40.4911 193.965 40.8833C193.797 41.2705 193.57 41.6169 193.285 41.9226C192.999 42.2231 192.671 42.4651 192.299 42.6485C191.932 42.8319 191.55 42.9236 191.153 42.9236ZM191.26 42.4422C191.596 42.4422 191.909 42.3607 192.2 42.1976C192.495 42.0346 192.752 41.8232 192.971 41.5634C193.195 41.2985 193.371 41.0056 193.499 40.6846C193.626 40.3586 193.69 40.0351 193.69 39.7142C193.69 39.4747 193.657 39.2455 193.59 39.0264C193.524 38.8074 193.427 38.6163 193.3 38.4533C193.178 38.2852 193.025 38.1528 192.841 38.056C192.658 37.9592 192.452 37.9108 192.222 37.9108C191.886 37.9108 191.57 37.9923 191.275 38.1553C190.979 38.3183 190.72 38.5297 190.496 38.7896C190.276 39.0494 190.103 39.3423 189.976 39.6683C189.849 39.9893 189.785 40.3128 189.785 40.6388C189.785 40.8782 189.815 41.1075 189.877 41.3265C189.943 41.5456 190.04 41.7392 190.167 41.9073C190.294 42.0703 190.447 42.2002 190.625 42.297C190.809 42.3938 191.02 42.4422 191.26 42.4422ZM196.583 37.4599H196.996L199.411 41.976L200.366 37.4676H200.893L199.739 42.8854H199.288L196.897 38.4533L195.957 42.8854H195.429L196.583 37.4599Z" fill="black"/>
<path d="M73.0599 29.0311V18.1978H80.3381V20.044H75.1656V22.8363H79.4683V24.5452H75.1656V29.0311H73.0599ZM85.9384 29.1836C85.2874 29.1836 84.7025 29.0718 84.1837 28.848C83.6649 28.6242 83.2224 28.3241 82.8562 27.9477C82.5002 27.5612 82.2256 27.1187 82.0323 26.6203C81.839 26.1219 81.7424 25.598 81.7424 25.0487C81.7424 24.4892 81.839 23.9603 82.0323 23.4619C82.2256 22.9634 82.5002 22.526 82.8562 22.1497C83.2224 21.7631 83.6649 21.458 84.1837 21.2342C84.7025 21.0104 85.2874 20.8985 85.9384 20.8985C86.5894 20.8985 87.1692 21.0104 87.6778 21.2342C88.1966 21.458 88.634 21.7631 88.99 22.1497C89.3562 22.526 89.6359 22.9634 89.8292 23.4619C90.0225 23.9603 90.1191 24.4892 90.1191 25.0487C90.1191 25.598 90.0225 26.1219 89.8292 26.6203C89.6359 27.1187 89.3613 27.5612 89.0052 27.9477C88.6492 28.3241 88.2118 28.6242 87.6931 28.848C87.1743 29.0718 86.5894 29.1836 85.9384 29.1836ZM83.848 25.0487C83.848 25.4047 83.8989 25.7302 84.0006 26.0252C84.1125 26.31 84.26 26.5593 84.4431 26.7729C84.6363 26.9865 84.8601 27.1543 85.1144 27.2764C85.3687 27.3883 85.6434 27.4442 85.9384 27.4442C86.2334 27.4442 86.508 27.3883 86.7623 27.2764C87.0166 27.1543 87.2353 26.9865 87.4184 26.7729C87.6117 26.5593 87.7592 26.305 87.8609 26.01C87.9728 25.715 88.0287 25.3895 88.0287 25.0334C88.0287 24.6876 87.9728 24.3672 87.8609 24.0722C87.7592 23.7772 87.6117 23.5229 87.4184 23.3093C87.2353 23.0957 87.0166 22.9329 86.7623 22.821C86.508 22.699 86.2334 22.6379 85.9384 22.6379C85.6434 22.6379 85.3687 22.699 85.1144 22.821C84.8601 22.9431 84.6363 23.1109 84.4431 23.3245C84.26 23.5382 84.1125 23.7925 84.0006 24.0874C83.8989 24.3824 83.848 24.7029 83.848 25.0487ZM97.404 22.8058C96.7835 22.8159 96.2291 22.938 95.7409 23.172C95.2526 23.3957 94.9017 23.7365 94.6881 24.1943V29.0311H92.6435V21.0358H94.5202V22.7447C94.6626 22.4701 94.8305 22.226 95.0237 22.0123C95.217 21.7886 95.4255 21.5953 95.6493 21.4325C95.8731 21.2698 96.0969 21.1477 96.3207 21.0663C96.5546 20.9748 96.7784 20.929 96.992 20.929C97.1039 20.929 97.1853 20.929 97.2362 20.929C97.2972 20.929 97.3531 20.9341 97.404 20.9443V22.8058ZM112.109 29.0311H110.064V24.5452C110.064 23.9043 109.952 23.4364 109.728 23.1414C109.515 22.8465 109.215 22.699 108.828 22.699C108.421 22.699 108.04 22.8566 107.684 23.172C107.328 23.4771 107.073 23.8789 106.921 24.3773V29.0311H104.876V24.5452C104.876 23.9043 104.764 23.4364 104.54 23.1414C104.327 22.8465 104.027 22.699 103.64 22.699C103.244 22.699 102.862 22.8515 102.496 23.1567C102.14 23.4619 101.886 23.8637 101.733 24.3621V29.0311H99.6884V21.0358H101.535V22.5159C101.83 21.9971 102.231 21.6004 102.74 21.3257C103.259 21.0409 103.849 20.8985 104.51 20.8985C105.181 20.8985 105.7 21.0613 106.066 21.3868C106.432 21.7123 106.666 22.1141 106.768 22.5922C107.094 22.0429 107.506 21.6258 108.004 21.341C108.503 21.046 109.072 20.8985 109.713 20.8985C110.201 20.8985 110.603 20.9901 110.918 21.1731C111.234 21.3562 111.478 21.5953 111.651 21.8903C111.824 22.1853 111.941 22.5209 112.002 22.8973C112.073 23.2737 112.109 23.6551 112.109 24.0417V29.0311ZM118.741 29.1836C118.1 29.1836 117.52 29.0768 117.001 28.8632C116.482 28.6394 116.04 28.3394 115.674 27.963C115.308 27.5866 115.023 27.1492 114.819 26.6508C114.626 26.1524 114.529 25.6285 114.529 25.0792C114.529 24.5096 114.626 23.9756 114.819 23.4771C115.013 22.9685 115.292 22.526 115.659 22.1497C116.025 21.7631 116.467 21.458 116.986 21.2342C117.515 21.0104 118.105 20.8985 118.756 20.8985C119.407 20.8985 119.987 21.0104 120.495 21.2342C121.014 21.458 121.452 21.758 121.808 22.1344C122.174 22.5108 122.448 22.9482 122.631 23.4466C122.825 23.945 122.921 24.4638 122.921 25.0029C122.921 25.1352 122.916 25.2623 122.906 25.3844C122.906 25.5064 122.896 25.6082 122.876 25.6895H116.696C116.727 26.0049 116.803 26.2846 116.925 26.5287C117.047 26.7729 117.205 26.9814 117.398 27.1543C117.591 27.3272 117.81 27.4595 118.054 27.551C118.298 27.6426 118.552 27.6884 118.817 27.6884C119.224 27.6884 119.605 27.5917 119.961 27.3985C120.327 27.195 120.577 26.9305 120.709 26.605L122.464 27.0933C122.169 27.7036 121.696 28.2071 121.045 28.6038C120.404 28.9904 119.636 29.1836 118.741 29.1836ZM120.816 24.3621C120.765 23.7619 120.541 23.2839 120.144 22.9278C119.758 22.5616 119.285 22.3785 118.725 22.3785C118.451 22.3785 118.191 22.4294 117.947 22.5311C117.713 22.6227 117.505 22.7549 117.322 22.9278C117.139 23.1008 116.986 23.3093 116.864 23.5534C116.752 23.7975 116.686 24.0671 116.666 24.3621H120.816ZM129.019 29.1836C128.378 29.1836 127.798 29.0768 127.28 28.8632C126.761 28.6394 126.318 28.3394 125.952 27.963C125.586 27.5866 125.301 27.1492 125.098 26.6508C124.904 26.1524 124.808 25.6285 124.808 25.0792C124.808 24.5096 124.904 23.9756 125.098 23.4771C125.291 22.9685 125.571 22.526 125.937 22.1497C126.303 21.7631 126.746 21.458 127.264 21.2342C127.793 21.0104 128.383 20.8985 129.034 20.8985C129.685 20.8985 130.265 21.0104 130.774 21.2342C131.292 21.458 131.73 21.758 132.086 22.1344C132.452 22.5108 132.727 22.9482 132.91 23.4466C133.103 23.945 133.2 24.4638 133.2 25.0029C133.2 25.1352 133.195 25.2623 133.184 25.3844C133.184 25.5064 133.174 25.6082 133.154 25.6895H126.974C127.005 26.0049 127.081 26.2846 127.203 26.5287C127.325 26.7729 127.483 26.9814 127.676 27.1543C127.87 27.3272 128.088 27.4595 128.332 27.551C128.577 27.6426 128.831 27.6884 129.095 27.6884C129.502 27.6884 129.884 27.5917 130.24 27.3985C130.606 27.195 130.855 26.9305 130.987 26.605L132.742 27.0933C132.447 27.7036 131.974 28.2071 131.323 28.6038C130.682 28.9904 129.914 29.1836 129.019 29.1836ZM131.094 24.3621C131.043 23.7619 130.819 23.2839 130.423 22.9278C130.036 22.5616 129.563 22.3785 129.004 22.3785C128.729 22.3785 128.47 22.4294 128.226 22.5311C127.992 22.6227 127.783 22.7549 127.6 22.9278C127.417 23.1008 127.264 23.3093 127.142 23.5534C127.03 23.7975 126.964 24.0671 126.944 24.3621H131.094ZM148.105 28.0851V29.0311H140.827V18.1978H147.968V19.1438H141.895V23.0499H147.189V23.9501H141.895V28.0851H148.105ZM151.254 21.0816L153.634 24.1943L153.756 24.4231L153.878 24.1943L156.258 21.0816H157.372L154.336 25.0792L157.372 29.0311H156.258L153.878 25.9337L153.756 25.7201L153.634 25.9337L151.254 29.0311H150.14L153.176 25.0792L150.14 21.0816H151.254ZM163.947 29.1836C163.276 29.1836 162.681 29.0158 162.162 28.6801C161.653 28.3343 161.241 27.902 160.926 27.3832V32.281H159.888V21.0816H160.819V22.6227C161.145 22.1242 161.567 21.7224 162.086 21.4173C162.604 21.1019 163.169 20.9443 163.779 20.9443C164.329 20.9443 164.832 21.0613 165.29 21.2952C165.748 21.519 166.144 21.8242 166.48 22.2107C166.816 22.5871 167.075 23.0245 167.258 23.5229C167.451 24.0213 167.548 24.535 167.548 25.064C167.548 25.6234 167.461 26.1524 167.289 26.6508C167.116 27.1492 166.866 27.5866 166.541 27.963C166.226 28.3394 165.844 28.6394 165.397 28.8632C164.959 29.0768 164.476 29.1836 163.947 29.1836ZM163.657 28.2682C164.084 28.2682 164.471 28.1766 164.817 27.9935C165.173 27.8104 165.473 27.5714 165.717 27.2764C165.971 26.9712 166.165 26.6305 166.297 26.2541C166.429 25.8676 166.495 25.4708 166.495 25.064C166.495 24.6367 166.419 24.2299 166.266 23.8433C166.114 23.4568 165.905 23.116 165.641 22.821C165.376 22.526 165.061 22.2921 164.695 22.1192C164.339 21.9462 163.952 21.8598 163.535 21.8598C163.271 21.8598 162.991 21.9157 162.696 22.0276C162.411 22.1293 162.142 22.2717 161.887 22.4548C161.643 22.6278 161.429 22.8363 161.246 23.0804C161.073 23.3144 160.967 23.5636 160.926 23.8281V26.2694C161.048 26.5542 161.201 26.8186 161.384 27.0628C161.577 27.3069 161.791 27.5205 162.025 27.7036C162.269 27.8765 162.528 28.0139 162.803 28.1156C163.077 28.2173 163.362 28.2682 163.657 28.2682ZM174.417 21.9971C173.715 22.0174 173.105 22.2107 172.586 22.5769C172.067 22.9431 171.701 23.4466 171.487 24.0874V29.0311H170.45V21.0816H171.426V22.9889C171.721 22.3785 172.118 21.9005 172.617 21.5546C173.115 21.2088 173.649 21.0358 174.219 21.0358C174.3 21.0358 174.366 21.0409 174.417 21.0511V21.9971ZM179.974 29.1836C179.394 29.1836 178.86 29.0768 178.372 28.8632C177.894 28.6394 177.477 28.3394 177.121 27.963C176.765 27.5765 176.485 27.134 176.282 26.6355C176.089 26.1371 175.992 25.6031 175.992 25.0334C175.992 24.474 176.089 23.9501 176.282 23.4619C176.485 22.9634 176.76 22.5311 177.106 22.1649C177.462 21.7886 177.884 21.4936 178.372 21.28C178.86 21.0562 179.389 20.9443 179.959 20.9443C180.539 20.9443 181.068 21.0562 181.546 21.28C182.034 21.4936 182.451 21.7886 182.797 22.1649C183.143 22.5413 183.412 22.9736 183.606 23.4619C183.799 23.9501 183.896 24.4689 183.896 25.0182C183.896 25.0996 183.896 25.1809 183.896 25.2623C183.896 25.3437 183.89 25.3996 183.88 25.4302H177.075C177.106 25.8574 177.202 26.2541 177.365 26.6203C177.538 26.9763 177.757 27.2866 178.021 27.551C178.286 27.8155 178.586 28.024 178.921 28.1766C179.267 28.319 179.633 28.3902 180.02 28.3902C180.274 28.3902 180.529 28.3546 180.783 28.2834C181.037 28.2122 181.271 28.1156 181.485 27.9935C181.698 27.8715 181.892 27.724 182.065 27.551C182.238 27.3679 182.37 27.1696 182.461 26.956L183.362 27.2001C183.239 27.4951 183.067 27.7646 182.843 28.0088C182.619 28.2427 182.36 28.4513 182.065 28.6344C181.77 28.8073 181.444 28.9395 181.088 29.0311C180.732 29.1328 180.361 29.1836 179.974 29.1836ZM182.904 24.6367C182.873 24.2095 182.772 23.823 182.599 23.4771C182.436 23.1211 182.222 22.8159 181.958 22.5616C181.703 22.3073 181.403 22.109 181.058 21.9666C180.722 21.8242 180.361 21.753 179.974 21.753C179.588 21.753 179.222 21.8242 178.876 21.9666C178.53 22.109 178.225 22.3073 177.96 22.5616C177.706 22.8159 177.497 23.1211 177.335 23.4771C177.182 23.8331 177.09 24.2197 177.06 24.6367H182.904ZM189.28 29.1836C188.66 29.1836 188.055 29.0819 187.465 28.8785C186.875 28.675 186.366 28.3801 185.939 27.9935L186.412 27.2916C186.859 27.6578 187.312 27.9325 187.77 28.1156C188.238 28.2987 188.736 28.3902 189.265 28.3902C189.906 28.3902 190.415 28.2631 190.791 28.0088C191.177 27.7443 191.371 27.373 191.371 26.8949C191.371 26.6711 191.32 26.4881 191.218 26.3456C191.116 26.1931 190.964 26.0608 190.76 25.9489C190.567 25.837 190.318 25.7404 190.013 25.659C189.718 25.5675 189.372 25.4759 188.975 25.3844C188.517 25.2725 188.121 25.1606 187.785 25.0487C187.449 24.9368 187.17 24.8097 186.946 24.6673C186.732 24.5248 186.57 24.3519 186.458 24.1485C186.356 23.9349 186.305 23.6704 186.305 23.3551C186.305 22.9583 186.381 22.6074 186.534 22.3022C186.697 21.9971 186.91 21.7479 187.175 21.5546C187.449 21.3512 187.765 21.1986 188.121 21.0969C188.487 20.9951 188.873 20.9443 189.28 20.9443C189.891 20.9443 190.445 21.046 190.944 21.2494C191.442 21.4427 191.844 21.7021 192.149 22.0276L191.645 22.6379C191.35 22.3328 190.989 22.1039 190.562 21.9513C190.145 21.7987 189.708 21.7224 189.25 21.7224C188.975 21.7224 188.721 21.753 188.487 21.814C188.253 21.8648 188.044 21.9513 187.861 22.0734C187.688 22.1954 187.551 22.3531 187.449 22.5464C187.348 22.7295 187.297 22.9482 187.297 23.2025C187.297 23.4161 187.332 23.589 187.404 23.7212C187.475 23.8535 187.592 23.9705 187.755 24.0722C187.917 24.1637 188.121 24.2502 188.365 24.3316C188.619 24.4028 188.924 24.4791 189.28 24.5604C189.789 24.6825 190.237 24.8046 190.623 24.9266C191.01 25.0487 191.33 25.1911 191.584 25.3539C191.849 25.5166 192.047 25.715 192.179 25.9489C192.312 26.1829 192.378 26.4677 192.378 26.8034C192.378 27.5358 192.098 28.1156 191.539 28.5428C190.979 28.97 190.226 29.1836 189.28 29.1836ZM197.86 29.1836C197.24 29.1836 196.634 29.0819 196.044 28.8785C195.454 28.675 194.946 28.3801 194.519 27.9935L194.992 27.2916C195.439 27.6578 195.892 27.9325 196.35 28.1156C196.817 28.2987 197.316 28.3902 197.845 28.3902C198.486 28.3902 198.994 28.2631 199.371 28.0088C199.757 27.7443 199.95 27.373 199.95 26.8949C199.95 26.6711 199.9 26.4881 199.798 26.3456C199.696 26.1931 199.544 26.0608 199.34 25.9489C199.147 25.837 198.898 25.7404 198.592 25.659C198.297 25.5675 197.952 25.4759 197.555 25.3844C197.097 25.2725 196.7 25.1606 196.365 25.0487C196.029 24.9368 195.749 24.8097 195.526 24.6673C195.312 24.5248 195.149 24.3519 195.037 24.1485C194.936 23.9349 194.885 23.6704 194.885 23.3551C194.885 22.9583 194.961 22.6074 195.114 22.3022C195.276 21.9971 195.49 21.7479 195.754 21.5546C196.029 21.3512 196.344 21.1986 196.7 21.0969C197.067 20.9951 197.453 20.9443 197.86 20.9443C198.47 20.9443 199.025 21.046 199.523 21.2494C200.022 21.4427 200.423 21.7021 200.729 22.0276L200.225 22.6379C199.93 22.3328 199.569 22.1039 199.142 21.9513C198.725 21.7987 198.287 21.7224 197.83 21.7224C197.555 21.7224 197.301 21.753 197.067 21.814C196.833 21.8648 196.624 21.9513 196.441 22.0734C196.268 22.1954 196.131 22.3531 196.029 22.5464C195.927 22.7295 195.877 22.9482 195.877 23.2025C195.877 23.4161 195.912 23.589 195.983 23.7212C196.055 23.8535 196.172 23.9705 196.334 24.0722C196.497 24.1637 196.7 24.2502 196.945 24.3316C197.199 24.4028 197.504 24.4791 197.86 24.5604C198.369 24.6825 198.816 24.8046 199.203 24.9266C199.589 25.0487 199.91 25.1911 200.164 25.3539C200.429 25.5166 200.627 25.715 200.759 25.9489C200.891 26.1829 200.957 26.4677 200.957 26.8034C200.957 27.5358 200.678 28.1156 200.118 28.5428C199.559 28.97 198.806 29.1836 197.86 29.1836Z" fill="#444444"/>
<circle cx="44.1218" cy="36.0416" r="19.7759" transform="rotate(-163.7 44.1218 36.0416)" fill="#2B6A6C"/>
<circle cx="16.3543" cy="16.3836" r="13.184" transform="rotate(-163.7 16.3543 16.3836)" fill="#B80D48"/>
<circle cx="36.0608" cy="10.0584" r="6.59198" transform="rotate(-163.7 36.0608 10.0584)" fill="#F29724"/>
</svg>
